M48
; DRILL file {KiCad (5.1.5-0)} date Thursday, February 13, 2020 at 07:58:36 AM
; FORMAT={-:-/ absolute / inch / decimal}
; #@! TF.CreationDate,2020-02-13T07:58:36-05:00
; #@! TF.GenerationSoftware,Kicad,Pcbnew,(5.1.5-0)
; #@! TF.FileFunction,Plated,1,2,PTH
FMAT,2
INCH
T1C0.0157
T2C0.0236
T3C0.0250
T4C0.0335
T5C0.0394
T6C0.0500
T7C0.0600
%
G90
G05
T1
X6.2264Y-3.1532
X6.352Y-3.0592
X6.4016Y-2.9884
X6.5165Y-2.6955
X6.5169Y-2.5922
X6.524Y-2.504
X6.72Y-3.1665
X6.7915Y-3.0805
X6.8474Y-2.7956
X6.9068Y-2.4907
X6.9746Y-2.721
X7.0492Y-2.721
X7.2078Y-2.971
X7.2534Y-2.6546
X7.3382Y-3.1716
X7.4035Y-2.9045
X7.6535Y-2.9685
X7.805Y-2.8544
X7.827Y-2.9723
X7.849Y-2.8512
T3
X7.875Y-3.1835
X7.6016Y-3.1891
T4
X7.9847Y-2.804
X7.9847Y-3.0009
T5
X5.835Y-3.0755
X5.935Y-3.0755
X6.2Y-2.4
X6.3Y-2.4
X6.4Y-2.4
X6.5Y-2.4
X6.6Y-2.4
X6.7Y-2.4
X6.8Y-2.4
X6.9Y-2.4
X7.0Y-2.4
X7.1Y-2.4
X7.2Y-2.4
X7.3Y-2.4
X7.4Y-2.4
X7.5Y-2.4
X7.6Y-2.4
X7.7Y-2.4
X7.8Y-2.4
X7.9Y-2.4
X8.0Y-2.4
X8.1Y-2.4
X7.6155Y-2.5255
X7.6155Y-2.6255
X7.7155Y-2.5255
X7.7155Y-2.6255
X7.8155Y-2.5255
X7.8155Y-2.6255
X7.9155Y-2.5255
X7.9155Y-2.6255
X8.0155Y-2.5255
X8.0155Y-2.6255
X7.175Y-2.51
X7.275Y-2.51
X7.375Y-2.51
X6.2Y-3.3
X6.3Y-3.3
X6.4Y-3.3
X6.5Y-3.3
X6.6Y-3.3
X6.7Y-3.3
X6.8Y-3.3
X6.9Y-3.3
X7.0Y-3.3
X7.1Y-3.3
X7.2Y-3.3
X7.3Y-3.3
X7.4Y-3.3
X7.5Y-3.3
X7.6Y-3.3
X7.7Y-3.3
X7.8Y-3.3
X7.9Y-3.3
X8.0Y-3.3
X8.1Y-3.3
T6
X5.934Y-2.702
T7
X5.809Y-2.577
X5.809Y-2.827
X6.059Y-2.577
X6.059Y-2.827
T2
G00X8.0772Y-2.7646
M15
G01X8.1048Y-2.7646
M16
G05
G00X8.1048Y-3.0402
M15
G01X8.0772Y-3.0402
M16
G05
T0
M30
