G04 #@! TF.GenerationSoftware,KiCad,Pcbnew,(5.1.5-0)*
G04 #@! TF.CreationDate,2020-02-13T07:59:00-05:00*
G04 #@! TF.ProjectId,bfunc,6266756e-632e-46b6-9963-61645f706362,rev?*
G04 #@! TF.SameCoordinates,Original*
G04 #@! TF.FileFunction,Soldermask,Top*
G04 #@! TF.FilePolarity,Negative*
%FSLAX46Y46*%
G04 Gerber Fmt 4.6, Leading zero omitted, Abs format (unit mm)*
G04 Created by KiCad (PCBNEW (5.1.5-0)) date 2020-02-13 07:59:00*
%MOMM*%
%LPD*%
G04 APERTURE LIST*
%ADD10C,0.100000*%
G04 APERTURE END LIST*
D10*
G36*
X205853512Y-82923927D02*
G01*
X206002812Y-82953624D01*
X206166784Y-83021544D01*
X206314354Y-83120147D01*
X206439853Y-83245646D01*
X206538456Y-83393216D01*
X206606376Y-83557188D01*
X206641000Y-83731259D01*
X206641000Y-83908741D01*
X206606376Y-84082812D01*
X206538456Y-84246784D01*
X206439853Y-84394354D01*
X206314354Y-84519853D01*
X206166784Y-84618456D01*
X206002812Y-84686376D01*
X205853512Y-84716073D01*
X205828742Y-84721000D01*
X205651258Y-84721000D01*
X205626488Y-84716073D01*
X205477188Y-84686376D01*
X205313216Y-84618456D01*
X205165646Y-84519853D01*
X205040147Y-84394354D01*
X204941544Y-84246784D01*
X204873624Y-84082812D01*
X204839000Y-83908741D01*
X204839000Y-83731259D01*
X204873624Y-83557188D01*
X204941544Y-83393216D01*
X205040147Y-83245646D01*
X205165646Y-83120147D01*
X205313216Y-83021544D01*
X205477188Y-82953624D01*
X205626488Y-82923927D01*
X205651258Y-82919000D01*
X205828742Y-82919000D01*
X205853512Y-82923927D01*
G37*
G36*
X203313512Y-82923927D02*
G01*
X203462812Y-82953624D01*
X203626784Y-83021544D01*
X203774354Y-83120147D01*
X203899853Y-83245646D01*
X203998456Y-83393216D01*
X204066376Y-83557188D01*
X204101000Y-83731259D01*
X204101000Y-83908741D01*
X204066376Y-84082812D01*
X203998456Y-84246784D01*
X203899853Y-84394354D01*
X203774354Y-84519853D01*
X203626784Y-84618456D01*
X203462812Y-84686376D01*
X203313512Y-84716073D01*
X203288742Y-84721000D01*
X203111258Y-84721000D01*
X203086488Y-84716073D01*
X202937188Y-84686376D01*
X202773216Y-84618456D01*
X202625646Y-84519853D01*
X202500147Y-84394354D01*
X202401544Y-84246784D01*
X202333624Y-84082812D01*
X202299000Y-83908741D01*
X202299000Y-83731259D01*
X202333624Y-83557188D01*
X202401544Y-83393216D01*
X202500147Y-83245646D01*
X202625646Y-83120147D01*
X202773216Y-83021544D01*
X202937188Y-82953624D01*
X203086488Y-82923927D01*
X203111258Y-82919000D01*
X203288742Y-82919000D01*
X203313512Y-82923927D01*
G37*
G36*
X200773512Y-82923927D02*
G01*
X200922812Y-82953624D01*
X201086784Y-83021544D01*
X201234354Y-83120147D01*
X201359853Y-83245646D01*
X201458456Y-83393216D01*
X201526376Y-83557188D01*
X201561000Y-83731259D01*
X201561000Y-83908741D01*
X201526376Y-84082812D01*
X201458456Y-84246784D01*
X201359853Y-84394354D01*
X201234354Y-84519853D01*
X201086784Y-84618456D01*
X200922812Y-84686376D01*
X200773512Y-84716073D01*
X200748742Y-84721000D01*
X200571258Y-84721000D01*
X200546488Y-84716073D01*
X200397188Y-84686376D01*
X200233216Y-84618456D01*
X200085646Y-84519853D01*
X199960147Y-84394354D01*
X199861544Y-84246784D01*
X199793624Y-84082812D01*
X199759000Y-83908741D01*
X199759000Y-83731259D01*
X199793624Y-83557188D01*
X199861544Y-83393216D01*
X199960147Y-83245646D01*
X200085646Y-83120147D01*
X200233216Y-83021544D01*
X200397188Y-82953624D01*
X200546488Y-82923927D01*
X200571258Y-82919000D01*
X200748742Y-82919000D01*
X200773512Y-82923927D01*
G37*
G36*
X198233512Y-82923927D02*
G01*
X198382812Y-82953624D01*
X198546784Y-83021544D01*
X198694354Y-83120147D01*
X198819853Y-83245646D01*
X198918456Y-83393216D01*
X198986376Y-83557188D01*
X199021000Y-83731259D01*
X199021000Y-83908741D01*
X198986376Y-84082812D01*
X198918456Y-84246784D01*
X198819853Y-84394354D01*
X198694354Y-84519853D01*
X198546784Y-84618456D01*
X198382812Y-84686376D01*
X198233512Y-84716073D01*
X198208742Y-84721000D01*
X198031258Y-84721000D01*
X198006488Y-84716073D01*
X197857188Y-84686376D01*
X197693216Y-84618456D01*
X197545646Y-84519853D01*
X197420147Y-84394354D01*
X197321544Y-84246784D01*
X197253624Y-84082812D01*
X197219000Y-83908741D01*
X197219000Y-83731259D01*
X197253624Y-83557188D01*
X197321544Y-83393216D01*
X197420147Y-83245646D01*
X197545646Y-83120147D01*
X197693216Y-83021544D01*
X197857188Y-82953624D01*
X198006488Y-82923927D01*
X198031258Y-82919000D01*
X198208742Y-82919000D01*
X198233512Y-82923927D01*
G37*
G36*
X195693512Y-82923927D02*
G01*
X195842812Y-82953624D01*
X196006784Y-83021544D01*
X196154354Y-83120147D01*
X196279853Y-83245646D01*
X196378456Y-83393216D01*
X196446376Y-83557188D01*
X196481000Y-83731259D01*
X196481000Y-83908741D01*
X196446376Y-84082812D01*
X196378456Y-84246784D01*
X196279853Y-84394354D01*
X196154354Y-84519853D01*
X196006784Y-84618456D01*
X195842812Y-84686376D01*
X195693512Y-84716073D01*
X195668742Y-84721000D01*
X195491258Y-84721000D01*
X195466488Y-84716073D01*
X195317188Y-84686376D01*
X195153216Y-84618456D01*
X195005646Y-84519853D01*
X194880147Y-84394354D01*
X194781544Y-84246784D01*
X194713624Y-84082812D01*
X194679000Y-83908741D01*
X194679000Y-83731259D01*
X194713624Y-83557188D01*
X194781544Y-83393216D01*
X194880147Y-83245646D01*
X195005646Y-83120147D01*
X195153216Y-83021544D01*
X195317188Y-82953624D01*
X195466488Y-82923927D01*
X195491258Y-82919000D01*
X195668742Y-82919000D01*
X195693512Y-82923927D01*
G37*
G36*
X193153512Y-82923927D02*
G01*
X193302812Y-82953624D01*
X193466784Y-83021544D01*
X193614354Y-83120147D01*
X193739853Y-83245646D01*
X193838456Y-83393216D01*
X193906376Y-83557188D01*
X193941000Y-83731259D01*
X193941000Y-83908741D01*
X193906376Y-84082812D01*
X193838456Y-84246784D01*
X193739853Y-84394354D01*
X193614354Y-84519853D01*
X193466784Y-84618456D01*
X193302812Y-84686376D01*
X193153512Y-84716073D01*
X193128742Y-84721000D01*
X192951258Y-84721000D01*
X192926488Y-84716073D01*
X192777188Y-84686376D01*
X192613216Y-84618456D01*
X192465646Y-84519853D01*
X192340147Y-84394354D01*
X192241544Y-84246784D01*
X192173624Y-84082812D01*
X192139000Y-83908741D01*
X192139000Y-83731259D01*
X192173624Y-83557188D01*
X192241544Y-83393216D01*
X192340147Y-83245646D01*
X192465646Y-83120147D01*
X192613216Y-83021544D01*
X192777188Y-82953624D01*
X192926488Y-82923927D01*
X192951258Y-82919000D01*
X193128742Y-82919000D01*
X193153512Y-82923927D01*
G37*
G36*
X190613512Y-82923927D02*
G01*
X190762812Y-82953624D01*
X190926784Y-83021544D01*
X191074354Y-83120147D01*
X191199853Y-83245646D01*
X191298456Y-83393216D01*
X191366376Y-83557188D01*
X191401000Y-83731259D01*
X191401000Y-83908741D01*
X191366376Y-84082812D01*
X191298456Y-84246784D01*
X191199853Y-84394354D01*
X191074354Y-84519853D01*
X190926784Y-84618456D01*
X190762812Y-84686376D01*
X190613512Y-84716073D01*
X190588742Y-84721000D01*
X190411258Y-84721000D01*
X190386488Y-84716073D01*
X190237188Y-84686376D01*
X190073216Y-84618456D01*
X189925646Y-84519853D01*
X189800147Y-84394354D01*
X189701544Y-84246784D01*
X189633624Y-84082812D01*
X189599000Y-83908741D01*
X189599000Y-83731259D01*
X189633624Y-83557188D01*
X189701544Y-83393216D01*
X189800147Y-83245646D01*
X189925646Y-83120147D01*
X190073216Y-83021544D01*
X190237188Y-82953624D01*
X190386488Y-82923927D01*
X190411258Y-82919000D01*
X190588742Y-82919000D01*
X190613512Y-82923927D01*
G37*
G36*
X188073512Y-82923927D02*
G01*
X188222812Y-82953624D01*
X188386784Y-83021544D01*
X188534354Y-83120147D01*
X188659853Y-83245646D01*
X188758456Y-83393216D01*
X188826376Y-83557188D01*
X188861000Y-83731259D01*
X188861000Y-83908741D01*
X188826376Y-84082812D01*
X188758456Y-84246784D01*
X188659853Y-84394354D01*
X188534354Y-84519853D01*
X188386784Y-84618456D01*
X188222812Y-84686376D01*
X188073512Y-84716073D01*
X188048742Y-84721000D01*
X187871258Y-84721000D01*
X187846488Y-84716073D01*
X187697188Y-84686376D01*
X187533216Y-84618456D01*
X187385646Y-84519853D01*
X187260147Y-84394354D01*
X187161544Y-84246784D01*
X187093624Y-84082812D01*
X187059000Y-83908741D01*
X187059000Y-83731259D01*
X187093624Y-83557188D01*
X187161544Y-83393216D01*
X187260147Y-83245646D01*
X187385646Y-83120147D01*
X187533216Y-83021544D01*
X187697188Y-82953624D01*
X187846488Y-82923927D01*
X187871258Y-82919000D01*
X188048742Y-82919000D01*
X188073512Y-82923927D01*
G37*
G36*
X185533512Y-82923927D02*
G01*
X185682812Y-82953624D01*
X185846784Y-83021544D01*
X185994354Y-83120147D01*
X186119853Y-83245646D01*
X186218456Y-83393216D01*
X186286376Y-83557188D01*
X186321000Y-83731259D01*
X186321000Y-83908741D01*
X186286376Y-84082812D01*
X186218456Y-84246784D01*
X186119853Y-84394354D01*
X185994354Y-84519853D01*
X185846784Y-84618456D01*
X185682812Y-84686376D01*
X185533512Y-84716073D01*
X185508742Y-84721000D01*
X185331258Y-84721000D01*
X185306488Y-84716073D01*
X185157188Y-84686376D01*
X184993216Y-84618456D01*
X184845646Y-84519853D01*
X184720147Y-84394354D01*
X184621544Y-84246784D01*
X184553624Y-84082812D01*
X184519000Y-83908741D01*
X184519000Y-83731259D01*
X184553624Y-83557188D01*
X184621544Y-83393216D01*
X184720147Y-83245646D01*
X184845646Y-83120147D01*
X184993216Y-83021544D01*
X185157188Y-82953624D01*
X185306488Y-82923927D01*
X185331258Y-82919000D01*
X185508742Y-82919000D01*
X185533512Y-82923927D01*
G37*
G36*
X182993512Y-82923927D02*
G01*
X183142812Y-82953624D01*
X183306784Y-83021544D01*
X183454354Y-83120147D01*
X183579853Y-83245646D01*
X183678456Y-83393216D01*
X183746376Y-83557188D01*
X183781000Y-83731259D01*
X183781000Y-83908741D01*
X183746376Y-84082812D01*
X183678456Y-84246784D01*
X183579853Y-84394354D01*
X183454354Y-84519853D01*
X183306784Y-84618456D01*
X183142812Y-84686376D01*
X182993512Y-84716073D01*
X182968742Y-84721000D01*
X182791258Y-84721000D01*
X182766488Y-84716073D01*
X182617188Y-84686376D01*
X182453216Y-84618456D01*
X182305646Y-84519853D01*
X182180147Y-84394354D01*
X182081544Y-84246784D01*
X182013624Y-84082812D01*
X181979000Y-83908741D01*
X181979000Y-83731259D01*
X182013624Y-83557188D01*
X182081544Y-83393216D01*
X182180147Y-83245646D01*
X182305646Y-83120147D01*
X182453216Y-83021544D01*
X182617188Y-82953624D01*
X182766488Y-82923927D01*
X182791258Y-82919000D01*
X182968742Y-82919000D01*
X182993512Y-82923927D01*
G37*
G36*
X180453512Y-82923927D02*
G01*
X180602812Y-82953624D01*
X180766784Y-83021544D01*
X180914354Y-83120147D01*
X181039853Y-83245646D01*
X181138456Y-83393216D01*
X181206376Y-83557188D01*
X181241000Y-83731259D01*
X181241000Y-83908741D01*
X181206376Y-84082812D01*
X181138456Y-84246784D01*
X181039853Y-84394354D01*
X180914354Y-84519853D01*
X180766784Y-84618456D01*
X180602812Y-84686376D01*
X180453512Y-84716073D01*
X180428742Y-84721000D01*
X180251258Y-84721000D01*
X180226488Y-84716073D01*
X180077188Y-84686376D01*
X179913216Y-84618456D01*
X179765646Y-84519853D01*
X179640147Y-84394354D01*
X179541544Y-84246784D01*
X179473624Y-84082812D01*
X179439000Y-83908741D01*
X179439000Y-83731259D01*
X179473624Y-83557188D01*
X179541544Y-83393216D01*
X179640147Y-83245646D01*
X179765646Y-83120147D01*
X179913216Y-83021544D01*
X180077188Y-82953624D01*
X180226488Y-82923927D01*
X180251258Y-82919000D01*
X180428742Y-82919000D01*
X180453512Y-82923927D01*
G37*
G36*
X177913512Y-82923927D02*
G01*
X178062812Y-82953624D01*
X178226784Y-83021544D01*
X178374354Y-83120147D01*
X178499853Y-83245646D01*
X178598456Y-83393216D01*
X178666376Y-83557188D01*
X178701000Y-83731259D01*
X178701000Y-83908741D01*
X178666376Y-84082812D01*
X178598456Y-84246784D01*
X178499853Y-84394354D01*
X178374354Y-84519853D01*
X178226784Y-84618456D01*
X178062812Y-84686376D01*
X177913512Y-84716073D01*
X177888742Y-84721000D01*
X177711258Y-84721000D01*
X177686488Y-84716073D01*
X177537188Y-84686376D01*
X177373216Y-84618456D01*
X177225646Y-84519853D01*
X177100147Y-84394354D01*
X177001544Y-84246784D01*
X176933624Y-84082812D01*
X176899000Y-83908741D01*
X176899000Y-83731259D01*
X176933624Y-83557188D01*
X177001544Y-83393216D01*
X177100147Y-83245646D01*
X177225646Y-83120147D01*
X177373216Y-83021544D01*
X177537188Y-82953624D01*
X177686488Y-82923927D01*
X177711258Y-82919000D01*
X177888742Y-82919000D01*
X177913512Y-82923927D01*
G37*
G36*
X175373512Y-82923927D02*
G01*
X175522812Y-82953624D01*
X175686784Y-83021544D01*
X175834354Y-83120147D01*
X175959853Y-83245646D01*
X176058456Y-83393216D01*
X176126376Y-83557188D01*
X176161000Y-83731259D01*
X176161000Y-83908741D01*
X176126376Y-84082812D01*
X176058456Y-84246784D01*
X175959853Y-84394354D01*
X175834354Y-84519853D01*
X175686784Y-84618456D01*
X175522812Y-84686376D01*
X175373512Y-84716073D01*
X175348742Y-84721000D01*
X175171258Y-84721000D01*
X175146488Y-84716073D01*
X174997188Y-84686376D01*
X174833216Y-84618456D01*
X174685646Y-84519853D01*
X174560147Y-84394354D01*
X174461544Y-84246784D01*
X174393624Y-84082812D01*
X174359000Y-83908741D01*
X174359000Y-83731259D01*
X174393624Y-83557188D01*
X174461544Y-83393216D01*
X174560147Y-83245646D01*
X174685646Y-83120147D01*
X174833216Y-83021544D01*
X174997188Y-82953624D01*
X175146488Y-82923927D01*
X175171258Y-82919000D01*
X175348742Y-82919000D01*
X175373512Y-82923927D01*
G37*
G36*
X172833512Y-82923927D02*
G01*
X172982812Y-82953624D01*
X173146784Y-83021544D01*
X173294354Y-83120147D01*
X173419853Y-83245646D01*
X173518456Y-83393216D01*
X173586376Y-83557188D01*
X173621000Y-83731259D01*
X173621000Y-83908741D01*
X173586376Y-84082812D01*
X173518456Y-84246784D01*
X173419853Y-84394354D01*
X173294354Y-84519853D01*
X173146784Y-84618456D01*
X172982812Y-84686376D01*
X172833512Y-84716073D01*
X172808742Y-84721000D01*
X172631258Y-84721000D01*
X172606488Y-84716073D01*
X172457188Y-84686376D01*
X172293216Y-84618456D01*
X172145646Y-84519853D01*
X172020147Y-84394354D01*
X171921544Y-84246784D01*
X171853624Y-84082812D01*
X171819000Y-83908741D01*
X171819000Y-83731259D01*
X171853624Y-83557188D01*
X171921544Y-83393216D01*
X172020147Y-83245646D01*
X172145646Y-83120147D01*
X172293216Y-83021544D01*
X172457188Y-82953624D01*
X172606488Y-82923927D01*
X172631258Y-82919000D01*
X172808742Y-82919000D01*
X172833512Y-82923927D01*
G37*
G36*
X170293512Y-82923927D02*
G01*
X170442812Y-82953624D01*
X170606784Y-83021544D01*
X170754354Y-83120147D01*
X170879853Y-83245646D01*
X170978456Y-83393216D01*
X171046376Y-83557188D01*
X171081000Y-83731259D01*
X171081000Y-83908741D01*
X171046376Y-84082812D01*
X170978456Y-84246784D01*
X170879853Y-84394354D01*
X170754354Y-84519853D01*
X170606784Y-84618456D01*
X170442812Y-84686376D01*
X170293512Y-84716073D01*
X170268742Y-84721000D01*
X170091258Y-84721000D01*
X170066488Y-84716073D01*
X169917188Y-84686376D01*
X169753216Y-84618456D01*
X169605646Y-84519853D01*
X169480147Y-84394354D01*
X169381544Y-84246784D01*
X169313624Y-84082812D01*
X169279000Y-83908741D01*
X169279000Y-83731259D01*
X169313624Y-83557188D01*
X169381544Y-83393216D01*
X169480147Y-83245646D01*
X169605646Y-83120147D01*
X169753216Y-83021544D01*
X169917188Y-82953624D01*
X170066488Y-82923927D01*
X170091258Y-82919000D01*
X170268742Y-82919000D01*
X170293512Y-82923927D01*
G37*
G36*
X167753512Y-82923927D02*
G01*
X167902812Y-82953624D01*
X168066784Y-83021544D01*
X168214354Y-83120147D01*
X168339853Y-83245646D01*
X168438456Y-83393216D01*
X168506376Y-83557188D01*
X168541000Y-83731259D01*
X168541000Y-83908741D01*
X168506376Y-84082812D01*
X168438456Y-84246784D01*
X168339853Y-84394354D01*
X168214354Y-84519853D01*
X168066784Y-84618456D01*
X167902812Y-84686376D01*
X167753512Y-84716073D01*
X167728742Y-84721000D01*
X167551258Y-84721000D01*
X167526488Y-84716073D01*
X167377188Y-84686376D01*
X167213216Y-84618456D01*
X167065646Y-84519853D01*
X166940147Y-84394354D01*
X166841544Y-84246784D01*
X166773624Y-84082812D01*
X166739000Y-83908741D01*
X166739000Y-83731259D01*
X166773624Y-83557188D01*
X166841544Y-83393216D01*
X166940147Y-83245646D01*
X167065646Y-83120147D01*
X167213216Y-83021544D01*
X167377188Y-82953624D01*
X167526488Y-82923927D01*
X167551258Y-82919000D01*
X167728742Y-82919000D01*
X167753512Y-82923927D01*
G37*
G36*
X165213512Y-82923927D02*
G01*
X165362812Y-82953624D01*
X165526784Y-83021544D01*
X165674354Y-83120147D01*
X165799853Y-83245646D01*
X165898456Y-83393216D01*
X165966376Y-83557188D01*
X166001000Y-83731259D01*
X166001000Y-83908741D01*
X165966376Y-84082812D01*
X165898456Y-84246784D01*
X165799853Y-84394354D01*
X165674354Y-84519853D01*
X165526784Y-84618456D01*
X165362812Y-84686376D01*
X165213512Y-84716073D01*
X165188742Y-84721000D01*
X165011258Y-84721000D01*
X164986488Y-84716073D01*
X164837188Y-84686376D01*
X164673216Y-84618456D01*
X164525646Y-84519853D01*
X164400147Y-84394354D01*
X164301544Y-84246784D01*
X164233624Y-84082812D01*
X164199000Y-83908741D01*
X164199000Y-83731259D01*
X164233624Y-83557188D01*
X164301544Y-83393216D01*
X164400147Y-83245646D01*
X164525646Y-83120147D01*
X164673216Y-83021544D01*
X164837188Y-82953624D01*
X164986488Y-82923927D01*
X165011258Y-82919000D01*
X165188742Y-82919000D01*
X165213512Y-82923927D01*
G37*
G36*
X162673512Y-82923927D02*
G01*
X162822812Y-82953624D01*
X162986784Y-83021544D01*
X163134354Y-83120147D01*
X163259853Y-83245646D01*
X163358456Y-83393216D01*
X163426376Y-83557188D01*
X163461000Y-83731259D01*
X163461000Y-83908741D01*
X163426376Y-84082812D01*
X163358456Y-84246784D01*
X163259853Y-84394354D01*
X163134354Y-84519853D01*
X162986784Y-84618456D01*
X162822812Y-84686376D01*
X162673512Y-84716073D01*
X162648742Y-84721000D01*
X162471258Y-84721000D01*
X162446488Y-84716073D01*
X162297188Y-84686376D01*
X162133216Y-84618456D01*
X161985646Y-84519853D01*
X161860147Y-84394354D01*
X161761544Y-84246784D01*
X161693624Y-84082812D01*
X161659000Y-83908741D01*
X161659000Y-83731259D01*
X161693624Y-83557188D01*
X161761544Y-83393216D01*
X161860147Y-83245646D01*
X161985646Y-83120147D01*
X162133216Y-83021544D01*
X162297188Y-82953624D01*
X162446488Y-82923927D01*
X162471258Y-82919000D01*
X162648742Y-82919000D01*
X162673512Y-82923927D01*
G37*
G36*
X160133512Y-82923927D02*
G01*
X160282812Y-82953624D01*
X160446784Y-83021544D01*
X160594354Y-83120147D01*
X160719853Y-83245646D01*
X160818456Y-83393216D01*
X160886376Y-83557188D01*
X160921000Y-83731259D01*
X160921000Y-83908741D01*
X160886376Y-84082812D01*
X160818456Y-84246784D01*
X160719853Y-84394354D01*
X160594354Y-84519853D01*
X160446784Y-84618456D01*
X160282812Y-84686376D01*
X160133512Y-84716073D01*
X160108742Y-84721000D01*
X159931258Y-84721000D01*
X159906488Y-84716073D01*
X159757188Y-84686376D01*
X159593216Y-84618456D01*
X159445646Y-84519853D01*
X159320147Y-84394354D01*
X159221544Y-84246784D01*
X159153624Y-84082812D01*
X159119000Y-83908741D01*
X159119000Y-83731259D01*
X159153624Y-83557188D01*
X159221544Y-83393216D01*
X159320147Y-83245646D01*
X159445646Y-83120147D01*
X159593216Y-83021544D01*
X159757188Y-82953624D01*
X159906488Y-82923927D01*
X159931258Y-82919000D01*
X160108742Y-82919000D01*
X160133512Y-82923927D01*
G37*
G36*
X158381000Y-84721000D02*
G01*
X156579000Y-84721000D01*
X156579000Y-82919000D01*
X158381000Y-82919000D01*
X158381000Y-84721000D01*
G37*
G36*
X193202084Y-80392601D02*
G01*
X193262217Y-80404562D01*
X193289907Y-80416032D01*
X193375506Y-80451488D01*
X193477458Y-80519610D01*
X193564170Y-80606322D01*
X193632292Y-80708274D01*
X193654629Y-80762200D01*
X193679218Y-80821563D01*
X193689950Y-80875516D01*
X193703140Y-80941828D01*
X193703140Y-81064452D01*
X193679218Y-81184716D01*
X193632292Y-81298006D01*
X193564170Y-81399958D01*
X193477458Y-81486670D01*
X193375506Y-81554792D01*
X193299979Y-81586076D01*
X193262217Y-81601718D01*
X193202084Y-81613679D01*
X193141952Y-81625640D01*
X193019328Y-81625640D01*
X192959196Y-81613679D01*
X192899063Y-81601718D01*
X192861301Y-81586076D01*
X192785774Y-81554792D01*
X192683822Y-81486670D01*
X192597110Y-81399958D01*
X192528988Y-81298006D01*
X192482062Y-81184716D01*
X192458140Y-81064452D01*
X192458140Y-80941828D01*
X192471330Y-80875516D01*
X192482062Y-80821563D01*
X192506651Y-80762200D01*
X192528988Y-80708274D01*
X192597110Y-80606322D01*
X192683822Y-80519610D01*
X192785774Y-80451488D01*
X192871373Y-80416032D01*
X192899063Y-80404562D01*
X192959196Y-80392601D01*
X193019328Y-80380640D01*
X193141952Y-80380640D01*
X193202084Y-80392601D01*
G37*
G36*
X200112635Y-80243636D02*
G01*
X200206577Y-80262322D01*
X200239813Y-80276089D01*
X200319866Y-80309248D01*
X200421818Y-80377370D01*
X200508530Y-80464082D01*
X200576652Y-80566034D01*
X200623578Y-80679324D01*
X200647500Y-80799588D01*
X200647500Y-80922212D01*
X200623578Y-81042476D01*
X200576652Y-81155766D01*
X200508530Y-81257718D01*
X200421818Y-81344430D01*
X200319866Y-81412552D01*
X200244339Y-81443836D01*
X200206577Y-81459478D01*
X200146444Y-81471439D01*
X200086312Y-81483400D01*
X199963688Y-81483400D01*
X199903556Y-81471439D01*
X199843423Y-81459478D01*
X199805661Y-81443836D01*
X199730134Y-81412552D01*
X199628182Y-81344430D01*
X199541470Y-81257718D01*
X199473348Y-81155766D01*
X199426422Y-81042476D01*
X199402500Y-80922212D01*
X199402500Y-80799588D01*
X199426422Y-80679324D01*
X199473348Y-80566034D01*
X199541470Y-80464082D01*
X199628182Y-80377370D01*
X199730134Y-80309248D01*
X199810187Y-80276089D01*
X199843423Y-80262322D01*
X199937365Y-80243636D01*
X199963688Y-80238400D01*
X200086312Y-80238400D01*
X200112635Y-80243636D01*
G37*
G36*
X187688618Y-80139556D02*
G01*
X187709237Y-80145811D01*
X187728233Y-80155964D01*
X187744888Y-80169632D01*
X187758556Y-80186287D01*
X187768709Y-80205283D01*
X187774964Y-80225902D01*
X187777680Y-80253480D01*
X187777680Y-80762200D01*
X187774964Y-80789778D01*
X187768709Y-80810397D01*
X187758556Y-80829393D01*
X187744888Y-80846048D01*
X187728233Y-80859716D01*
X187709237Y-80869869D01*
X187688618Y-80876124D01*
X187661040Y-80878840D01*
X187202320Y-80878840D01*
X187174742Y-80876124D01*
X187154123Y-80869869D01*
X187135127Y-80859716D01*
X187118472Y-80846048D01*
X187104804Y-80829393D01*
X187094651Y-80810397D01*
X187088396Y-80789778D01*
X187085680Y-80762200D01*
X187085680Y-80253480D01*
X187088396Y-80225902D01*
X187094651Y-80205283D01*
X187104804Y-80186287D01*
X187118472Y-80169632D01*
X187135127Y-80155964D01*
X187154123Y-80145811D01*
X187174742Y-80139556D01*
X187202320Y-80136840D01*
X187661040Y-80136840D01*
X187688618Y-80139556D01*
G37*
G36*
X188658618Y-80139556D02*
G01*
X188679237Y-80145811D01*
X188698233Y-80155964D01*
X188714888Y-80169632D01*
X188728556Y-80186287D01*
X188738709Y-80205283D01*
X188744964Y-80225902D01*
X188747680Y-80253480D01*
X188747680Y-80762200D01*
X188744964Y-80789778D01*
X188738709Y-80810397D01*
X188728556Y-80829393D01*
X188714888Y-80846048D01*
X188698233Y-80859716D01*
X188679237Y-80869869D01*
X188658618Y-80876124D01*
X188631040Y-80878840D01*
X188172320Y-80878840D01*
X188144742Y-80876124D01*
X188124123Y-80869869D01*
X188105127Y-80859716D01*
X188088472Y-80846048D01*
X188074804Y-80829393D01*
X188064651Y-80810397D01*
X188058396Y-80789778D01*
X188055680Y-80762200D01*
X188055680Y-80253480D01*
X188058396Y-80225902D01*
X188064651Y-80205283D01*
X188074804Y-80186287D01*
X188088472Y-80169632D01*
X188105127Y-80155964D01*
X188124123Y-80145811D01*
X188144742Y-80139556D01*
X188172320Y-80136840D01*
X188631040Y-80136840D01*
X188658618Y-80139556D01*
G37*
G36*
X159853488Y-79131485D02*
G01*
X159892158Y-79143216D01*
X159927797Y-79162266D01*
X159959037Y-79187903D01*
X159984674Y-79219143D01*
X160003724Y-79254782D01*
X160015455Y-79293452D01*
X160020020Y-79339808D01*
X160020020Y-80416032D01*
X160015455Y-80462388D01*
X160003724Y-80501058D01*
X159984674Y-80536697D01*
X159959037Y-80567937D01*
X159927797Y-80593574D01*
X159892158Y-80612624D01*
X159853488Y-80624355D01*
X159807132Y-80628920D01*
X159155908Y-80628920D01*
X159109552Y-80624355D01*
X159070882Y-80612624D01*
X159035243Y-80593574D01*
X159004003Y-80567937D01*
X158978366Y-80536697D01*
X158959316Y-80501058D01*
X158947585Y-80462388D01*
X158943020Y-80416032D01*
X158943020Y-79339808D01*
X158947585Y-79293452D01*
X158959316Y-79254782D01*
X158978366Y-79219143D01*
X159004003Y-79187903D01*
X159035243Y-79162266D01*
X159070882Y-79143216D01*
X159109552Y-79131485D01*
X159155908Y-79126920D01*
X159807132Y-79126920D01*
X159853488Y-79131485D01*
G37*
G36*
X161728488Y-79131485D02*
G01*
X161767158Y-79143216D01*
X161802797Y-79162266D01*
X161834037Y-79187903D01*
X161859674Y-79219143D01*
X161878724Y-79254782D01*
X161890455Y-79293452D01*
X161895020Y-79339808D01*
X161895020Y-80416032D01*
X161890455Y-80462388D01*
X161878724Y-80501058D01*
X161859674Y-80536697D01*
X161834037Y-80567937D01*
X161802797Y-80593574D01*
X161767158Y-80612624D01*
X161728488Y-80624355D01*
X161682132Y-80628920D01*
X161030908Y-80628920D01*
X160984552Y-80624355D01*
X160945882Y-80612624D01*
X160910243Y-80593574D01*
X160879003Y-80567937D01*
X160853366Y-80536697D01*
X160834316Y-80501058D01*
X160822585Y-80462388D01*
X160818020Y-80416032D01*
X160818020Y-79339808D01*
X160822585Y-79293452D01*
X160834316Y-79254782D01*
X160853366Y-79219143D01*
X160879003Y-79187903D01*
X160910243Y-79162266D01*
X160945882Y-79143216D01*
X160984552Y-79131485D01*
X161030908Y-79126920D01*
X161682132Y-79126920D01*
X161728488Y-79131485D01*
G37*
G36*
X165191978Y-79606156D02*
G01*
X165212597Y-79612411D01*
X165231593Y-79622564D01*
X165248248Y-79636232D01*
X165261916Y-79652887D01*
X165272069Y-79671883D01*
X165278324Y-79692502D01*
X165281040Y-79720080D01*
X165281040Y-80228800D01*
X165278324Y-80256378D01*
X165272069Y-80276997D01*
X165261916Y-80295993D01*
X165248248Y-80312648D01*
X165231593Y-80326316D01*
X165212597Y-80336469D01*
X165191978Y-80342724D01*
X165164400Y-80345440D01*
X164705680Y-80345440D01*
X164678102Y-80342724D01*
X164657483Y-80336469D01*
X164638487Y-80326316D01*
X164621832Y-80312648D01*
X164608164Y-80295993D01*
X164598011Y-80276997D01*
X164591756Y-80256378D01*
X164589040Y-80228800D01*
X164589040Y-79720080D01*
X164591756Y-79692502D01*
X164598011Y-79671883D01*
X164608164Y-79652887D01*
X164621832Y-79636232D01*
X164638487Y-79622564D01*
X164657483Y-79612411D01*
X164678102Y-79606156D01*
X164705680Y-79603440D01*
X165164400Y-79603440D01*
X165191978Y-79606156D01*
G37*
G36*
X166161978Y-79606156D02*
G01*
X166182597Y-79612411D01*
X166201593Y-79622564D01*
X166218248Y-79636232D01*
X166231916Y-79652887D01*
X166242069Y-79671883D01*
X166248324Y-79692502D01*
X166251040Y-79720080D01*
X166251040Y-80228800D01*
X166248324Y-80256378D01*
X166242069Y-80276997D01*
X166231916Y-80295993D01*
X166218248Y-80312648D01*
X166201593Y-80326316D01*
X166182597Y-80336469D01*
X166161978Y-80342724D01*
X166134400Y-80345440D01*
X165675680Y-80345440D01*
X165648102Y-80342724D01*
X165627483Y-80336469D01*
X165608487Y-80326316D01*
X165591832Y-80312648D01*
X165578164Y-80295993D01*
X165568011Y-80276997D01*
X165561756Y-80256378D01*
X165559040Y-80228800D01*
X165559040Y-79720080D01*
X165561756Y-79692502D01*
X165568011Y-79671883D01*
X165578164Y-79652887D01*
X165591832Y-79636232D01*
X165608487Y-79622564D01*
X165627483Y-79612411D01*
X165648102Y-79606156D01*
X165675680Y-79603440D01*
X166134400Y-79603440D01*
X166161978Y-79606156D01*
G37*
G36*
X182938795Y-78051323D02*
G01*
X182945809Y-78053451D01*
X182959577Y-78060810D01*
X182982216Y-78070187D01*
X183006249Y-78074967D01*
X183030753Y-78074967D01*
X183054786Y-78070186D01*
X183077423Y-78060810D01*
X183091191Y-78053451D01*
X183098205Y-78051323D01*
X183111640Y-78050000D01*
X183425360Y-78050000D01*
X183438795Y-78051323D01*
X183445809Y-78053451D01*
X183459577Y-78060810D01*
X183482216Y-78070187D01*
X183506249Y-78074967D01*
X183530753Y-78074967D01*
X183554786Y-78070186D01*
X183577423Y-78060810D01*
X183591191Y-78053451D01*
X183598205Y-78051323D01*
X183611640Y-78050000D01*
X183925360Y-78050000D01*
X183938795Y-78051323D01*
X183945809Y-78053451D01*
X183959577Y-78060810D01*
X183982216Y-78070187D01*
X184006249Y-78074967D01*
X184030753Y-78074967D01*
X184054786Y-78070186D01*
X184077423Y-78060810D01*
X184091191Y-78053451D01*
X184098205Y-78051323D01*
X184111640Y-78050000D01*
X184425360Y-78050000D01*
X184438795Y-78051323D01*
X184445809Y-78053451D01*
X184459577Y-78060810D01*
X184482216Y-78070187D01*
X184506249Y-78074967D01*
X184530753Y-78074967D01*
X184554786Y-78070186D01*
X184577423Y-78060810D01*
X184591191Y-78053451D01*
X184598205Y-78051323D01*
X184611640Y-78050000D01*
X184925360Y-78050000D01*
X184938795Y-78051323D01*
X184945809Y-78053451D01*
X184959577Y-78060810D01*
X184982216Y-78070187D01*
X185006249Y-78074967D01*
X185030753Y-78074967D01*
X185054786Y-78070186D01*
X185077423Y-78060810D01*
X185091191Y-78053451D01*
X185098205Y-78051323D01*
X185111640Y-78050000D01*
X185425360Y-78050000D01*
X185438795Y-78051323D01*
X185445809Y-78053451D01*
X185459577Y-78060810D01*
X185482216Y-78070187D01*
X185506249Y-78074967D01*
X185530753Y-78074967D01*
X185554786Y-78070186D01*
X185577423Y-78060810D01*
X185591191Y-78053451D01*
X185598205Y-78051323D01*
X185611640Y-78050000D01*
X185925360Y-78050000D01*
X185938795Y-78051323D01*
X185945809Y-78053451D01*
X185959577Y-78060810D01*
X185982216Y-78070187D01*
X186006249Y-78074967D01*
X186030753Y-78074967D01*
X186054786Y-78070186D01*
X186077423Y-78060810D01*
X186091191Y-78053451D01*
X186098205Y-78051323D01*
X186111640Y-78050000D01*
X186425360Y-78050000D01*
X186438795Y-78051323D01*
X186445809Y-78053451D01*
X186459577Y-78060810D01*
X186482216Y-78070187D01*
X186506249Y-78074967D01*
X186530753Y-78074967D01*
X186554786Y-78070186D01*
X186577423Y-78060810D01*
X186591191Y-78053451D01*
X186598205Y-78051323D01*
X186611640Y-78050000D01*
X186925360Y-78050000D01*
X186938795Y-78051323D01*
X186945809Y-78053451D01*
X186959577Y-78060810D01*
X186982216Y-78070187D01*
X187006249Y-78074967D01*
X187030753Y-78074967D01*
X187054786Y-78070186D01*
X187077423Y-78060810D01*
X187091191Y-78053451D01*
X187098205Y-78051323D01*
X187111640Y-78050000D01*
X187425360Y-78050000D01*
X187438795Y-78051323D01*
X187445809Y-78053451D01*
X187459577Y-78060810D01*
X187482216Y-78070187D01*
X187506249Y-78074967D01*
X187530753Y-78074967D01*
X187554786Y-78070186D01*
X187577423Y-78060810D01*
X187591191Y-78053451D01*
X187598205Y-78051323D01*
X187611640Y-78050000D01*
X187925360Y-78050000D01*
X187938795Y-78051323D01*
X187945809Y-78053451D01*
X187959577Y-78060810D01*
X187982216Y-78070187D01*
X188006249Y-78074967D01*
X188030753Y-78074967D01*
X188054786Y-78070186D01*
X188077423Y-78060810D01*
X188091191Y-78053451D01*
X188098205Y-78051323D01*
X188111640Y-78050000D01*
X188425360Y-78050000D01*
X188438795Y-78051323D01*
X188445810Y-78053451D01*
X188452276Y-78056908D01*
X188457942Y-78061558D01*
X188462592Y-78067224D01*
X188466049Y-78073690D01*
X188468177Y-78080705D01*
X188469500Y-78094140D01*
X188469500Y-79582860D01*
X188468177Y-79596295D01*
X188466049Y-79603310D01*
X188462592Y-79609776D01*
X188457942Y-79615442D01*
X188452276Y-79620092D01*
X188445810Y-79623549D01*
X188438795Y-79625677D01*
X188425360Y-79627000D01*
X188111640Y-79627000D01*
X188098205Y-79625677D01*
X188091191Y-79623549D01*
X188077423Y-79616190D01*
X188054784Y-79606813D01*
X188030751Y-79602033D01*
X188006247Y-79602033D01*
X187982214Y-79606814D01*
X187959577Y-79616190D01*
X187945809Y-79623549D01*
X187938795Y-79625677D01*
X187925360Y-79627000D01*
X187611640Y-79627000D01*
X187598205Y-79625677D01*
X187591191Y-79623549D01*
X187577423Y-79616190D01*
X187554784Y-79606813D01*
X187530751Y-79602033D01*
X187506247Y-79602033D01*
X187482214Y-79606814D01*
X187459577Y-79616190D01*
X187445809Y-79623549D01*
X187438795Y-79625677D01*
X187425360Y-79627000D01*
X187111640Y-79627000D01*
X187098205Y-79625677D01*
X187091191Y-79623549D01*
X187077423Y-79616190D01*
X187054784Y-79606813D01*
X187030751Y-79602033D01*
X187006247Y-79602033D01*
X186982214Y-79606814D01*
X186959577Y-79616190D01*
X186945809Y-79623549D01*
X186938795Y-79625677D01*
X186925360Y-79627000D01*
X186611640Y-79627000D01*
X186598205Y-79625677D01*
X186591191Y-79623549D01*
X186577423Y-79616190D01*
X186554784Y-79606813D01*
X186530751Y-79602033D01*
X186506247Y-79602033D01*
X186482214Y-79606814D01*
X186459577Y-79616190D01*
X186445809Y-79623549D01*
X186438795Y-79625677D01*
X186425360Y-79627000D01*
X186111640Y-79627000D01*
X186098205Y-79625677D01*
X186091191Y-79623549D01*
X186077423Y-79616190D01*
X186054784Y-79606813D01*
X186030751Y-79602033D01*
X186006247Y-79602033D01*
X185982214Y-79606814D01*
X185959577Y-79616190D01*
X185945809Y-79623549D01*
X185938795Y-79625677D01*
X185925360Y-79627000D01*
X185611640Y-79627000D01*
X185598205Y-79625677D01*
X185591191Y-79623549D01*
X185577423Y-79616190D01*
X185554784Y-79606813D01*
X185530751Y-79602033D01*
X185506247Y-79602033D01*
X185482214Y-79606814D01*
X185459577Y-79616190D01*
X185445809Y-79623549D01*
X185438795Y-79625677D01*
X185425360Y-79627000D01*
X185111640Y-79627000D01*
X185098205Y-79625677D01*
X185091191Y-79623549D01*
X185077423Y-79616190D01*
X185054784Y-79606813D01*
X185030751Y-79602033D01*
X185006247Y-79602033D01*
X184982214Y-79606814D01*
X184959577Y-79616190D01*
X184945809Y-79623549D01*
X184938795Y-79625677D01*
X184925360Y-79627000D01*
X184611640Y-79627000D01*
X184598205Y-79625677D01*
X184591191Y-79623549D01*
X184577423Y-79616190D01*
X184554784Y-79606813D01*
X184530751Y-79602033D01*
X184506247Y-79602033D01*
X184482214Y-79606814D01*
X184459577Y-79616190D01*
X184445809Y-79623549D01*
X184438795Y-79625677D01*
X184425360Y-79627000D01*
X184111640Y-79627000D01*
X184098205Y-79625677D01*
X184091191Y-79623549D01*
X184077423Y-79616190D01*
X184054784Y-79606813D01*
X184030751Y-79602033D01*
X184006247Y-79602033D01*
X183982214Y-79606814D01*
X183959577Y-79616190D01*
X183945809Y-79623549D01*
X183938795Y-79625677D01*
X183925360Y-79627000D01*
X183611640Y-79627000D01*
X183598205Y-79625677D01*
X183591191Y-79623549D01*
X183577423Y-79616190D01*
X183554784Y-79606813D01*
X183530751Y-79602033D01*
X183506247Y-79602033D01*
X183482214Y-79606814D01*
X183459577Y-79616190D01*
X183445809Y-79623549D01*
X183438795Y-79625677D01*
X183425360Y-79627000D01*
X183111640Y-79627000D01*
X183098205Y-79625677D01*
X183091191Y-79623549D01*
X183077423Y-79616190D01*
X183054784Y-79606813D01*
X183030751Y-79602033D01*
X183006247Y-79602033D01*
X182982214Y-79606814D01*
X182959577Y-79616190D01*
X182945809Y-79623549D01*
X182938795Y-79625677D01*
X182925360Y-79627000D01*
X182611640Y-79627000D01*
X182598205Y-79625677D01*
X182591190Y-79623549D01*
X182584724Y-79620092D01*
X182579058Y-79615442D01*
X182574408Y-79609776D01*
X182570951Y-79603310D01*
X182568823Y-79596295D01*
X182567500Y-79582860D01*
X182567500Y-78094140D01*
X182568823Y-78080705D01*
X182570951Y-78073690D01*
X182574408Y-78067224D01*
X182579058Y-78061558D01*
X182584724Y-78056908D01*
X182591190Y-78053451D01*
X182598205Y-78051323D01*
X182611640Y-78050000D01*
X182925360Y-78050000D01*
X182938795Y-78051323D01*
G37*
G36*
X158323278Y-78704056D02*
G01*
X158343897Y-78710311D01*
X158362893Y-78720464D01*
X158379548Y-78734132D01*
X158393216Y-78750787D01*
X158403369Y-78769783D01*
X158409624Y-78790402D01*
X158412340Y-78817980D01*
X158412340Y-79276700D01*
X158409624Y-79304278D01*
X158403369Y-79324897D01*
X158393216Y-79343893D01*
X158379548Y-79360548D01*
X158362893Y-79374216D01*
X158343897Y-79384369D01*
X158323278Y-79390624D01*
X158295700Y-79393340D01*
X157786980Y-79393340D01*
X157759402Y-79390624D01*
X157738783Y-79384369D01*
X157719787Y-79374216D01*
X157703132Y-79360548D01*
X157689464Y-79343893D01*
X157679311Y-79324897D01*
X157673056Y-79304278D01*
X157670340Y-79276700D01*
X157670340Y-78817980D01*
X157673056Y-78790402D01*
X157679311Y-78769783D01*
X157689464Y-78750787D01*
X157703132Y-78734132D01*
X157719787Y-78720464D01*
X157738783Y-78710311D01*
X157759402Y-78704056D01*
X157786980Y-78701340D01*
X158295700Y-78701340D01*
X158323278Y-78704056D01*
G37*
G36*
X200589148Y-78125025D02*
G01*
X200627818Y-78136756D01*
X200663457Y-78155806D01*
X200694697Y-78181443D01*
X200720334Y-78212683D01*
X200739384Y-78248322D01*
X200751115Y-78286992D01*
X200755680Y-78333348D01*
X200755680Y-78984572D01*
X200751115Y-79030928D01*
X200739384Y-79069598D01*
X200720334Y-79105237D01*
X200694697Y-79136477D01*
X200663457Y-79162114D01*
X200627818Y-79181164D01*
X200589148Y-79192895D01*
X200542792Y-79197460D01*
X199466568Y-79197460D01*
X199420212Y-79192895D01*
X199381542Y-79181164D01*
X199345903Y-79162114D01*
X199314663Y-79136477D01*
X199289026Y-79105237D01*
X199269976Y-79069598D01*
X199258245Y-79030928D01*
X199253680Y-78984572D01*
X199253680Y-78333348D01*
X199258245Y-78286992D01*
X199269976Y-78248322D01*
X199289026Y-78212683D01*
X199314663Y-78181443D01*
X199345903Y-78155806D01*
X199381542Y-78136756D01*
X199420212Y-78125025D01*
X199466568Y-78120460D01*
X200542792Y-78120460D01*
X200589148Y-78125025D01*
G37*
G36*
X193660028Y-78066365D02*
G01*
X193698698Y-78078096D01*
X193734337Y-78097146D01*
X193765577Y-78122783D01*
X193791214Y-78154023D01*
X193810264Y-78189662D01*
X193821995Y-78228332D01*
X193826560Y-78274688D01*
X193826560Y-78925912D01*
X193821995Y-78972268D01*
X193810264Y-79010938D01*
X193791214Y-79046577D01*
X193765577Y-79077817D01*
X193734337Y-79103454D01*
X193698698Y-79122504D01*
X193660028Y-79134235D01*
X193613672Y-79138800D01*
X192537448Y-79138800D01*
X192491092Y-79134235D01*
X192452422Y-79122504D01*
X192416783Y-79103454D01*
X192385543Y-79077817D01*
X192359906Y-79046577D01*
X192340856Y-79010938D01*
X192329125Y-78972268D01*
X192324560Y-78925912D01*
X192324560Y-78274688D01*
X192329125Y-78228332D01*
X192340856Y-78189662D01*
X192359906Y-78154023D01*
X192385543Y-78122783D01*
X192416783Y-78097146D01*
X192452422Y-78078096D01*
X192491092Y-78066365D01*
X192537448Y-78061800D01*
X193613672Y-78061800D01*
X193660028Y-78066365D01*
G37*
G36*
X198325440Y-79029640D02*
G01*
X197163440Y-79029640D01*
X197163440Y-76377640D01*
X198325440Y-76377640D01*
X198325440Y-79029640D01*
G37*
G36*
X196125440Y-79029640D02*
G01*
X194963440Y-79029640D01*
X194963440Y-78277640D01*
X196125440Y-78277640D01*
X196125440Y-79029640D01*
G37*
G36*
X148322512Y-77221627D02*
G01*
X148471812Y-77251324D01*
X148635784Y-77319244D01*
X148783354Y-77417847D01*
X148908853Y-77543346D01*
X149007456Y-77690916D01*
X149075376Y-77854888D01*
X149105073Y-78004188D01*
X149110000Y-78028958D01*
X149110000Y-78206442D01*
X149107850Y-78217250D01*
X149075376Y-78380512D01*
X149007456Y-78544484D01*
X148908853Y-78692054D01*
X148783354Y-78817553D01*
X148635784Y-78916156D01*
X148471812Y-78984076D01*
X148336764Y-79010938D01*
X148297742Y-79018700D01*
X148120258Y-79018700D01*
X148081236Y-79010938D01*
X147946188Y-78984076D01*
X147782216Y-78916156D01*
X147634646Y-78817553D01*
X147509147Y-78692054D01*
X147410544Y-78544484D01*
X147342624Y-78380512D01*
X147310150Y-78217250D01*
X147308000Y-78206442D01*
X147308000Y-78028958D01*
X147312927Y-78004188D01*
X147342624Y-77854888D01*
X147410544Y-77690916D01*
X147509147Y-77543346D01*
X147634646Y-77417847D01*
X147782216Y-77319244D01*
X147946188Y-77251324D01*
X148095488Y-77221627D01*
X148120258Y-77216700D01*
X148297742Y-77216700D01*
X148322512Y-77221627D01*
G37*
G36*
X151650000Y-79018700D02*
G01*
X149848000Y-79018700D01*
X149848000Y-77216700D01*
X151650000Y-77216700D01*
X151650000Y-79018700D01*
G37*
G36*
X174179591Y-77456085D02*
G01*
X174213569Y-77466393D01*
X174244890Y-77483134D01*
X174272339Y-77505661D01*
X174294866Y-77533110D01*
X174311607Y-77564431D01*
X174321915Y-77598409D01*
X174326000Y-77639890D01*
X174326000Y-78316110D01*
X174321915Y-78357591D01*
X174311607Y-78391569D01*
X174294866Y-78422890D01*
X174272339Y-78450339D01*
X174244890Y-78472866D01*
X174213569Y-78489607D01*
X174179591Y-78499915D01*
X174138110Y-78504000D01*
X173536890Y-78504000D01*
X173495409Y-78499915D01*
X173461431Y-78489607D01*
X173430110Y-78472866D01*
X173402661Y-78450339D01*
X173380134Y-78422890D01*
X173363393Y-78391569D01*
X173353085Y-78357591D01*
X173349000Y-78316110D01*
X173349000Y-77639890D01*
X173353085Y-77598409D01*
X173363393Y-77564431D01*
X173380134Y-77533110D01*
X173402661Y-77505661D01*
X173430110Y-77483134D01*
X173461431Y-77466393D01*
X173495409Y-77456085D01*
X173536890Y-77452000D01*
X174138110Y-77452000D01*
X174179591Y-77456085D01*
G37*
G36*
X175754591Y-77456085D02*
G01*
X175788569Y-77466393D01*
X175819890Y-77483134D01*
X175847339Y-77505661D01*
X175869866Y-77533110D01*
X175886607Y-77564431D01*
X175896915Y-77598409D01*
X175901000Y-77639890D01*
X175901000Y-78316110D01*
X175896915Y-78357591D01*
X175886607Y-78391569D01*
X175869866Y-78422890D01*
X175847339Y-78450339D01*
X175819890Y-78472866D01*
X175788569Y-78489607D01*
X175754591Y-78499915D01*
X175713110Y-78504000D01*
X175111890Y-78504000D01*
X175070409Y-78499915D01*
X175036431Y-78489607D01*
X175005110Y-78472866D01*
X174977661Y-78450339D01*
X174955134Y-78422890D01*
X174938393Y-78391569D01*
X174928085Y-78357591D01*
X174924000Y-78316110D01*
X174924000Y-77639890D01*
X174928085Y-77598409D01*
X174938393Y-77564431D01*
X174955134Y-77533110D01*
X174977661Y-77505661D01*
X175005110Y-77483134D01*
X175036431Y-77466393D01*
X175070409Y-77456085D01*
X175111890Y-77452000D01*
X175713110Y-77452000D01*
X175754591Y-77456085D01*
G37*
G36*
X159550498Y-77751956D02*
G01*
X159571117Y-77758211D01*
X159590113Y-77768364D01*
X159606768Y-77782032D01*
X159620436Y-77798687D01*
X159630589Y-77817683D01*
X159636844Y-77838302D01*
X159639560Y-77865880D01*
X159639560Y-78374600D01*
X159636844Y-78402178D01*
X159630589Y-78422797D01*
X159620436Y-78441793D01*
X159606768Y-78458448D01*
X159590113Y-78472116D01*
X159571117Y-78482269D01*
X159550498Y-78488524D01*
X159522920Y-78491240D01*
X159064200Y-78491240D01*
X159036622Y-78488524D01*
X159016003Y-78482269D01*
X158997007Y-78472116D01*
X158980352Y-78458448D01*
X158966684Y-78441793D01*
X158956531Y-78422797D01*
X158950276Y-78402178D01*
X158947560Y-78374600D01*
X158947560Y-77865880D01*
X158950276Y-77838302D01*
X158956531Y-77817683D01*
X158966684Y-77798687D01*
X158980352Y-77782032D01*
X158997007Y-77768364D01*
X159016003Y-77758211D01*
X159036622Y-77751956D01*
X159064200Y-77749240D01*
X159522920Y-77749240D01*
X159550498Y-77751956D01*
G37*
G36*
X160520498Y-77751956D02*
G01*
X160541117Y-77758211D01*
X160560113Y-77768364D01*
X160576768Y-77782032D01*
X160590436Y-77798687D01*
X160600589Y-77817683D01*
X160606844Y-77838302D01*
X160609560Y-77865880D01*
X160609560Y-78374600D01*
X160606844Y-78402178D01*
X160600589Y-78422797D01*
X160590436Y-78441793D01*
X160576768Y-78458448D01*
X160560113Y-78472116D01*
X160541117Y-78482269D01*
X160520498Y-78488524D01*
X160492920Y-78491240D01*
X160034200Y-78491240D01*
X160006622Y-78488524D01*
X159986003Y-78482269D01*
X159967007Y-78472116D01*
X159950352Y-78458448D01*
X159936684Y-78441793D01*
X159926531Y-78422797D01*
X159920276Y-78402178D01*
X159917560Y-78374600D01*
X159917560Y-77865880D01*
X159920276Y-77838302D01*
X159926531Y-77817683D01*
X159936684Y-77798687D01*
X159950352Y-77782032D01*
X159967007Y-77768364D01*
X159986003Y-77758211D01*
X160006622Y-77751956D01*
X160034200Y-77749240D01*
X160492920Y-77749240D01*
X160520498Y-77751956D01*
G37*
G36*
X178130468Y-77414065D02*
G01*
X178169138Y-77425796D01*
X178204777Y-77444846D01*
X178236017Y-77470483D01*
X178261654Y-77501723D01*
X178280704Y-77537362D01*
X178292435Y-77576032D01*
X178297000Y-77622388D01*
X178297000Y-78273612D01*
X178292435Y-78319968D01*
X178280704Y-78358638D01*
X178261654Y-78394277D01*
X178236017Y-78425517D01*
X178204777Y-78451154D01*
X178169138Y-78470204D01*
X178130468Y-78481935D01*
X178084112Y-78486500D01*
X177007888Y-78486500D01*
X176961532Y-78481935D01*
X176922862Y-78470204D01*
X176887223Y-78451154D01*
X176855983Y-78425517D01*
X176830346Y-78394277D01*
X176811296Y-78358638D01*
X176799565Y-78319968D01*
X176795000Y-78273612D01*
X176795000Y-77622388D01*
X176799565Y-77576032D01*
X176811296Y-77537362D01*
X176830346Y-77501723D01*
X176855983Y-77470483D01*
X176887223Y-77444846D01*
X176922862Y-77425796D01*
X176961532Y-77414065D01*
X177007888Y-77409500D01*
X178084112Y-77409500D01*
X178130468Y-77414065D01*
G37*
G36*
X158323278Y-77734056D02*
G01*
X158343897Y-77740311D01*
X158362893Y-77750464D01*
X158379548Y-77764132D01*
X158393216Y-77780787D01*
X158403369Y-77799783D01*
X158409624Y-77820402D01*
X158412340Y-77847980D01*
X158412340Y-78306700D01*
X158409624Y-78334278D01*
X158403369Y-78354897D01*
X158393216Y-78373893D01*
X158379548Y-78390548D01*
X158362893Y-78404216D01*
X158343897Y-78414369D01*
X158323278Y-78420624D01*
X158295700Y-78423340D01*
X157786980Y-78423340D01*
X157759402Y-78420624D01*
X157738783Y-78414369D01*
X157719787Y-78404216D01*
X157703132Y-78390548D01*
X157689464Y-78373893D01*
X157679311Y-78354897D01*
X157673056Y-78334278D01*
X157670340Y-78306700D01*
X157670340Y-77847980D01*
X157673056Y-77820402D01*
X157679311Y-77799783D01*
X157689464Y-77780787D01*
X157703132Y-77764132D01*
X157719787Y-77750464D01*
X157738783Y-77740311D01*
X157759402Y-77734056D01*
X157786980Y-77731340D01*
X158295700Y-77731340D01*
X158323278Y-77734056D01*
G37*
G36*
X162786058Y-77677756D02*
G01*
X162806677Y-77684011D01*
X162825673Y-77694164D01*
X162842328Y-77707832D01*
X162855996Y-77724487D01*
X162866149Y-77743483D01*
X162872404Y-77764102D01*
X162875120Y-77791680D01*
X162875120Y-78250400D01*
X162872404Y-78277978D01*
X162866149Y-78298597D01*
X162855996Y-78317593D01*
X162842328Y-78334248D01*
X162825673Y-78347916D01*
X162806677Y-78358069D01*
X162786058Y-78364324D01*
X162758480Y-78367040D01*
X162249760Y-78367040D01*
X162222182Y-78364324D01*
X162201563Y-78358069D01*
X162182567Y-78347916D01*
X162165912Y-78334248D01*
X162152244Y-78317593D01*
X162142091Y-78298597D01*
X162135836Y-78277978D01*
X162133120Y-78250400D01*
X162133120Y-77791680D01*
X162135836Y-77764102D01*
X162142091Y-77743483D01*
X162152244Y-77724487D01*
X162165912Y-77707832D01*
X162182567Y-77694164D01*
X162201563Y-77684011D01*
X162222182Y-77677756D01*
X162249760Y-77675040D01*
X162758480Y-77675040D01*
X162786058Y-77677756D01*
G37*
G36*
X156903278Y-77665056D02*
G01*
X156923897Y-77671311D01*
X156942893Y-77681464D01*
X156959548Y-77695132D01*
X156973216Y-77711787D01*
X156983369Y-77730783D01*
X156989624Y-77751402D01*
X156992340Y-77778980D01*
X156992340Y-78237700D01*
X156989624Y-78265278D01*
X156983369Y-78285897D01*
X156973216Y-78304893D01*
X156959548Y-78321548D01*
X156942893Y-78335216D01*
X156923897Y-78345369D01*
X156903278Y-78351624D01*
X156875700Y-78354340D01*
X156366980Y-78354340D01*
X156339402Y-78351624D01*
X156318783Y-78345369D01*
X156299787Y-78335216D01*
X156283132Y-78321548D01*
X156269464Y-78304893D01*
X156259311Y-78285897D01*
X156253056Y-78265278D01*
X156250340Y-78237700D01*
X156250340Y-77778980D01*
X156253056Y-77751402D01*
X156259311Y-77730783D01*
X156269464Y-77711787D01*
X156283132Y-77695132D01*
X156299787Y-77681464D01*
X156318783Y-77671311D01*
X156339402Y-77665056D01*
X156366980Y-77662340D01*
X156875700Y-77662340D01*
X156903278Y-77665056D01*
G37*
G36*
X165164040Y-78285440D02*
G01*
X163562040Y-78285440D01*
X163562040Y-76583440D01*
X165164040Y-76583440D01*
X165164040Y-78285440D01*
G37*
G36*
X167364040Y-78285440D02*
G01*
X165762040Y-78285440D01*
X165762040Y-76583440D01*
X167364040Y-76583440D01*
X167364040Y-78285440D01*
G37*
G36*
X206512400Y-77183526D02*
G01*
X206513002Y-77195778D01*
X206515549Y-77221640D01*
X206513002Y-77247502D01*
X206512400Y-77259754D01*
X206512400Y-77333046D01*
X206503443Y-77349804D01*
X206499315Y-77361341D01*
X206473984Y-77444846D01*
X206465754Y-77471976D01*
X206405306Y-77585065D01*
X206323954Y-77684194D01*
X206224825Y-77765546D01*
X206111736Y-77825994D01*
X206080926Y-77835340D01*
X205989018Y-77863220D01*
X205925255Y-77869500D01*
X205893374Y-77872640D01*
X205129426Y-77872640D01*
X205097545Y-77869500D01*
X205033782Y-77863220D01*
X204941874Y-77835340D01*
X204911064Y-77825994D01*
X204797975Y-77765546D01*
X204698846Y-77684194D01*
X204617494Y-77585065D01*
X204557046Y-77471976D01*
X204548816Y-77444846D01*
X204523487Y-77361348D01*
X204514113Y-77338715D01*
X204510400Y-77333158D01*
X204510400Y-77259754D01*
X204509798Y-77247502D01*
X204507251Y-77221640D01*
X204509798Y-77195778D01*
X204510400Y-77183526D01*
X204510400Y-75970640D01*
X206512400Y-75970640D01*
X206512400Y-77183526D01*
G37*
G36*
X182113795Y-71726323D02*
G01*
X182120810Y-71728451D01*
X182127276Y-71731908D01*
X182132942Y-71736558D01*
X182137592Y-71742224D01*
X182141049Y-71748690D01*
X182143177Y-71755705D01*
X182144500Y-71769140D01*
X182144500Y-72082860D01*
X182143177Y-72096295D01*
X182141049Y-72103309D01*
X182133690Y-72117077D01*
X182124313Y-72139716D01*
X182119533Y-72163749D01*
X182119533Y-72188253D01*
X182124314Y-72212286D01*
X182133690Y-72234923D01*
X182141049Y-72248691D01*
X182143177Y-72255705D01*
X182144500Y-72269140D01*
X182144500Y-72582860D01*
X182143177Y-72596295D01*
X182141049Y-72603309D01*
X182133690Y-72617077D01*
X182124313Y-72639716D01*
X182119533Y-72663749D01*
X182119533Y-72688253D01*
X182124314Y-72712286D01*
X182133690Y-72734923D01*
X182141049Y-72748691D01*
X182143177Y-72755705D01*
X182144500Y-72769140D01*
X182144500Y-73082860D01*
X182143177Y-73096295D01*
X182141049Y-73103309D01*
X182133690Y-73117077D01*
X182124313Y-73139716D01*
X182119533Y-73163749D01*
X182119533Y-73188253D01*
X182124314Y-73212286D01*
X182133690Y-73234923D01*
X182141049Y-73248691D01*
X182143177Y-73255705D01*
X182144500Y-73269140D01*
X182144500Y-73582860D01*
X182143177Y-73596295D01*
X182141049Y-73603309D01*
X182133690Y-73617077D01*
X182124313Y-73639716D01*
X182119533Y-73663749D01*
X182119533Y-73688253D01*
X182124314Y-73712286D01*
X182133690Y-73734923D01*
X182141049Y-73748691D01*
X182143177Y-73755705D01*
X182144500Y-73769140D01*
X182144500Y-74082860D01*
X182143177Y-74096295D01*
X182141049Y-74103309D01*
X182133690Y-74117077D01*
X182124313Y-74139716D01*
X182119533Y-74163749D01*
X182119533Y-74188253D01*
X182124314Y-74212286D01*
X182133690Y-74234923D01*
X182141049Y-74248691D01*
X182143177Y-74255705D01*
X182144500Y-74269140D01*
X182144500Y-74582860D01*
X182143177Y-74596295D01*
X182141049Y-74603309D01*
X182133690Y-74617077D01*
X182124313Y-74639716D01*
X182119533Y-74663749D01*
X182119533Y-74688253D01*
X182124314Y-74712286D01*
X182133690Y-74734923D01*
X182141049Y-74748691D01*
X182143177Y-74755705D01*
X182144500Y-74769140D01*
X182144500Y-75082860D01*
X182143177Y-75096295D01*
X182141049Y-75103309D01*
X182133690Y-75117077D01*
X182124313Y-75139716D01*
X182119533Y-75163749D01*
X182119533Y-75188253D01*
X182124314Y-75212286D01*
X182133690Y-75234923D01*
X182141049Y-75248691D01*
X182143177Y-75255705D01*
X182144500Y-75269140D01*
X182144500Y-75582860D01*
X182143177Y-75596295D01*
X182141049Y-75603309D01*
X182133690Y-75617077D01*
X182124313Y-75639716D01*
X182119533Y-75663749D01*
X182119533Y-75688253D01*
X182124314Y-75712286D01*
X182133690Y-75734923D01*
X182141049Y-75748691D01*
X182143177Y-75755705D01*
X182144500Y-75769140D01*
X182144500Y-76082860D01*
X182143177Y-76096295D01*
X182141049Y-76103309D01*
X182133690Y-76117077D01*
X182124313Y-76139716D01*
X182119533Y-76163749D01*
X182119533Y-76188253D01*
X182124314Y-76212286D01*
X182133690Y-76234923D01*
X182141049Y-76248691D01*
X182143177Y-76255705D01*
X182144500Y-76269140D01*
X182144500Y-76582860D01*
X182143177Y-76596295D01*
X182141049Y-76603309D01*
X182133690Y-76617077D01*
X182124313Y-76639716D01*
X182119533Y-76663749D01*
X182119533Y-76688253D01*
X182124314Y-76712286D01*
X182133690Y-76734923D01*
X182141049Y-76748691D01*
X182143177Y-76755705D01*
X182144500Y-76769140D01*
X182144500Y-77082860D01*
X182143177Y-77096295D01*
X182141049Y-77103309D01*
X182133690Y-77117077D01*
X182124313Y-77139716D01*
X182119533Y-77163749D01*
X182119533Y-77188253D01*
X182124314Y-77212286D01*
X182133690Y-77234923D01*
X182141049Y-77248691D01*
X182143177Y-77255705D01*
X182144500Y-77269140D01*
X182144500Y-77582860D01*
X182143177Y-77596295D01*
X182141049Y-77603310D01*
X182137592Y-77609776D01*
X182132942Y-77615442D01*
X182127276Y-77620092D01*
X182120810Y-77623549D01*
X182113795Y-77625677D01*
X182100360Y-77627000D01*
X180611640Y-77627000D01*
X180598205Y-77625677D01*
X180591190Y-77623549D01*
X180584724Y-77620092D01*
X180579058Y-77615442D01*
X180574408Y-77609776D01*
X180570951Y-77603310D01*
X180568823Y-77596295D01*
X180567500Y-77582860D01*
X180567500Y-77269140D01*
X180568823Y-77255705D01*
X180570951Y-77248691D01*
X180578310Y-77234923D01*
X180587687Y-77212284D01*
X180592467Y-77188251D01*
X180592467Y-77163747D01*
X180587686Y-77139714D01*
X180578310Y-77117077D01*
X180570951Y-77103309D01*
X180568823Y-77096295D01*
X180567500Y-77082860D01*
X180567500Y-76769140D01*
X180568823Y-76755705D01*
X180570951Y-76748691D01*
X180578310Y-76734923D01*
X180587687Y-76712284D01*
X180592467Y-76688251D01*
X180592467Y-76663747D01*
X180587686Y-76639714D01*
X180578310Y-76617077D01*
X180570951Y-76603309D01*
X180568823Y-76596295D01*
X180567500Y-76582860D01*
X180567500Y-76269140D01*
X180568823Y-76255705D01*
X180570951Y-76248691D01*
X180578310Y-76234923D01*
X180587687Y-76212284D01*
X180592467Y-76188251D01*
X180592467Y-76163747D01*
X180587686Y-76139714D01*
X180578310Y-76117077D01*
X180570951Y-76103309D01*
X180568823Y-76096295D01*
X180567500Y-76082860D01*
X180567500Y-75769140D01*
X180568823Y-75755705D01*
X180570951Y-75748691D01*
X180578310Y-75734923D01*
X180587687Y-75712284D01*
X180592467Y-75688251D01*
X180592467Y-75663747D01*
X180587686Y-75639714D01*
X180578310Y-75617077D01*
X180570951Y-75603309D01*
X180568823Y-75596295D01*
X180567500Y-75582860D01*
X180567500Y-75269140D01*
X180568823Y-75255705D01*
X180570951Y-75248691D01*
X180578310Y-75234923D01*
X180587687Y-75212284D01*
X180592467Y-75188251D01*
X180592467Y-75163747D01*
X180587686Y-75139714D01*
X180578310Y-75117077D01*
X180570951Y-75103309D01*
X180568823Y-75096295D01*
X180567500Y-75082860D01*
X180567500Y-74769140D01*
X180568823Y-74755705D01*
X180570951Y-74748691D01*
X180578310Y-74734923D01*
X180587687Y-74712284D01*
X180592467Y-74688251D01*
X180592467Y-74663747D01*
X180587686Y-74639714D01*
X180578310Y-74617077D01*
X180570951Y-74603309D01*
X180568823Y-74596295D01*
X180567500Y-74582860D01*
X180567500Y-74269140D01*
X180568823Y-74255705D01*
X180570951Y-74248691D01*
X180578310Y-74234923D01*
X180587687Y-74212284D01*
X180592467Y-74188251D01*
X180592467Y-74163747D01*
X180587686Y-74139714D01*
X180578310Y-74117077D01*
X180570951Y-74103309D01*
X180568823Y-74096295D01*
X180567500Y-74082860D01*
X180567500Y-73769140D01*
X180568823Y-73755705D01*
X180570951Y-73748691D01*
X180578310Y-73734923D01*
X180587687Y-73712284D01*
X180592467Y-73688251D01*
X180592467Y-73663747D01*
X180587686Y-73639714D01*
X180578310Y-73617077D01*
X180570951Y-73603309D01*
X180568823Y-73596295D01*
X180567500Y-73582860D01*
X180567500Y-73269140D01*
X180568823Y-73255705D01*
X180570951Y-73248691D01*
X180578310Y-73234923D01*
X180587687Y-73212284D01*
X180592467Y-73188251D01*
X180592467Y-73163747D01*
X180587686Y-73139714D01*
X180578310Y-73117077D01*
X180570951Y-73103309D01*
X180568823Y-73096295D01*
X180567500Y-73082860D01*
X180567500Y-72769140D01*
X180568823Y-72755705D01*
X180570951Y-72748691D01*
X180578310Y-72734923D01*
X180587687Y-72712284D01*
X180592467Y-72688251D01*
X180592467Y-72663747D01*
X180587686Y-72639714D01*
X180578310Y-72617077D01*
X180570951Y-72603309D01*
X180568823Y-72596295D01*
X180567500Y-72582860D01*
X180567500Y-72269140D01*
X180568823Y-72255705D01*
X180570951Y-72248691D01*
X180578310Y-72234923D01*
X180587687Y-72212284D01*
X180592467Y-72188251D01*
X180592467Y-72163747D01*
X180587686Y-72139714D01*
X180578310Y-72117077D01*
X180570951Y-72103309D01*
X180568823Y-72096295D01*
X180567500Y-72082860D01*
X180567500Y-71769140D01*
X180568823Y-71755705D01*
X180570951Y-71748690D01*
X180574408Y-71742224D01*
X180579058Y-71736558D01*
X180584724Y-71731908D01*
X180591190Y-71728451D01*
X180598205Y-71726323D01*
X180611640Y-71725000D01*
X182100360Y-71725000D01*
X182113795Y-71726323D01*
G37*
G36*
X190438795Y-71726323D02*
G01*
X190445810Y-71728451D01*
X190452276Y-71731908D01*
X190457942Y-71736558D01*
X190462592Y-71742224D01*
X190466049Y-71748690D01*
X190468177Y-71755705D01*
X190469500Y-71769140D01*
X190469500Y-72082860D01*
X190468177Y-72096295D01*
X190466049Y-72103309D01*
X190458690Y-72117077D01*
X190449313Y-72139716D01*
X190444533Y-72163749D01*
X190444533Y-72188253D01*
X190449314Y-72212286D01*
X190458690Y-72234923D01*
X190466049Y-72248691D01*
X190468177Y-72255705D01*
X190469500Y-72269140D01*
X190469500Y-72582860D01*
X190468177Y-72596295D01*
X190466049Y-72603309D01*
X190458690Y-72617077D01*
X190449313Y-72639716D01*
X190444533Y-72663749D01*
X190444533Y-72688253D01*
X190449314Y-72712286D01*
X190458690Y-72734923D01*
X190466049Y-72748691D01*
X190468177Y-72755705D01*
X190469500Y-72769140D01*
X190469500Y-73082860D01*
X190468177Y-73096295D01*
X190466049Y-73103309D01*
X190458690Y-73117077D01*
X190449313Y-73139716D01*
X190444533Y-73163749D01*
X190444533Y-73188253D01*
X190449314Y-73212286D01*
X190458690Y-73234923D01*
X190466049Y-73248691D01*
X190468177Y-73255705D01*
X190469500Y-73269140D01*
X190469500Y-73582860D01*
X190468177Y-73596295D01*
X190466049Y-73603309D01*
X190458690Y-73617077D01*
X190449313Y-73639716D01*
X190444533Y-73663749D01*
X190444533Y-73688253D01*
X190449314Y-73712286D01*
X190458690Y-73734923D01*
X190466049Y-73748691D01*
X190468177Y-73755705D01*
X190469500Y-73769140D01*
X190469500Y-74082860D01*
X190468177Y-74096295D01*
X190466049Y-74103309D01*
X190458690Y-74117077D01*
X190449313Y-74139716D01*
X190444533Y-74163749D01*
X190444533Y-74188253D01*
X190449314Y-74212286D01*
X190458690Y-74234923D01*
X190466049Y-74248691D01*
X190468177Y-74255705D01*
X190469500Y-74269140D01*
X190469500Y-74582860D01*
X190468177Y-74596295D01*
X190466049Y-74603309D01*
X190458690Y-74617077D01*
X190449313Y-74639716D01*
X190444533Y-74663749D01*
X190444533Y-74688253D01*
X190449314Y-74712286D01*
X190458690Y-74734923D01*
X190466049Y-74748691D01*
X190468177Y-74755705D01*
X190469500Y-74769140D01*
X190469500Y-75082860D01*
X190468177Y-75096295D01*
X190466049Y-75103309D01*
X190458690Y-75117077D01*
X190449313Y-75139716D01*
X190444533Y-75163749D01*
X190444533Y-75188253D01*
X190449314Y-75212286D01*
X190458690Y-75234923D01*
X190466049Y-75248691D01*
X190468177Y-75255705D01*
X190469500Y-75269140D01*
X190469500Y-75582860D01*
X190468177Y-75596295D01*
X190466049Y-75603309D01*
X190458690Y-75617077D01*
X190449313Y-75639716D01*
X190444533Y-75663749D01*
X190444533Y-75688253D01*
X190449314Y-75712286D01*
X190458690Y-75734923D01*
X190466049Y-75748691D01*
X190468177Y-75755705D01*
X190469500Y-75769140D01*
X190469500Y-76082860D01*
X190468177Y-76096295D01*
X190466049Y-76103309D01*
X190458690Y-76117077D01*
X190449313Y-76139716D01*
X190444533Y-76163749D01*
X190444533Y-76188253D01*
X190449314Y-76212286D01*
X190458690Y-76234923D01*
X190466049Y-76248691D01*
X190468177Y-76255705D01*
X190469500Y-76269140D01*
X190469500Y-76582860D01*
X190468177Y-76596295D01*
X190466049Y-76603309D01*
X190458690Y-76617077D01*
X190449313Y-76639716D01*
X190444533Y-76663749D01*
X190444533Y-76688253D01*
X190449314Y-76712286D01*
X190458690Y-76734923D01*
X190466049Y-76748691D01*
X190468177Y-76755705D01*
X190469500Y-76769140D01*
X190469500Y-77082860D01*
X190468177Y-77096295D01*
X190466049Y-77103309D01*
X190458690Y-77117077D01*
X190449313Y-77139716D01*
X190444533Y-77163749D01*
X190444533Y-77188253D01*
X190449314Y-77212286D01*
X190458690Y-77234923D01*
X190466049Y-77248691D01*
X190468177Y-77255705D01*
X190469500Y-77269140D01*
X190469500Y-77582860D01*
X190468177Y-77596295D01*
X190466049Y-77603310D01*
X190462592Y-77609776D01*
X190457942Y-77615442D01*
X190452276Y-77620092D01*
X190445810Y-77623549D01*
X190438795Y-77625677D01*
X190425360Y-77627000D01*
X188936640Y-77627000D01*
X188923205Y-77625677D01*
X188916190Y-77623549D01*
X188909724Y-77620092D01*
X188904058Y-77615442D01*
X188899408Y-77609776D01*
X188895951Y-77603310D01*
X188893823Y-77596295D01*
X188892500Y-77582860D01*
X188892500Y-77269140D01*
X188893823Y-77255705D01*
X188895951Y-77248691D01*
X188903310Y-77234923D01*
X188912687Y-77212284D01*
X188917467Y-77188251D01*
X188917467Y-77163747D01*
X188912686Y-77139714D01*
X188903310Y-77117077D01*
X188895951Y-77103309D01*
X188893823Y-77096295D01*
X188892500Y-77082860D01*
X188892500Y-76769140D01*
X188893823Y-76755705D01*
X188895951Y-76748691D01*
X188903310Y-76734923D01*
X188912687Y-76712284D01*
X188917467Y-76688251D01*
X188917467Y-76663747D01*
X188912686Y-76639714D01*
X188903310Y-76617077D01*
X188895951Y-76603309D01*
X188893823Y-76596295D01*
X188892500Y-76582860D01*
X188892500Y-76269140D01*
X188893823Y-76255705D01*
X188895951Y-76248691D01*
X188903310Y-76234923D01*
X188912687Y-76212284D01*
X188917467Y-76188251D01*
X188917467Y-76163747D01*
X188912686Y-76139714D01*
X188903310Y-76117077D01*
X188895951Y-76103309D01*
X188893823Y-76096295D01*
X188892500Y-76082860D01*
X188892500Y-75769140D01*
X188893823Y-75755705D01*
X188895951Y-75748691D01*
X188903310Y-75734923D01*
X188912687Y-75712284D01*
X188917467Y-75688251D01*
X188917467Y-75663747D01*
X188912686Y-75639714D01*
X188903310Y-75617077D01*
X188895951Y-75603309D01*
X188893823Y-75596295D01*
X188892500Y-75582860D01*
X188892500Y-75269140D01*
X188893823Y-75255705D01*
X188895951Y-75248691D01*
X188903310Y-75234923D01*
X188912687Y-75212284D01*
X188917467Y-75188251D01*
X188917467Y-75163747D01*
X188912686Y-75139714D01*
X188903310Y-75117077D01*
X188895951Y-75103309D01*
X188893823Y-75096295D01*
X188892500Y-75082860D01*
X188892500Y-74769140D01*
X188893823Y-74755705D01*
X188895951Y-74748691D01*
X188903310Y-74734923D01*
X188912687Y-74712284D01*
X188917467Y-74688251D01*
X188917467Y-74663747D01*
X188912686Y-74639714D01*
X188903310Y-74617077D01*
X188895951Y-74603309D01*
X188893823Y-74596295D01*
X188892500Y-74582860D01*
X188892500Y-74269140D01*
X188893823Y-74255705D01*
X188895951Y-74248691D01*
X188903310Y-74234923D01*
X188912687Y-74212284D01*
X188917467Y-74188251D01*
X188917467Y-74163747D01*
X188912686Y-74139714D01*
X188903310Y-74117077D01*
X188895951Y-74103309D01*
X188893823Y-74096295D01*
X188892500Y-74082860D01*
X188892500Y-73769140D01*
X188893823Y-73755705D01*
X188895951Y-73748691D01*
X188903310Y-73734923D01*
X188912687Y-73712284D01*
X188917467Y-73688251D01*
X188917467Y-73663747D01*
X188912686Y-73639714D01*
X188903310Y-73617077D01*
X188895951Y-73603309D01*
X188893823Y-73596295D01*
X188892500Y-73582860D01*
X188892500Y-73269140D01*
X188893823Y-73255705D01*
X188895951Y-73248691D01*
X188903310Y-73234923D01*
X188912687Y-73212284D01*
X188917467Y-73188251D01*
X188917467Y-73163747D01*
X188912686Y-73139714D01*
X188903310Y-73117077D01*
X188895951Y-73103309D01*
X188893823Y-73096295D01*
X188892500Y-73082860D01*
X188892500Y-72769140D01*
X188893823Y-72755705D01*
X188895951Y-72748691D01*
X188903310Y-72734923D01*
X188912687Y-72712284D01*
X188917467Y-72688251D01*
X188917467Y-72663747D01*
X188912686Y-72639714D01*
X188903310Y-72617077D01*
X188895951Y-72603309D01*
X188893823Y-72596295D01*
X188892500Y-72582860D01*
X188892500Y-72269140D01*
X188893823Y-72255705D01*
X188895951Y-72248691D01*
X188903310Y-72234923D01*
X188912687Y-72212284D01*
X188917467Y-72188251D01*
X188917467Y-72163747D01*
X188912686Y-72139714D01*
X188903310Y-72117077D01*
X188895951Y-72103309D01*
X188893823Y-72096295D01*
X188892500Y-72082860D01*
X188892500Y-71769140D01*
X188893823Y-71755705D01*
X188895951Y-71748690D01*
X188899408Y-71742224D01*
X188904058Y-71736558D01*
X188909724Y-71731908D01*
X188916190Y-71728451D01*
X188923205Y-71726323D01*
X188936640Y-71725000D01*
X190425360Y-71725000D01*
X190438795Y-71726323D01*
G37*
G36*
X162786058Y-76707756D02*
G01*
X162806677Y-76714011D01*
X162825673Y-76724164D01*
X162842328Y-76737832D01*
X162855996Y-76754487D01*
X162866149Y-76773483D01*
X162872404Y-76794102D01*
X162875120Y-76821680D01*
X162875120Y-77280400D01*
X162872404Y-77307978D01*
X162866149Y-77328597D01*
X162855996Y-77347593D01*
X162842328Y-77364248D01*
X162825673Y-77377916D01*
X162806677Y-77388069D01*
X162786058Y-77394324D01*
X162758480Y-77397040D01*
X162249760Y-77397040D01*
X162222182Y-77394324D01*
X162201563Y-77388069D01*
X162182567Y-77377916D01*
X162165912Y-77364248D01*
X162152244Y-77347593D01*
X162142091Y-77328597D01*
X162135836Y-77307978D01*
X162133120Y-77280400D01*
X162133120Y-76821680D01*
X162135836Y-76794102D01*
X162142091Y-76773483D01*
X162152244Y-76754487D01*
X162165912Y-76737832D01*
X162182567Y-76724164D01*
X162201563Y-76714011D01*
X162222182Y-76707756D01*
X162249760Y-76705040D01*
X162758480Y-76705040D01*
X162786058Y-76707756D01*
G37*
G36*
X156903278Y-76695056D02*
G01*
X156923897Y-76701311D01*
X156942893Y-76711464D01*
X156959548Y-76725132D01*
X156973216Y-76741787D01*
X156983369Y-76760783D01*
X156989624Y-76781402D01*
X156992340Y-76808980D01*
X156992340Y-77267700D01*
X156989624Y-77295278D01*
X156983369Y-77315897D01*
X156973216Y-77334893D01*
X156959548Y-77351548D01*
X156942893Y-77365216D01*
X156923897Y-77375369D01*
X156903278Y-77381624D01*
X156875700Y-77384340D01*
X156366980Y-77384340D01*
X156339402Y-77381624D01*
X156318783Y-77375369D01*
X156299787Y-77365216D01*
X156283132Y-77351548D01*
X156269464Y-77334893D01*
X156259311Y-77315897D01*
X156253056Y-77295278D01*
X156250340Y-77267700D01*
X156250340Y-76808980D01*
X156253056Y-76781402D01*
X156259311Y-76760783D01*
X156269464Y-76741787D01*
X156283132Y-76725132D01*
X156299787Y-76711464D01*
X156318783Y-76701311D01*
X156339402Y-76695056D01*
X156366980Y-76692340D01*
X156875700Y-76692340D01*
X156903278Y-76695056D01*
G37*
G36*
X200589148Y-76250025D02*
G01*
X200627818Y-76261756D01*
X200663457Y-76280806D01*
X200694697Y-76306443D01*
X200720334Y-76337683D01*
X200739384Y-76373322D01*
X200751115Y-76411992D01*
X200755680Y-76458348D01*
X200755680Y-77109572D01*
X200751115Y-77155928D01*
X200739384Y-77194598D01*
X200720334Y-77230237D01*
X200694697Y-77261477D01*
X200663457Y-77287114D01*
X200627818Y-77306164D01*
X200589148Y-77317895D01*
X200542792Y-77322460D01*
X199466568Y-77322460D01*
X199420212Y-77317895D01*
X199381542Y-77306164D01*
X199345903Y-77287114D01*
X199314663Y-77261477D01*
X199289026Y-77230237D01*
X199269976Y-77194598D01*
X199258245Y-77155928D01*
X199253680Y-77109572D01*
X199253680Y-76458348D01*
X199258245Y-76411992D01*
X199269976Y-76373322D01*
X199289026Y-76337683D01*
X199314663Y-76306443D01*
X199345903Y-76280806D01*
X199381542Y-76261756D01*
X199420212Y-76250025D01*
X199466568Y-76245460D01*
X200542792Y-76245460D01*
X200589148Y-76250025D01*
G37*
G36*
X193660028Y-76191365D02*
G01*
X193698698Y-76203096D01*
X193734337Y-76222146D01*
X193765577Y-76247783D01*
X193791214Y-76279023D01*
X193810264Y-76314662D01*
X193821995Y-76353332D01*
X193826560Y-76399688D01*
X193826560Y-77050912D01*
X193821995Y-77097268D01*
X193810264Y-77135938D01*
X193791214Y-77171577D01*
X193765577Y-77202817D01*
X193734337Y-77228454D01*
X193698698Y-77247504D01*
X193660028Y-77259235D01*
X193613672Y-77263800D01*
X192537448Y-77263800D01*
X192491092Y-77259235D01*
X192452422Y-77247504D01*
X192416783Y-77228454D01*
X192385543Y-77202817D01*
X192359906Y-77171577D01*
X192340856Y-77135938D01*
X192329125Y-77097268D01*
X192324560Y-77050912D01*
X192324560Y-76399688D01*
X192329125Y-76353332D01*
X192340856Y-76314662D01*
X192359906Y-76279023D01*
X192385543Y-76247783D01*
X192416783Y-76222146D01*
X192452422Y-76203096D01*
X192491092Y-76191365D01*
X192537448Y-76186800D01*
X193613672Y-76186800D01*
X193660028Y-76191365D01*
G37*
G36*
X158301595Y-73312423D02*
G01*
X158306269Y-73313841D01*
X158310570Y-73316140D01*
X158316942Y-73321369D01*
X158337316Y-73334983D01*
X158359955Y-73344360D01*
X158383989Y-73349140D01*
X158408493Y-73349140D01*
X158432526Y-73344359D01*
X158455165Y-73334982D01*
X158475538Y-73321369D01*
X158481910Y-73316140D01*
X158486211Y-73313841D01*
X158490885Y-73312423D01*
X158501881Y-73311340D01*
X158790599Y-73311340D01*
X158801595Y-73312423D01*
X158806269Y-73313841D01*
X158810570Y-73316140D01*
X158816942Y-73321369D01*
X158837316Y-73334983D01*
X158859955Y-73344360D01*
X158883989Y-73349140D01*
X158908493Y-73349140D01*
X158932526Y-73344359D01*
X158955165Y-73334982D01*
X158975538Y-73321369D01*
X158981910Y-73316140D01*
X158986211Y-73313841D01*
X158990885Y-73312423D01*
X159001881Y-73311340D01*
X159290599Y-73311340D01*
X159301595Y-73312423D01*
X159306269Y-73313841D01*
X159310570Y-73316140D01*
X159316942Y-73321369D01*
X159337316Y-73334983D01*
X159359955Y-73344360D01*
X159383989Y-73349140D01*
X159408493Y-73349140D01*
X159432526Y-73344359D01*
X159455165Y-73334982D01*
X159475538Y-73321369D01*
X159481910Y-73316140D01*
X159486211Y-73313841D01*
X159490885Y-73312423D01*
X159501881Y-73311340D01*
X159790599Y-73311340D01*
X159801595Y-73312423D01*
X159806269Y-73313841D01*
X159810570Y-73316140D01*
X159816942Y-73321369D01*
X159837316Y-73334983D01*
X159859955Y-73344360D01*
X159883989Y-73349140D01*
X159908493Y-73349140D01*
X159932526Y-73344359D01*
X159955165Y-73334982D01*
X159975538Y-73321369D01*
X159981910Y-73316140D01*
X159986211Y-73313841D01*
X159990885Y-73312423D01*
X160001881Y-73311340D01*
X160290599Y-73311340D01*
X160301595Y-73312423D01*
X160306269Y-73313841D01*
X160310571Y-73316140D01*
X160314344Y-73319236D01*
X160317440Y-73323009D01*
X160319739Y-73327311D01*
X160321157Y-73331985D01*
X160322240Y-73342981D01*
X160322240Y-74236699D01*
X160321157Y-74247695D01*
X160319739Y-74252369D01*
X160312603Y-74265721D01*
X160310327Y-74269127D01*
X160300952Y-74291766D01*
X160296174Y-74315800D01*
X160296176Y-74340304D01*
X160300959Y-74364337D01*
X160310338Y-74386975D01*
X160323954Y-74407348D01*
X160328915Y-74412309D01*
X160356627Y-74446077D01*
X160373082Y-74476863D01*
X160383214Y-74510261D01*
X160387240Y-74551140D01*
X160387240Y-75923540D01*
X160383214Y-75964419D01*
X160373082Y-75997817D01*
X160356627Y-76028603D01*
X160328912Y-76062375D01*
X160323943Y-76067344D01*
X160310330Y-76087719D01*
X160300954Y-76110359D01*
X160296174Y-76134392D01*
X160296175Y-76158896D01*
X160300957Y-76182929D01*
X160310335Y-76205568D01*
X160312609Y-76208972D01*
X160319739Y-76222311D01*
X160321157Y-76226985D01*
X160322240Y-76237981D01*
X160322240Y-77131699D01*
X160321157Y-77142695D01*
X160319739Y-77147369D01*
X160317440Y-77151671D01*
X160314344Y-77155444D01*
X160310571Y-77158540D01*
X160306269Y-77160839D01*
X160301595Y-77162257D01*
X160290599Y-77163340D01*
X160001881Y-77163340D01*
X159990885Y-77162257D01*
X159986211Y-77160839D01*
X159981910Y-77158540D01*
X159975538Y-77153311D01*
X159955164Y-77139697D01*
X159932525Y-77130320D01*
X159908491Y-77125540D01*
X159883987Y-77125540D01*
X159859954Y-77130321D01*
X159837315Y-77139698D01*
X159816942Y-77153311D01*
X159810570Y-77158540D01*
X159806269Y-77160839D01*
X159801595Y-77162257D01*
X159790599Y-77163340D01*
X159501881Y-77163340D01*
X159490885Y-77162257D01*
X159486211Y-77160839D01*
X159481910Y-77158540D01*
X159475538Y-77153311D01*
X159455164Y-77139697D01*
X159432525Y-77130320D01*
X159408491Y-77125540D01*
X159383987Y-77125540D01*
X159359954Y-77130321D01*
X159337315Y-77139698D01*
X159316942Y-77153311D01*
X159310570Y-77158540D01*
X159306269Y-77160839D01*
X159301595Y-77162257D01*
X159290599Y-77163340D01*
X159001881Y-77163340D01*
X158990885Y-77162257D01*
X158986211Y-77160839D01*
X158981910Y-77158540D01*
X158975538Y-77153311D01*
X158955164Y-77139697D01*
X158932525Y-77130320D01*
X158908491Y-77125540D01*
X158883987Y-77125540D01*
X158859954Y-77130321D01*
X158837315Y-77139698D01*
X158816942Y-77153311D01*
X158810570Y-77158540D01*
X158806269Y-77160839D01*
X158801595Y-77162257D01*
X158790599Y-77163340D01*
X158501881Y-77163340D01*
X158490885Y-77162257D01*
X158486211Y-77160839D01*
X158481910Y-77158540D01*
X158475538Y-77153311D01*
X158455164Y-77139697D01*
X158432525Y-77130320D01*
X158408491Y-77125540D01*
X158383987Y-77125540D01*
X158359954Y-77130321D01*
X158337315Y-77139698D01*
X158316942Y-77153311D01*
X158310570Y-77158540D01*
X158306269Y-77160839D01*
X158301595Y-77162257D01*
X158290599Y-77163340D01*
X158001881Y-77163340D01*
X157990885Y-77162257D01*
X157986211Y-77160839D01*
X157981909Y-77158540D01*
X157978136Y-77155444D01*
X157975040Y-77151671D01*
X157972741Y-77147369D01*
X157971323Y-77142695D01*
X157970240Y-77131699D01*
X157970240Y-76237981D01*
X157971323Y-76226985D01*
X157972741Y-76222311D01*
X157979877Y-76208959D01*
X157982153Y-76205553D01*
X157991528Y-76182914D01*
X157996306Y-76158880D01*
X157996304Y-76134376D01*
X157991521Y-76110343D01*
X157982142Y-76087705D01*
X157968526Y-76067332D01*
X157963565Y-76062371D01*
X157935853Y-76028603D01*
X157919398Y-75997817D01*
X157909266Y-75964419D01*
X157905240Y-75923540D01*
X157905240Y-74551140D01*
X157909266Y-74510261D01*
X157919398Y-74476863D01*
X157935853Y-74446077D01*
X157963568Y-74412305D01*
X157968537Y-74407336D01*
X157982150Y-74386961D01*
X157991526Y-74364321D01*
X157996306Y-74340288D01*
X157996305Y-74315784D01*
X157991523Y-74291751D01*
X157982145Y-74269112D01*
X157979871Y-74265708D01*
X157972741Y-74252369D01*
X157971323Y-74247695D01*
X157970240Y-74236699D01*
X157970240Y-73342981D01*
X157971323Y-73331985D01*
X157972741Y-73327311D01*
X157975040Y-73323009D01*
X157978136Y-73319236D01*
X157981909Y-73316140D01*
X157986211Y-73313841D01*
X157990885Y-73312423D01*
X158001881Y-73311340D01*
X158290599Y-73311340D01*
X158301595Y-73312423D01*
G37*
G36*
X196125440Y-77129640D02*
G01*
X194963440Y-77129640D01*
X194963440Y-76377640D01*
X196125440Y-76377640D01*
X196125440Y-77129640D01*
G37*
G36*
X203037748Y-70475460D02*
G01*
X203037750Y-70475461D01*
X203037751Y-70475461D01*
X203178974Y-70533957D01*
X203178977Y-70533959D01*
X203306069Y-70618879D01*
X203414161Y-70726971D01*
X203481590Y-70827886D01*
X203499083Y-70854066D01*
X203528050Y-70924000D01*
X203557580Y-70995292D01*
X203587400Y-71145209D01*
X203587400Y-71298071D01*
X203558279Y-71444476D01*
X203557579Y-71447991D01*
X203499083Y-71589214D01*
X203499081Y-71589217D01*
X203414161Y-71716309D01*
X203306069Y-71824401D01*
X203224851Y-71878669D01*
X203178974Y-71909323D01*
X203128672Y-71930159D01*
X203107064Y-71941708D01*
X203088122Y-71957254D01*
X203072577Y-71976196D01*
X203061026Y-71997806D01*
X203053913Y-72021255D01*
X203051511Y-72045641D01*
X203053913Y-72070027D01*
X203061026Y-72093476D01*
X203072577Y-72115087D01*
X203088123Y-72134029D01*
X203107065Y-72149574D01*
X203128675Y-72161125D01*
X203152124Y-72168238D01*
X203176510Y-72170640D01*
X203537400Y-72170640D01*
X203537400Y-75272640D01*
X203176510Y-75272640D01*
X203152124Y-75275042D01*
X203128675Y-75282155D01*
X203107064Y-75293706D01*
X203088122Y-75309251D01*
X203072577Y-75328193D01*
X203061026Y-75349804D01*
X203053913Y-75373253D01*
X203051511Y-75397639D01*
X203053913Y-75422025D01*
X203061026Y-75445474D01*
X203072577Y-75467085D01*
X203088122Y-75486027D01*
X203107064Y-75501572D01*
X203128672Y-75513121D01*
X203178974Y-75533957D01*
X203204175Y-75550796D01*
X203306069Y-75618879D01*
X203414161Y-75726971D01*
X203491393Y-75842557D01*
X203499083Y-75854066D01*
X203541718Y-75956997D01*
X203557580Y-75995292D01*
X203587400Y-76145209D01*
X203587400Y-76298071D01*
X203558181Y-76444968D01*
X203557579Y-76447991D01*
X203499083Y-76589214D01*
X203499081Y-76589217D01*
X203414161Y-76716309D01*
X203306069Y-76824401D01*
X203178977Y-76909321D01*
X203178974Y-76909323D01*
X203037751Y-76967819D01*
X203037750Y-76967819D01*
X203037748Y-76967820D01*
X202887831Y-76997640D01*
X202734969Y-76997640D01*
X202585052Y-76967820D01*
X202585050Y-76967819D01*
X202585049Y-76967819D01*
X202443826Y-76909323D01*
X202443823Y-76909321D01*
X202316731Y-76824401D01*
X202208639Y-76716309D01*
X202123719Y-76589217D01*
X202123717Y-76589214D01*
X202065221Y-76447991D01*
X202064620Y-76444968D01*
X202035400Y-76298071D01*
X202035400Y-76145209D01*
X202065220Y-75995292D01*
X202081082Y-75956997D01*
X202123717Y-75854066D01*
X202131407Y-75842557D01*
X202208639Y-75726971D01*
X202316731Y-75618879D01*
X202418625Y-75550796D01*
X202443826Y-75533957D01*
X202494128Y-75513121D01*
X202515736Y-75501572D01*
X202534678Y-75486026D01*
X202550223Y-75467084D01*
X202561774Y-75445474D01*
X202568887Y-75422025D01*
X202571289Y-75397639D01*
X202568887Y-75373253D01*
X202561774Y-75349804D01*
X202550223Y-75328193D01*
X202534677Y-75309251D01*
X202515735Y-75293706D01*
X202494125Y-75282155D01*
X202470676Y-75275042D01*
X202446290Y-75272640D01*
X202085400Y-75272640D01*
X202085400Y-72170640D01*
X202446290Y-72170640D01*
X202470676Y-72168238D01*
X202494125Y-72161125D01*
X202515736Y-72149574D01*
X202534678Y-72134029D01*
X202550223Y-72115087D01*
X202561774Y-72093476D01*
X202568887Y-72070027D01*
X202571289Y-72045641D01*
X202568887Y-72021255D01*
X202561774Y-71997806D01*
X202550223Y-71976195D01*
X202534678Y-71957253D01*
X202515736Y-71941708D01*
X202494128Y-71930159D01*
X202443826Y-71909323D01*
X202397949Y-71878669D01*
X202316731Y-71824401D01*
X202208639Y-71716309D01*
X202123719Y-71589217D01*
X202123717Y-71589214D01*
X202065221Y-71447991D01*
X202064522Y-71444476D01*
X202035400Y-71298071D01*
X202035400Y-71145209D01*
X202065220Y-70995292D01*
X202094750Y-70924000D01*
X202123717Y-70854066D01*
X202141210Y-70827886D01*
X202208639Y-70726971D01*
X202316731Y-70618879D01*
X202443823Y-70533959D01*
X202443826Y-70533957D01*
X202585049Y-70475461D01*
X202585050Y-70475461D01*
X202585052Y-70475460D01*
X202734969Y-70445640D01*
X202887831Y-70445640D01*
X203037748Y-70475460D01*
G37*
G36*
X168622978Y-76306156D02*
G01*
X168643597Y-76312411D01*
X168662593Y-76322564D01*
X168679248Y-76336232D01*
X168692916Y-76352887D01*
X168703069Y-76371883D01*
X168709324Y-76392502D01*
X168712040Y-76420080D01*
X168712040Y-76878800D01*
X168709324Y-76906378D01*
X168703069Y-76926997D01*
X168692916Y-76945993D01*
X168679248Y-76962648D01*
X168662593Y-76976316D01*
X168643597Y-76986469D01*
X168622978Y-76992724D01*
X168595400Y-76995440D01*
X168086680Y-76995440D01*
X168059102Y-76992724D01*
X168038483Y-76986469D01*
X168019487Y-76976316D01*
X168002832Y-76962648D01*
X167989164Y-76945993D01*
X167979011Y-76926997D01*
X167972756Y-76906378D01*
X167970040Y-76878800D01*
X167970040Y-76420080D01*
X167972756Y-76392502D01*
X167979011Y-76371883D01*
X167989164Y-76352887D01*
X168002832Y-76336232D01*
X168019487Y-76322564D01*
X168038483Y-76312411D01*
X168059102Y-76306156D01*
X168086680Y-76303440D01*
X168595400Y-76303440D01*
X168622978Y-76306156D01*
G37*
G36*
X179859938Y-76191716D02*
G01*
X179880557Y-76197971D01*
X179899553Y-76208124D01*
X179916208Y-76221792D01*
X179929876Y-76238447D01*
X179940029Y-76257443D01*
X179946284Y-76278062D01*
X179949000Y-76305640D01*
X179949000Y-76764360D01*
X179946284Y-76791938D01*
X179940029Y-76812557D01*
X179929876Y-76831553D01*
X179916208Y-76848208D01*
X179899553Y-76861876D01*
X179880557Y-76872029D01*
X179859938Y-76878284D01*
X179832360Y-76881000D01*
X179323640Y-76881000D01*
X179296062Y-76878284D01*
X179275443Y-76872029D01*
X179256447Y-76861876D01*
X179239792Y-76848208D01*
X179226124Y-76831553D01*
X179215971Y-76812557D01*
X179209716Y-76791938D01*
X179207000Y-76764360D01*
X179207000Y-76305640D01*
X179209716Y-76278062D01*
X179215971Y-76257443D01*
X179226124Y-76238447D01*
X179239792Y-76221792D01*
X179256447Y-76208124D01*
X179275443Y-76197971D01*
X179296062Y-76191716D01*
X179323640Y-76189000D01*
X179832360Y-76189000D01*
X179859938Y-76191716D01*
G37*
G36*
X175453438Y-76123816D02*
G01*
X175474057Y-76130071D01*
X175493053Y-76140224D01*
X175509708Y-76153892D01*
X175523376Y-76170547D01*
X175533529Y-76189543D01*
X175539784Y-76210162D01*
X175542500Y-76237740D01*
X175542500Y-76746460D01*
X175539784Y-76774038D01*
X175533529Y-76794657D01*
X175523376Y-76813653D01*
X175509708Y-76830308D01*
X175493053Y-76843976D01*
X175474057Y-76854129D01*
X175453438Y-76860384D01*
X175425860Y-76863100D01*
X174967140Y-76863100D01*
X174939562Y-76860384D01*
X174918943Y-76854129D01*
X174899947Y-76843976D01*
X174883292Y-76830308D01*
X174869624Y-76813653D01*
X174859471Y-76794657D01*
X174853216Y-76774038D01*
X174850500Y-76746460D01*
X174850500Y-76237740D01*
X174853216Y-76210162D01*
X174859471Y-76189543D01*
X174869624Y-76170547D01*
X174883292Y-76153892D01*
X174899947Y-76140224D01*
X174918943Y-76130071D01*
X174939562Y-76123816D01*
X174967140Y-76121100D01*
X175425860Y-76121100D01*
X175453438Y-76123816D01*
G37*
G36*
X174483438Y-76123816D02*
G01*
X174504057Y-76130071D01*
X174523053Y-76140224D01*
X174539708Y-76153892D01*
X174553376Y-76170547D01*
X174563529Y-76189543D01*
X174569784Y-76210162D01*
X174572500Y-76237740D01*
X174572500Y-76746460D01*
X174569784Y-76774038D01*
X174563529Y-76794657D01*
X174553376Y-76813653D01*
X174539708Y-76830308D01*
X174523053Y-76843976D01*
X174504057Y-76854129D01*
X174483438Y-76860384D01*
X174455860Y-76863100D01*
X173997140Y-76863100D01*
X173969562Y-76860384D01*
X173948943Y-76854129D01*
X173929947Y-76843976D01*
X173913292Y-76830308D01*
X173899624Y-76813653D01*
X173889471Y-76794657D01*
X173883216Y-76774038D01*
X173880500Y-76746460D01*
X173880500Y-76237740D01*
X173883216Y-76210162D01*
X173889471Y-76189543D01*
X173899624Y-76170547D01*
X173913292Y-76153892D01*
X173929947Y-76140224D01*
X173948943Y-76130071D01*
X173969562Y-76123816D01*
X173997140Y-76121100D01*
X174455860Y-76121100D01*
X174483438Y-76123816D01*
G37*
G36*
X178130468Y-75539065D02*
G01*
X178169138Y-75550796D01*
X178204777Y-75569846D01*
X178236017Y-75595483D01*
X178261654Y-75626723D01*
X178280704Y-75662362D01*
X178292435Y-75701032D01*
X178297000Y-75747388D01*
X178297000Y-76398612D01*
X178292435Y-76444968D01*
X178280704Y-76483638D01*
X178261654Y-76519277D01*
X178236017Y-76550517D01*
X178204777Y-76576154D01*
X178169138Y-76595204D01*
X178130468Y-76606935D01*
X178084112Y-76611500D01*
X177007888Y-76611500D01*
X176961532Y-76606935D01*
X176922862Y-76595204D01*
X176887223Y-76576154D01*
X176855983Y-76550517D01*
X176830346Y-76519277D01*
X176811296Y-76483638D01*
X176799565Y-76444968D01*
X176795000Y-76398612D01*
X176795000Y-75747388D01*
X176799565Y-75701032D01*
X176811296Y-75662362D01*
X176830346Y-75626723D01*
X176855983Y-75595483D01*
X176887223Y-75569846D01*
X176922862Y-75550796D01*
X176961532Y-75539065D01*
X177007888Y-75534500D01*
X178084112Y-75534500D01*
X178130468Y-75539065D01*
G37*
G36*
X168622978Y-75336156D02*
G01*
X168643597Y-75342411D01*
X168662593Y-75352564D01*
X168679248Y-75366232D01*
X168692916Y-75382887D01*
X168703069Y-75401883D01*
X168709324Y-75422502D01*
X168712040Y-75450080D01*
X168712040Y-75908800D01*
X168709324Y-75936378D01*
X168703069Y-75956997D01*
X168692916Y-75975993D01*
X168679248Y-75992648D01*
X168662593Y-76006316D01*
X168643597Y-76016469D01*
X168622978Y-76022724D01*
X168595400Y-76025440D01*
X168086680Y-76025440D01*
X168059102Y-76022724D01*
X168038483Y-76016469D01*
X168019487Y-76006316D01*
X168002832Y-75992648D01*
X167989164Y-75975993D01*
X167979011Y-75956997D01*
X167972756Y-75936378D01*
X167970040Y-75908800D01*
X167970040Y-75450080D01*
X167972756Y-75422502D01*
X167979011Y-75401883D01*
X167989164Y-75382887D01*
X168002832Y-75366232D01*
X168019487Y-75352564D01*
X168038483Y-75342411D01*
X168059102Y-75336156D01*
X168086680Y-75333440D01*
X168595400Y-75333440D01*
X168622978Y-75336156D01*
G37*
G36*
X179859938Y-75221716D02*
G01*
X179880557Y-75227971D01*
X179899553Y-75238124D01*
X179916208Y-75251792D01*
X179929876Y-75268447D01*
X179940029Y-75287443D01*
X179946284Y-75308062D01*
X179949000Y-75335640D01*
X179949000Y-75794360D01*
X179946284Y-75821938D01*
X179940029Y-75842557D01*
X179929876Y-75861553D01*
X179916208Y-75878208D01*
X179899553Y-75891876D01*
X179880557Y-75902029D01*
X179859938Y-75908284D01*
X179832360Y-75911000D01*
X179323640Y-75911000D01*
X179296062Y-75908284D01*
X179275443Y-75902029D01*
X179256447Y-75891876D01*
X179239792Y-75878208D01*
X179226124Y-75861553D01*
X179215971Y-75842557D01*
X179209716Y-75821938D01*
X179207000Y-75794360D01*
X179207000Y-75335640D01*
X179209716Y-75308062D01*
X179215971Y-75287443D01*
X179226124Y-75268447D01*
X179239792Y-75251792D01*
X179256447Y-75238124D01*
X179275443Y-75227971D01*
X179296062Y-75221716D01*
X179323640Y-75219000D01*
X179832360Y-75219000D01*
X179859938Y-75221716D01*
G37*
G36*
X165164040Y-75745440D02*
G01*
X163562040Y-75745440D01*
X163562040Y-74043440D01*
X165164040Y-74043440D01*
X165164040Y-75745440D01*
G37*
G36*
X167364040Y-75745440D02*
G01*
X165762040Y-75745440D01*
X165762040Y-74043440D01*
X167364040Y-74043440D01*
X167364040Y-75745440D01*
G37*
G36*
X206512400Y-75522640D02*
G01*
X204510400Y-75522640D01*
X204510400Y-73920640D01*
X206512400Y-73920640D01*
X206512400Y-75522640D01*
G37*
G36*
X175455578Y-74794716D02*
G01*
X175476197Y-74800971D01*
X175495193Y-74811124D01*
X175511848Y-74824792D01*
X175525516Y-74841447D01*
X175535669Y-74860443D01*
X175541924Y-74881062D01*
X175544640Y-74908640D01*
X175544640Y-75367360D01*
X175541924Y-75394938D01*
X175535669Y-75415557D01*
X175525516Y-75434553D01*
X175511848Y-75451208D01*
X175495193Y-75464876D01*
X175476197Y-75475029D01*
X175455578Y-75481284D01*
X175428000Y-75484000D01*
X174919280Y-75484000D01*
X174891702Y-75481284D01*
X174871083Y-75475029D01*
X174852087Y-75464876D01*
X174835432Y-75451208D01*
X174821764Y-75434553D01*
X174811611Y-75415557D01*
X174805356Y-75394938D01*
X174802640Y-75367360D01*
X174802640Y-74908640D01*
X174805356Y-74881062D01*
X174811611Y-74860443D01*
X174821764Y-74841447D01*
X174835432Y-74824792D01*
X174852087Y-74811124D01*
X174871083Y-74800971D01*
X174891702Y-74794716D01*
X174919280Y-74792000D01*
X175428000Y-74792000D01*
X175455578Y-74794716D01*
G37*
G36*
X174160178Y-74794716D02*
G01*
X174180797Y-74800971D01*
X174199793Y-74811124D01*
X174216448Y-74824792D01*
X174230116Y-74841447D01*
X174240269Y-74860443D01*
X174246524Y-74881062D01*
X174249240Y-74908640D01*
X174249240Y-75367360D01*
X174246524Y-75394938D01*
X174240269Y-75415557D01*
X174230116Y-75434553D01*
X174216448Y-75451208D01*
X174199793Y-75464876D01*
X174180797Y-75475029D01*
X174160178Y-75481284D01*
X174132600Y-75484000D01*
X173623880Y-75484000D01*
X173596302Y-75481284D01*
X173575683Y-75475029D01*
X173556687Y-75464876D01*
X173540032Y-75451208D01*
X173526364Y-75434553D01*
X173516211Y-75415557D01*
X173509956Y-75394938D01*
X173507240Y-75367360D01*
X173507240Y-74908640D01*
X173509956Y-74881062D01*
X173516211Y-74860443D01*
X173526364Y-74841447D01*
X173540032Y-74824792D01*
X173556687Y-74811124D01*
X173575683Y-74800971D01*
X173596302Y-74794716D01*
X173623880Y-74792000D01*
X174132600Y-74792000D01*
X174160178Y-74794716D01*
G37*
G36*
X179430938Y-73799716D02*
G01*
X179451557Y-73805971D01*
X179470553Y-73816124D01*
X179487208Y-73829792D01*
X179500876Y-73846447D01*
X179511029Y-73865443D01*
X179517284Y-73886062D01*
X179520000Y-73913640D01*
X179520000Y-74422360D01*
X179517284Y-74449938D01*
X179511029Y-74470557D01*
X179500876Y-74489553D01*
X179487208Y-74506208D01*
X179470553Y-74519876D01*
X179451557Y-74530029D01*
X179430938Y-74536284D01*
X179403360Y-74539000D01*
X178944640Y-74539000D01*
X178917062Y-74536284D01*
X178896443Y-74530029D01*
X178877447Y-74519876D01*
X178860792Y-74506208D01*
X178847124Y-74489553D01*
X178836971Y-74470557D01*
X178830716Y-74449938D01*
X178828000Y-74422360D01*
X178828000Y-73913640D01*
X178830716Y-73886062D01*
X178836971Y-73865443D01*
X178847124Y-73846447D01*
X178860792Y-73829792D01*
X178877447Y-73816124D01*
X178896443Y-73805971D01*
X178917062Y-73799716D01*
X178944640Y-73797000D01*
X179403360Y-73797000D01*
X179430938Y-73799716D01*
G37*
G36*
X178460938Y-73799716D02*
G01*
X178481557Y-73805971D01*
X178500553Y-73816124D01*
X178517208Y-73829792D01*
X178530876Y-73846447D01*
X178541029Y-73865443D01*
X178547284Y-73886062D01*
X178550000Y-73913640D01*
X178550000Y-74422360D01*
X178547284Y-74449938D01*
X178541029Y-74470557D01*
X178530876Y-74489553D01*
X178517208Y-74506208D01*
X178500553Y-74519876D01*
X178481557Y-74530029D01*
X178460938Y-74536284D01*
X178433360Y-74539000D01*
X177974640Y-74539000D01*
X177947062Y-74536284D01*
X177926443Y-74530029D01*
X177907447Y-74519876D01*
X177890792Y-74506208D01*
X177877124Y-74489553D01*
X177866971Y-74470557D01*
X177860716Y-74449938D01*
X177858000Y-74422360D01*
X177858000Y-73913640D01*
X177860716Y-73886062D01*
X177866971Y-73865443D01*
X177877124Y-73846447D01*
X177890792Y-73829792D01*
X177907447Y-73816124D01*
X177926443Y-73805971D01*
X177947062Y-73799716D01*
X177974640Y-73797000D01*
X178433360Y-73797000D01*
X178460938Y-73799716D01*
G37*
G36*
X175455578Y-73824716D02*
G01*
X175476197Y-73830971D01*
X175495193Y-73841124D01*
X175511848Y-73854792D01*
X175525516Y-73871447D01*
X175535669Y-73890443D01*
X175541924Y-73911062D01*
X175544640Y-73938640D01*
X175544640Y-74397360D01*
X175541924Y-74424938D01*
X175535669Y-74445557D01*
X175525516Y-74464553D01*
X175511848Y-74481208D01*
X175495193Y-74494876D01*
X175476197Y-74505029D01*
X175455578Y-74511284D01*
X175428000Y-74514000D01*
X174919280Y-74514000D01*
X174891702Y-74511284D01*
X174871083Y-74505029D01*
X174852087Y-74494876D01*
X174835432Y-74481208D01*
X174821764Y-74464553D01*
X174811611Y-74445557D01*
X174805356Y-74424938D01*
X174802640Y-74397360D01*
X174802640Y-73938640D01*
X174805356Y-73911062D01*
X174811611Y-73890443D01*
X174821764Y-73871447D01*
X174835432Y-73854792D01*
X174852087Y-73841124D01*
X174871083Y-73830971D01*
X174891702Y-73824716D01*
X174919280Y-73822000D01*
X175428000Y-73822000D01*
X175455578Y-73824716D01*
G37*
G36*
X174160178Y-73824716D02*
G01*
X174180797Y-73830971D01*
X174199793Y-73841124D01*
X174216448Y-73854792D01*
X174230116Y-73871447D01*
X174240269Y-73890443D01*
X174246524Y-73911062D01*
X174249240Y-73938640D01*
X174249240Y-74397360D01*
X174246524Y-74424938D01*
X174240269Y-74445557D01*
X174230116Y-74464553D01*
X174216448Y-74481208D01*
X174199793Y-74494876D01*
X174180797Y-74505029D01*
X174160178Y-74511284D01*
X174132600Y-74514000D01*
X173623880Y-74514000D01*
X173596302Y-74511284D01*
X173575683Y-74505029D01*
X173556687Y-74494876D01*
X173540032Y-74481208D01*
X173526364Y-74464553D01*
X173516211Y-74445557D01*
X173509956Y-74424938D01*
X173507240Y-74397360D01*
X173507240Y-73938640D01*
X173509956Y-73911062D01*
X173516211Y-73890443D01*
X173526364Y-73871447D01*
X173540032Y-73854792D01*
X173556687Y-73841124D01*
X173575683Y-73830971D01*
X173596302Y-73824716D01*
X173623880Y-73822000D01*
X174132600Y-73822000D01*
X174160178Y-73824716D01*
G37*
G36*
X147932268Y-69887796D02*
G01*
X148119144Y-69924968D01*
X148189233Y-69954000D01*
X148475112Y-70072415D01*
X148531544Y-70110122D01*
X148795477Y-70286476D01*
X149067924Y-70558923D01*
X149199036Y-70755147D01*
X149281985Y-70879288D01*
X149300505Y-70924000D01*
X149429432Y-71235256D01*
X149453039Y-71353938D01*
X149504600Y-71613149D01*
X149504600Y-71998451D01*
X149466846Y-72188251D01*
X149429432Y-72376344D01*
X149368357Y-72523791D01*
X149281985Y-72732312D01*
X149219719Y-72825500D01*
X149067924Y-73052677D01*
X148795477Y-73325124D01*
X148677664Y-73403844D01*
X148475112Y-73539185D01*
X148303997Y-73610063D01*
X148119144Y-73686632D01*
X147993179Y-73711688D01*
X147741251Y-73761800D01*
X147355949Y-73761800D01*
X147104021Y-73711688D01*
X146978056Y-73686632D01*
X146793203Y-73610063D01*
X146622088Y-73539185D01*
X146419536Y-73403844D01*
X146301723Y-73325124D01*
X146029276Y-73052677D01*
X145877481Y-72825500D01*
X145815215Y-72732312D01*
X145728843Y-72523791D01*
X145667768Y-72376344D01*
X145630354Y-72188251D01*
X145592600Y-71998451D01*
X145592600Y-71613149D01*
X145644161Y-71353938D01*
X145667768Y-71235256D01*
X145796695Y-70924000D01*
X145815215Y-70879288D01*
X145898164Y-70755147D01*
X146029276Y-70558923D01*
X146301723Y-70286476D01*
X146565656Y-70110122D01*
X146622088Y-70072415D01*
X146907967Y-69954000D01*
X146978056Y-69924968D01*
X147164932Y-69887796D01*
X147355949Y-69849800D01*
X147741251Y-69849800D01*
X147932268Y-69887796D01*
G37*
G36*
X154282268Y-69887796D02*
G01*
X154469144Y-69924968D01*
X154539233Y-69954000D01*
X154825112Y-70072415D01*
X154881544Y-70110122D01*
X155145477Y-70286476D01*
X155417924Y-70558923D01*
X155549036Y-70755147D01*
X155631985Y-70879288D01*
X155650505Y-70924000D01*
X155779432Y-71235256D01*
X155803039Y-71353938D01*
X155854600Y-71613149D01*
X155854600Y-71998451D01*
X155816846Y-72188251D01*
X155779432Y-72376344D01*
X155718357Y-72523791D01*
X155631985Y-72732312D01*
X155569719Y-72825500D01*
X155417924Y-73052677D01*
X155145477Y-73325124D01*
X155027664Y-73403844D01*
X154825112Y-73539185D01*
X154653997Y-73610063D01*
X154469144Y-73686632D01*
X154343179Y-73711688D01*
X154091251Y-73761800D01*
X153705949Y-73761800D01*
X153454021Y-73711688D01*
X153328056Y-73686632D01*
X153143203Y-73610063D01*
X152972088Y-73539185D01*
X152769536Y-73403844D01*
X152651723Y-73325124D01*
X152379276Y-73052677D01*
X152227481Y-72825500D01*
X152165215Y-72732312D01*
X152078843Y-72523791D01*
X152017768Y-72376344D01*
X151980354Y-72188251D01*
X151942600Y-71998451D01*
X151942600Y-71613149D01*
X151994161Y-71353938D01*
X152017768Y-71235256D01*
X152146695Y-70924000D01*
X152165215Y-70879288D01*
X152248164Y-70755147D01*
X152379276Y-70558923D01*
X152651723Y-70286476D01*
X152915656Y-70110122D01*
X152972088Y-70072415D01*
X153257967Y-69954000D01*
X153328056Y-69924968D01*
X153514932Y-69887796D01*
X153705949Y-69849800D01*
X154091251Y-69849800D01*
X154282268Y-69887796D01*
G37*
G36*
X206512400Y-73522640D02*
G01*
X204510400Y-73522640D01*
X204510400Y-71920640D01*
X206512400Y-71920640D01*
X206512400Y-73522640D01*
G37*
G36*
X174160178Y-72717276D02*
G01*
X174180797Y-72723531D01*
X174199793Y-72733684D01*
X174216448Y-72747352D01*
X174230116Y-72764007D01*
X174240269Y-72783003D01*
X174246524Y-72803622D01*
X174249240Y-72831200D01*
X174249240Y-73289920D01*
X174246524Y-73317498D01*
X174240269Y-73338117D01*
X174230116Y-73357113D01*
X174216448Y-73373768D01*
X174199793Y-73387436D01*
X174180797Y-73397589D01*
X174160178Y-73403844D01*
X174132600Y-73406560D01*
X173623880Y-73406560D01*
X173596302Y-73403844D01*
X173575683Y-73397589D01*
X173556687Y-73387436D01*
X173540032Y-73373768D01*
X173526364Y-73357113D01*
X173516211Y-73338117D01*
X173509956Y-73317498D01*
X173507240Y-73289920D01*
X173507240Y-72831200D01*
X173509956Y-72803622D01*
X173516211Y-72783003D01*
X173526364Y-72764007D01*
X173540032Y-72747352D01*
X173556687Y-72733684D01*
X173575683Y-72723531D01*
X173596302Y-72717276D01*
X173623880Y-72714560D01*
X174132600Y-72714560D01*
X174160178Y-72717276D01*
G37*
G36*
X179646000Y-73245000D02*
G01*
X178494000Y-73245000D01*
X178494000Y-72043000D01*
X179646000Y-72043000D01*
X179646000Y-73245000D01*
G37*
G36*
X177796000Y-73245000D02*
G01*
X176644000Y-73245000D01*
X176644000Y-72043000D01*
X177796000Y-72043000D01*
X177796000Y-73245000D01*
G37*
G36*
X174160178Y-71747276D02*
G01*
X174180797Y-71753531D01*
X174199793Y-71763684D01*
X174216448Y-71777352D01*
X174230116Y-71794007D01*
X174240269Y-71813003D01*
X174246524Y-71833622D01*
X174249240Y-71861200D01*
X174249240Y-72319920D01*
X174246524Y-72347498D01*
X174240269Y-72368117D01*
X174230116Y-72387113D01*
X174216448Y-72403768D01*
X174199793Y-72417436D01*
X174180797Y-72427589D01*
X174160178Y-72433844D01*
X174132600Y-72436560D01*
X173623880Y-72436560D01*
X173596302Y-72433844D01*
X173575683Y-72427589D01*
X173556687Y-72417436D01*
X173540032Y-72403768D01*
X173526364Y-72387113D01*
X173516211Y-72368117D01*
X173509956Y-72347498D01*
X173507240Y-72319920D01*
X173507240Y-71861200D01*
X173509956Y-71833622D01*
X173516211Y-71813003D01*
X173526364Y-71794007D01*
X173540032Y-71777352D01*
X173556687Y-71763684D01*
X173575683Y-71753531D01*
X173596302Y-71747276D01*
X173623880Y-71744560D01*
X174132600Y-71744560D01*
X174160178Y-71747276D01*
G37*
G36*
X191874138Y-71744316D02*
G01*
X191894757Y-71750571D01*
X191913753Y-71760724D01*
X191930408Y-71774392D01*
X191944076Y-71791047D01*
X191954229Y-71810043D01*
X191960484Y-71830662D01*
X191963200Y-71858240D01*
X191963200Y-72316960D01*
X191960484Y-72344538D01*
X191954229Y-72365157D01*
X191944076Y-72384153D01*
X191930408Y-72400808D01*
X191913753Y-72414476D01*
X191894757Y-72424629D01*
X191874138Y-72430884D01*
X191846560Y-72433600D01*
X191337840Y-72433600D01*
X191310262Y-72430884D01*
X191289643Y-72424629D01*
X191270647Y-72414476D01*
X191253992Y-72400808D01*
X191240324Y-72384153D01*
X191230171Y-72365157D01*
X191223916Y-72344538D01*
X191221200Y-72316960D01*
X191221200Y-71858240D01*
X191223916Y-71830662D01*
X191230171Y-71810043D01*
X191240324Y-71791047D01*
X191253992Y-71774392D01*
X191270647Y-71760724D01*
X191289643Y-71750571D01*
X191310262Y-71744316D01*
X191337840Y-71741600D01*
X191846560Y-71741600D01*
X191874138Y-71744316D01*
G37*
G36*
X196230238Y-71678416D02*
G01*
X196250857Y-71684671D01*
X196269853Y-71694824D01*
X196286508Y-71708492D01*
X196300176Y-71725147D01*
X196310329Y-71744143D01*
X196316584Y-71764762D01*
X196319300Y-71792340D01*
X196319300Y-72251060D01*
X196316584Y-72278638D01*
X196310329Y-72299257D01*
X196300176Y-72318253D01*
X196286508Y-72334908D01*
X196269853Y-72348576D01*
X196250857Y-72358729D01*
X196230238Y-72364984D01*
X196202660Y-72367700D01*
X195693940Y-72367700D01*
X195666362Y-72364984D01*
X195645743Y-72358729D01*
X195626747Y-72348576D01*
X195610092Y-72334908D01*
X195596424Y-72318253D01*
X195586271Y-72299257D01*
X195580016Y-72278638D01*
X195577300Y-72251060D01*
X195577300Y-71792340D01*
X195580016Y-71764762D01*
X195586271Y-71744143D01*
X195596424Y-71725147D01*
X195610092Y-71708492D01*
X195626747Y-71694824D01*
X195645743Y-71684671D01*
X195666362Y-71678416D01*
X195693940Y-71675700D01*
X196202660Y-71675700D01*
X196230238Y-71678416D01*
G37*
G36*
X193941968Y-71231465D02*
G01*
X193980638Y-71243196D01*
X194016277Y-71262246D01*
X194047517Y-71287883D01*
X194073154Y-71319123D01*
X194092204Y-71354762D01*
X194103935Y-71393432D01*
X194108500Y-71439788D01*
X194108500Y-72091012D01*
X194103935Y-72137368D01*
X194092204Y-72176038D01*
X194073154Y-72211677D01*
X194047517Y-72242917D01*
X194016277Y-72268554D01*
X193980638Y-72287604D01*
X193941968Y-72299335D01*
X193895612Y-72303900D01*
X192819388Y-72303900D01*
X192773032Y-72299335D01*
X192734362Y-72287604D01*
X192698723Y-72268554D01*
X192667483Y-72242917D01*
X192641846Y-72211677D01*
X192622796Y-72176038D01*
X192611065Y-72137368D01*
X192606500Y-72091012D01*
X192606500Y-71439788D01*
X192611065Y-71393432D01*
X192622796Y-71354762D01*
X192641846Y-71319123D01*
X192667483Y-71287883D01*
X192698723Y-71262246D01*
X192734362Y-71243196D01*
X192773032Y-71231465D01*
X192819388Y-71226900D01*
X193895612Y-71226900D01*
X193941968Y-71231465D01*
G37*
G36*
X198681338Y-71198356D02*
G01*
X198701957Y-71204611D01*
X198720953Y-71214764D01*
X198737608Y-71228432D01*
X198751276Y-71245087D01*
X198761429Y-71264083D01*
X198767684Y-71284702D01*
X198770400Y-71312280D01*
X198770400Y-71771000D01*
X198767684Y-71798578D01*
X198761429Y-71819197D01*
X198751276Y-71838193D01*
X198737608Y-71854848D01*
X198720953Y-71868516D01*
X198701957Y-71878669D01*
X198681338Y-71884924D01*
X198653760Y-71887640D01*
X198145040Y-71887640D01*
X198117462Y-71884924D01*
X198096843Y-71878669D01*
X198077847Y-71868516D01*
X198061192Y-71854848D01*
X198047524Y-71838193D01*
X198037371Y-71819197D01*
X198031116Y-71798578D01*
X198028400Y-71771000D01*
X198028400Y-71312280D01*
X198031116Y-71284702D01*
X198037371Y-71264083D01*
X198047524Y-71245087D01*
X198061192Y-71228432D01*
X198077847Y-71214764D01*
X198096843Y-71204611D01*
X198117462Y-71198356D01*
X198145040Y-71195640D01*
X198653760Y-71195640D01*
X198681338Y-71198356D01*
G37*
G36*
X200332338Y-71175356D02*
G01*
X200352957Y-71181611D01*
X200371953Y-71191764D01*
X200388608Y-71205432D01*
X200402276Y-71222087D01*
X200412429Y-71241083D01*
X200418684Y-71261702D01*
X200421400Y-71289280D01*
X200421400Y-71748000D01*
X200418684Y-71775578D01*
X200412429Y-71796197D01*
X200402276Y-71815193D01*
X200388608Y-71831848D01*
X200371953Y-71845516D01*
X200352957Y-71855669D01*
X200332338Y-71861924D01*
X200304760Y-71864640D01*
X199796040Y-71864640D01*
X199768462Y-71861924D01*
X199747843Y-71855669D01*
X199728847Y-71845516D01*
X199712192Y-71831848D01*
X199698524Y-71815193D01*
X199688371Y-71796197D01*
X199682116Y-71775578D01*
X199679400Y-71748000D01*
X199679400Y-71289280D01*
X199682116Y-71261702D01*
X199688371Y-71241083D01*
X199698524Y-71222087D01*
X199712192Y-71205432D01*
X199728847Y-71191764D01*
X199747843Y-71181611D01*
X199768462Y-71175356D01*
X199796040Y-71172640D01*
X200304760Y-71172640D01*
X200332338Y-71175356D01*
G37*
G36*
X205925255Y-69573780D02*
G01*
X205989018Y-69580060D01*
X206079804Y-69607600D01*
X206111736Y-69617286D01*
X206224825Y-69677734D01*
X206323954Y-69759086D01*
X206405306Y-69858215D01*
X206465754Y-69971304D01*
X206465755Y-69971308D01*
X206499313Y-70081932D01*
X206508687Y-70104565D01*
X206512400Y-70110122D01*
X206512400Y-70183526D01*
X206513002Y-70195778D01*
X206515549Y-70221640D01*
X206513002Y-70247502D01*
X206512400Y-70259754D01*
X206512400Y-71472640D01*
X204510400Y-71472640D01*
X204510400Y-70259754D01*
X204509798Y-70247502D01*
X204507251Y-70221640D01*
X204509798Y-70195778D01*
X204510400Y-70183526D01*
X204510400Y-70110234D01*
X204519357Y-70093476D01*
X204523485Y-70081939D01*
X204557045Y-69971308D01*
X204557046Y-69971304D01*
X204617494Y-69858215D01*
X204698846Y-69759086D01*
X204797975Y-69677734D01*
X204911064Y-69617286D01*
X204942996Y-69607600D01*
X205033782Y-69580060D01*
X205097545Y-69573780D01*
X205129426Y-69570640D01*
X205893374Y-69570640D01*
X205925255Y-69573780D01*
G37*
G36*
X191874138Y-70774316D02*
G01*
X191894757Y-70780571D01*
X191913753Y-70790724D01*
X191930408Y-70804392D01*
X191944076Y-70821047D01*
X191954229Y-70840043D01*
X191960484Y-70860662D01*
X191963200Y-70888240D01*
X191963200Y-71346960D01*
X191960484Y-71374538D01*
X191954229Y-71395157D01*
X191944076Y-71414153D01*
X191930408Y-71430808D01*
X191913753Y-71444476D01*
X191894757Y-71454629D01*
X191874138Y-71460884D01*
X191846560Y-71463600D01*
X191337840Y-71463600D01*
X191310262Y-71460884D01*
X191289643Y-71454629D01*
X191270647Y-71444476D01*
X191253992Y-71430808D01*
X191240324Y-71414153D01*
X191230171Y-71395157D01*
X191223916Y-71374538D01*
X191221200Y-71346960D01*
X191221200Y-70888240D01*
X191223916Y-70860662D01*
X191230171Y-70840043D01*
X191240324Y-70821047D01*
X191253992Y-70804392D01*
X191270647Y-70790724D01*
X191289643Y-70780571D01*
X191310262Y-70774316D01*
X191337840Y-70771600D01*
X191846560Y-70771600D01*
X191874138Y-70774316D01*
G37*
G36*
X179351938Y-70753716D02*
G01*
X179372557Y-70759971D01*
X179391553Y-70770124D01*
X179408208Y-70783792D01*
X179421876Y-70800447D01*
X179432029Y-70819443D01*
X179438284Y-70840062D01*
X179441000Y-70867640D01*
X179441000Y-71326360D01*
X179438284Y-71353938D01*
X179432029Y-71374557D01*
X179421876Y-71393553D01*
X179408208Y-71410208D01*
X179391553Y-71423876D01*
X179372557Y-71434029D01*
X179351938Y-71440284D01*
X179324360Y-71443000D01*
X178815640Y-71443000D01*
X178788062Y-71440284D01*
X178767443Y-71434029D01*
X178748447Y-71423876D01*
X178731792Y-71410208D01*
X178718124Y-71393553D01*
X178707971Y-71374557D01*
X178701716Y-71353938D01*
X178699000Y-71326360D01*
X178699000Y-70867640D01*
X178701716Y-70840062D01*
X178707971Y-70819443D01*
X178718124Y-70800447D01*
X178731792Y-70783792D01*
X178748447Y-70770124D01*
X178767443Y-70759971D01*
X178788062Y-70753716D01*
X178815640Y-70751000D01*
X179324360Y-70751000D01*
X179351938Y-70753716D01*
G37*
G36*
X177446938Y-70753716D02*
G01*
X177467557Y-70759971D01*
X177486553Y-70770124D01*
X177503208Y-70783792D01*
X177516876Y-70800447D01*
X177527029Y-70819443D01*
X177533284Y-70840062D01*
X177536000Y-70867640D01*
X177536000Y-71326360D01*
X177533284Y-71353938D01*
X177527029Y-71374557D01*
X177516876Y-71393553D01*
X177503208Y-71410208D01*
X177486553Y-71423876D01*
X177467557Y-71434029D01*
X177446938Y-71440284D01*
X177419360Y-71443000D01*
X176910640Y-71443000D01*
X176883062Y-71440284D01*
X176862443Y-71434029D01*
X176843447Y-71423876D01*
X176826792Y-71410208D01*
X176813124Y-71393553D01*
X176802971Y-71374557D01*
X176796716Y-71353938D01*
X176794000Y-71326360D01*
X176794000Y-70867640D01*
X176796716Y-70840062D01*
X176802971Y-70819443D01*
X176813124Y-70800447D01*
X176826792Y-70783792D01*
X176843447Y-70770124D01*
X176862443Y-70759971D01*
X176883062Y-70753716D01*
X176910640Y-70751000D01*
X177419360Y-70751000D01*
X177446938Y-70753716D01*
G37*
G36*
X196230238Y-70708416D02*
G01*
X196250857Y-70714671D01*
X196269853Y-70724824D01*
X196286508Y-70738492D01*
X196300176Y-70755147D01*
X196310329Y-70774143D01*
X196316584Y-70794762D01*
X196319300Y-70822340D01*
X196319300Y-71281060D01*
X196316584Y-71308638D01*
X196310329Y-71329257D01*
X196300176Y-71348253D01*
X196286508Y-71364908D01*
X196269853Y-71378576D01*
X196250857Y-71388729D01*
X196230238Y-71394984D01*
X196202660Y-71397700D01*
X195693940Y-71397700D01*
X195666362Y-71394984D01*
X195645743Y-71388729D01*
X195626747Y-71378576D01*
X195610092Y-71364908D01*
X195596424Y-71348253D01*
X195586271Y-71329257D01*
X195580016Y-71308638D01*
X195577300Y-71281060D01*
X195577300Y-70822340D01*
X195580016Y-70794762D01*
X195586271Y-70774143D01*
X195596424Y-70755147D01*
X195610092Y-70738492D01*
X195626747Y-70724824D01*
X195645743Y-70714671D01*
X195666362Y-70708416D01*
X195693940Y-70705700D01*
X196202660Y-70705700D01*
X196230238Y-70708416D01*
G37*
G36*
X182938795Y-69726323D02*
G01*
X182945809Y-69728451D01*
X182959577Y-69735810D01*
X182982216Y-69745187D01*
X183006249Y-69749967D01*
X183030753Y-69749967D01*
X183054786Y-69745186D01*
X183077423Y-69735810D01*
X183091191Y-69728451D01*
X183098205Y-69726323D01*
X183111640Y-69725000D01*
X183425360Y-69725000D01*
X183438795Y-69726323D01*
X183445809Y-69728451D01*
X183459577Y-69735810D01*
X183482216Y-69745187D01*
X183506249Y-69749967D01*
X183530753Y-69749967D01*
X183554786Y-69745186D01*
X183577423Y-69735810D01*
X183591191Y-69728451D01*
X183598205Y-69726323D01*
X183611640Y-69725000D01*
X183925360Y-69725000D01*
X183938795Y-69726323D01*
X183945809Y-69728451D01*
X183959577Y-69735810D01*
X183982216Y-69745187D01*
X184006249Y-69749967D01*
X184030753Y-69749967D01*
X184054786Y-69745186D01*
X184077423Y-69735810D01*
X184091191Y-69728451D01*
X184098205Y-69726323D01*
X184111640Y-69725000D01*
X184425360Y-69725000D01*
X184438795Y-69726323D01*
X184445809Y-69728451D01*
X184459577Y-69735810D01*
X184482216Y-69745187D01*
X184506249Y-69749967D01*
X184530753Y-69749967D01*
X184554786Y-69745186D01*
X184577423Y-69735810D01*
X184591191Y-69728451D01*
X184598205Y-69726323D01*
X184611640Y-69725000D01*
X184925360Y-69725000D01*
X184938795Y-69726323D01*
X184945809Y-69728451D01*
X184959577Y-69735810D01*
X184982216Y-69745187D01*
X185006249Y-69749967D01*
X185030753Y-69749967D01*
X185054786Y-69745186D01*
X185077423Y-69735810D01*
X185091191Y-69728451D01*
X185098205Y-69726323D01*
X185111640Y-69725000D01*
X185425360Y-69725000D01*
X185438795Y-69726323D01*
X185445809Y-69728451D01*
X185459577Y-69735810D01*
X185482216Y-69745187D01*
X185506249Y-69749967D01*
X185530753Y-69749967D01*
X185554786Y-69745186D01*
X185577423Y-69735810D01*
X185591191Y-69728451D01*
X185598205Y-69726323D01*
X185611640Y-69725000D01*
X185925360Y-69725000D01*
X185938795Y-69726323D01*
X185945809Y-69728451D01*
X185959577Y-69735810D01*
X185982216Y-69745187D01*
X186006249Y-69749967D01*
X186030753Y-69749967D01*
X186054786Y-69745186D01*
X186077423Y-69735810D01*
X186091191Y-69728451D01*
X186098205Y-69726323D01*
X186111640Y-69725000D01*
X186425360Y-69725000D01*
X186438795Y-69726323D01*
X186445809Y-69728451D01*
X186459577Y-69735810D01*
X186482216Y-69745187D01*
X186506249Y-69749967D01*
X186530753Y-69749967D01*
X186554786Y-69745186D01*
X186577423Y-69735810D01*
X186591191Y-69728451D01*
X186598205Y-69726323D01*
X186611640Y-69725000D01*
X186925360Y-69725000D01*
X186938795Y-69726323D01*
X186945809Y-69728451D01*
X186959577Y-69735810D01*
X186982216Y-69745187D01*
X187006249Y-69749967D01*
X187030753Y-69749967D01*
X187054786Y-69745186D01*
X187077423Y-69735810D01*
X187091191Y-69728451D01*
X187098205Y-69726323D01*
X187111640Y-69725000D01*
X187425360Y-69725000D01*
X187438795Y-69726323D01*
X187445809Y-69728451D01*
X187459577Y-69735810D01*
X187482216Y-69745187D01*
X187506249Y-69749967D01*
X187530753Y-69749967D01*
X187554786Y-69745186D01*
X187577423Y-69735810D01*
X187591191Y-69728451D01*
X187598205Y-69726323D01*
X187611640Y-69725000D01*
X187925360Y-69725000D01*
X187938795Y-69726323D01*
X187945809Y-69728451D01*
X187959577Y-69735810D01*
X187982216Y-69745187D01*
X188006249Y-69749967D01*
X188030753Y-69749967D01*
X188054786Y-69745186D01*
X188077423Y-69735810D01*
X188091191Y-69728451D01*
X188098205Y-69726323D01*
X188111640Y-69725000D01*
X188425360Y-69725000D01*
X188438795Y-69726323D01*
X188445810Y-69728451D01*
X188452276Y-69731908D01*
X188457942Y-69736558D01*
X188462592Y-69742224D01*
X188466049Y-69748690D01*
X188468177Y-69755705D01*
X188469500Y-69769140D01*
X188469500Y-71257860D01*
X188468177Y-71271295D01*
X188466049Y-71278310D01*
X188462592Y-71284776D01*
X188457942Y-71290442D01*
X188452276Y-71295092D01*
X188445810Y-71298549D01*
X188438795Y-71300677D01*
X188425360Y-71302000D01*
X188111640Y-71302000D01*
X188098205Y-71300677D01*
X188091191Y-71298549D01*
X188077423Y-71291190D01*
X188054784Y-71281813D01*
X188030751Y-71277033D01*
X188006247Y-71277033D01*
X187982214Y-71281814D01*
X187959577Y-71291190D01*
X187945809Y-71298549D01*
X187938795Y-71300677D01*
X187925360Y-71302000D01*
X187611640Y-71302000D01*
X187598205Y-71300677D01*
X187591191Y-71298549D01*
X187577423Y-71291190D01*
X187554784Y-71281813D01*
X187530751Y-71277033D01*
X187506247Y-71277033D01*
X187482214Y-71281814D01*
X187459577Y-71291190D01*
X187445809Y-71298549D01*
X187438795Y-71300677D01*
X187425360Y-71302000D01*
X187111640Y-71302000D01*
X187098205Y-71300677D01*
X187091191Y-71298549D01*
X187077423Y-71291190D01*
X187054784Y-71281813D01*
X187030751Y-71277033D01*
X187006247Y-71277033D01*
X186982214Y-71281814D01*
X186959577Y-71291190D01*
X186945809Y-71298549D01*
X186938795Y-71300677D01*
X186925360Y-71302000D01*
X186611640Y-71302000D01*
X186598205Y-71300677D01*
X186591191Y-71298549D01*
X186577423Y-71291190D01*
X186554784Y-71281813D01*
X186530751Y-71277033D01*
X186506247Y-71277033D01*
X186482214Y-71281814D01*
X186459577Y-71291190D01*
X186445809Y-71298549D01*
X186438795Y-71300677D01*
X186425360Y-71302000D01*
X186111640Y-71302000D01*
X186098205Y-71300677D01*
X186091191Y-71298549D01*
X186077423Y-71291190D01*
X186054784Y-71281813D01*
X186030751Y-71277033D01*
X186006247Y-71277033D01*
X185982214Y-71281814D01*
X185959577Y-71291190D01*
X185945809Y-71298549D01*
X185938795Y-71300677D01*
X185925360Y-71302000D01*
X185611640Y-71302000D01*
X185598205Y-71300677D01*
X185591191Y-71298549D01*
X185577423Y-71291190D01*
X185554784Y-71281813D01*
X185530751Y-71277033D01*
X185506247Y-71277033D01*
X185482214Y-71281814D01*
X185459577Y-71291190D01*
X185445809Y-71298549D01*
X185438795Y-71300677D01*
X185425360Y-71302000D01*
X185111640Y-71302000D01*
X185098205Y-71300677D01*
X185091191Y-71298549D01*
X185077423Y-71291190D01*
X185054784Y-71281813D01*
X185030751Y-71277033D01*
X185006247Y-71277033D01*
X184982214Y-71281814D01*
X184959577Y-71291190D01*
X184945809Y-71298549D01*
X184938795Y-71300677D01*
X184925360Y-71302000D01*
X184611640Y-71302000D01*
X184598205Y-71300677D01*
X184591191Y-71298549D01*
X184577423Y-71291190D01*
X184554784Y-71281813D01*
X184530751Y-71277033D01*
X184506247Y-71277033D01*
X184482214Y-71281814D01*
X184459577Y-71291190D01*
X184445809Y-71298549D01*
X184438795Y-71300677D01*
X184425360Y-71302000D01*
X184111640Y-71302000D01*
X184098205Y-71300677D01*
X184091191Y-71298549D01*
X184077423Y-71291190D01*
X184054784Y-71281813D01*
X184030751Y-71277033D01*
X184006247Y-71277033D01*
X183982214Y-71281814D01*
X183959577Y-71291190D01*
X183945809Y-71298549D01*
X183938795Y-71300677D01*
X183925360Y-71302000D01*
X183611640Y-71302000D01*
X183598205Y-71300677D01*
X183591191Y-71298549D01*
X183577423Y-71291190D01*
X183554784Y-71281813D01*
X183530751Y-71277033D01*
X183506247Y-71277033D01*
X183482214Y-71281814D01*
X183459577Y-71291190D01*
X183445809Y-71298549D01*
X183438795Y-71300677D01*
X183425360Y-71302000D01*
X183111640Y-71302000D01*
X183098205Y-71300677D01*
X183091191Y-71298549D01*
X183077423Y-71291190D01*
X183054784Y-71281813D01*
X183030751Y-71277033D01*
X183006247Y-71277033D01*
X182982214Y-71281814D01*
X182959577Y-71291190D01*
X182945809Y-71298549D01*
X182938795Y-71300677D01*
X182925360Y-71302000D01*
X182611640Y-71302000D01*
X182598205Y-71300677D01*
X182591190Y-71298549D01*
X182584724Y-71295092D01*
X182579058Y-71290442D01*
X182574408Y-71284776D01*
X182570951Y-71278310D01*
X182568823Y-71271295D01*
X182567500Y-71257860D01*
X182567500Y-69769140D01*
X182568823Y-69755705D01*
X182570951Y-69748690D01*
X182574408Y-69742224D01*
X182579058Y-69736558D01*
X182584724Y-69731908D01*
X182591190Y-69728451D01*
X182598205Y-69726323D01*
X182611640Y-69725000D01*
X182925360Y-69725000D01*
X182938795Y-69726323D01*
G37*
G36*
X198681338Y-70228356D02*
G01*
X198701957Y-70234611D01*
X198720953Y-70244764D01*
X198737608Y-70258432D01*
X198751276Y-70275087D01*
X198761429Y-70294083D01*
X198767684Y-70314702D01*
X198770400Y-70342280D01*
X198770400Y-70801000D01*
X198767684Y-70828578D01*
X198761429Y-70849197D01*
X198751276Y-70868193D01*
X198737608Y-70884848D01*
X198720953Y-70898516D01*
X198701957Y-70908669D01*
X198681338Y-70914924D01*
X198653760Y-70917640D01*
X198145040Y-70917640D01*
X198117462Y-70914924D01*
X198096843Y-70908669D01*
X198077847Y-70898516D01*
X198061192Y-70884848D01*
X198047524Y-70868193D01*
X198037371Y-70849197D01*
X198031116Y-70828578D01*
X198028400Y-70801000D01*
X198028400Y-70342280D01*
X198031116Y-70314702D01*
X198037371Y-70294083D01*
X198047524Y-70275087D01*
X198061192Y-70258432D01*
X198077847Y-70244764D01*
X198096843Y-70234611D01*
X198117462Y-70228356D01*
X198145040Y-70225640D01*
X198653760Y-70225640D01*
X198681338Y-70228356D01*
G37*
G36*
X200332338Y-70205356D02*
G01*
X200352957Y-70211611D01*
X200371953Y-70221764D01*
X200388608Y-70235432D01*
X200402276Y-70252087D01*
X200412429Y-70271083D01*
X200418684Y-70291702D01*
X200421400Y-70319280D01*
X200421400Y-70778000D01*
X200418684Y-70805578D01*
X200412429Y-70826197D01*
X200402276Y-70845193D01*
X200388608Y-70861848D01*
X200371953Y-70875516D01*
X200352957Y-70885669D01*
X200332338Y-70891924D01*
X200304760Y-70894640D01*
X199796040Y-70894640D01*
X199768462Y-70891924D01*
X199747843Y-70885669D01*
X199728847Y-70875516D01*
X199712192Y-70861848D01*
X199698524Y-70845193D01*
X199688371Y-70826197D01*
X199682116Y-70805578D01*
X199679400Y-70778000D01*
X199679400Y-70319280D01*
X199682116Y-70291702D01*
X199688371Y-70271083D01*
X199698524Y-70252087D01*
X199712192Y-70235432D01*
X199728847Y-70221764D01*
X199747843Y-70211611D01*
X199768462Y-70205356D01*
X199796040Y-70202640D01*
X200304760Y-70202640D01*
X200332338Y-70205356D01*
G37*
G36*
X179351938Y-69783716D02*
G01*
X179372557Y-69789971D01*
X179391553Y-69800124D01*
X179408208Y-69813792D01*
X179421876Y-69830447D01*
X179432029Y-69849443D01*
X179438284Y-69870062D01*
X179441000Y-69897640D01*
X179441000Y-70356360D01*
X179438284Y-70383938D01*
X179432029Y-70404557D01*
X179421876Y-70423553D01*
X179408208Y-70440208D01*
X179391553Y-70453876D01*
X179372557Y-70464029D01*
X179351938Y-70470284D01*
X179324360Y-70473000D01*
X178815640Y-70473000D01*
X178788062Y-70470284D01*
X178767443Y-70464029D01*
X178748447Y-70453876D01*
X178731792Y-70440208D01*
X178718124Y-70423553D01*
X178707971Y-70404557D01*
X178701716Y-70383938D01*
X178699000Y-70356360D01*
X178699000Y-69897640D01*
X178701716Y-69870062D01*
X178707971Y-69849443D01*
X178718124Y-69830447D01*
X178731792Y-69813792D01*
X178748447Y-69800124D01*
X178767443Y-69789971D01*
X178788062Y-69783716D01*
X178815640Y-69781000D01*
X179324360Y-69781000D01*
X179351938Y-69783716D01*
G37*
G36*
X177446938Y-69783716D02*
G01*
X177467557Y-69789971D01*
X177486553Y-69800124D01*
X177503208Y-69813792D01*
X177516876Y-69830447D01*
X177527029Y-69849443D01*
X177533284Y-69870062D01*
X177536000Y-69897640D01*
X177536000Y-70356360D01*
X177533284Y-70383938D01*
X177527029Y-70404557D01*
X177516876Y-70423553D01*
X177503208Y-70440208D01*
X177486553Y-70453876D01*
X177467557Y-70464029D01*
X177446938Y-70470284D01*
X177419360Y-70473000D01*
X176910640Y-70473000D01*
X176883062Y-70470284D01*
X176862443Y-70464029D01*
X176843447Y-70453876D01*
X176826792Y-70440208D01*
X176813124Y-70423553D01*
X176802971Y-70404557D01*
X176796716Y-70383938D01*
X176794000Y-70356360D01*
X176794000Y-69897640D01*
X176796716Y-69870062D01*
X176802971Y-69849443D01*
X176813124Y-69830447D01*
X176826792Y-69813792D01*
X176843447Y-69800124D01*
X176862443Y-69789971D01*
X176883062Y-69783716D01*
X176910640Y-69781000D01*
X177419360Y-69781000D01*
X177446938Y-69783716D01*
G37*
G36*
X151061621Y-66833204D02*
G01*
X151257100Y-66872087D01*
X151389263Y-66926831D01*
X151589955Y-67009960D01*
X151589956Y-67009961D01*
X151889520Y-67210123D01*
X152144277Y-67464880D01*
X152144278Y-67464882D01*
X152344440Y-67764445D01*
X152482313Y-68097301D01*
X152552600Y-68450658D01*
X152552600Y-68810942D01*
X152482313Y-69164299D01*
X152344440Y-69497155D01*
X152264171Y-69617286D01*
X152144277Y-69796720D01*
X151889520Y-70051477D01*
X151826664Y-70093476D01*
X151589955Y-70251640D01*
X151437709Y-70314702D01*
X151257100Y-70389513D01*
X151141013Y-70412604D01*
X150903742Y-70459800D01*
X150543458Y-70459800D01*
X150306187Y-70412604D01*
X150190100Y-70389513D01*
X150009491Y-70314702D01*
X149857245Y-70251640D01*
X149620536Y-70093476D01*
X149557680Y-70051477D01*
X149302923Y-69796720D01*
X149183029Y-69617286D01*
X149102760Y-69497155D01*
X148964887Y-69164299D01*
X148894600Y-68810942D01*
X148894600Y-68450658D01*
X148964887Y-68097301D01*
X149102760Y-67764445D01*
X149302922Y-67464882D01*
X149302923Y-67464880D01*
X149557680Y-67210123D01*
X149857244Y-67009961D01*
X149857245Y-67009960D01*
X150057937Y-66926831D01*
X150190100Y-66872087D01*
X150385579Y-66833204D01*
X150543458Y-66801800D01*
X150903742Y-66801800D01*
X151061621Y-66833204D01*
G37*
G36*
X193941968Y-69356465D02*
G01*
X193980638Y-69368196D01*
X194016277Y-69387246D01*
X194047517Y-69412883D01*
X194073154Y-69444123D01*
X194092204Y-69479762D01*
X194103935Y-69518432D01*
X194108500Y-69564788D01*
X194108500Y-70216012D01*
X194103935Y-70262368D01*
X194092204Y-70301038D01*
X194073154Y-70336677D01*
X194047517Y-70367917D01*
X194016277Y-70393554D01*
X193980638Y-70412604D01*
X193941968Y-70424335D01*
X193895612Y-70428900D01*
X192819388Y-70428900D01*
X192773032Y-70424335D01*
X192734362Y-70412604D01*
X192698723Y-70393554D01*
X192667483Y-70367917D01*
X192641846Y-70336677D01*
X192622796Y-70301038D01*
X192611065Y-70262368D01*
X192606500Y-70216012D01*
X192606500Y-69564788D01*
X192611065Y-69518432D01*
X192622796Y-69479762D01*
X192641846Y-69444123D01*
X192667483Y-69412883D01*
X192698723Y-69387246D01*
X192734362Y-69368196D01*
X192773032Y-69356465D01*
X192819388Y-69351900D01*
X193895612Y-69351900D01*
X193941968Y-69356465D01*
G37*
G36*
X169693200Y-69702500D02*
G01*
X166441200Y-69702500D01*
X166441200Y-68600500D01*
X169693200Y-68600500D01*
X169693200Y-69702500D01*
G37*
G36*
X164643200Y-69702500D02*
G01*
X161391200Y-69702500D01*
X161391200Y-68600500D01*
X164643200Y-68600500D01*
X164643200Y-69702500D01*
G37*
G36*
X183621938Y-68338716D02*
G01*
X183642557Y-68344971D01*
X183661553Y-68355124D01*
X183678208Y-68368792D01*
X183691876Y-68385447D01*
X183702029Y-68404443D01*
X183708284Y-68425062D01*
X183711000Y-68452640D01*
X183711000Y-68961360D01*
X183708284Y-68988938D01*
X183702029Y-69009557D01*
X183691876Y-69028553D01*
X183678208Y-69045208D01*
X183661553Y-69058876D01*
X183642557Y-69069029D01*
X183621938Y-69075284D01*
X183594360Y-69078000D01*
X183135640Y-69078000D01*
X183108062Y-69075284D01*
X183087443Y-69069029D01*
X183068447Y-69058876D01*
X183051792Y-69045208D01*
X183038124Y-69028553D01*
X183027971Y-69009557D01*
X183021716Y-68988938D01*
X183019000Y-68961360D01*
X183019000Y-68452640D01*
X183021716Y-68425062D01*
X183027971Y-68404443D01*
X183038124Y-68385447D01*
X183051792Y-68368792D01*
X183068447Y-68355124D01*
X183087443Y-68344971D01*
X183108062Y-68338716D01*
X183135640Y-68336000D01*
X183594360Y-68336000D01*
X183621938Y-68338716D01*
G37*
G36*
X182651938Y-68338716D02*
G01*
X182672557Y-68344971D01*
X182691553Y-68355124D01*
X182708208Y-68368792D01*
X182721876Y-68385447D01*
X182732029Y-68404443D01*
X182738284Y-68425062D01*
X182741000Y-68452640D01*
X182741000Y-68961360D01*
X182738284Y-68988938D01*
X182732029Y-69009557D01*
X182721876Y-69028553D01*
X182708208Y-69045208D01*
X182691553Y-69058876D01*
X182672557Y-69069029D01*
X182651938Y-69075284D01*
X182624360Y-69078000D01*
X182165640Y-69078000D01*
X182138062Y-69075284D01*
X182117443Y-69069029D01*
X182098447Y-69058876D01*
X182081792Y-69045208D01*
X182068124Y-69028553D01*
X182057971Y-69009557D01*
X182051716Y-68988938D01*
X182049000Y-68961360D01*
X182049000Y-68452640D01*
X182051716Y-68425062D01*
X182057971Y-68404443D01*
X182068124Y-68385447D01*
X182081792Y-68368792D01*
X182098447Y-68355124D01*
X182117443Y-68344971D01*
X182138062Y-68338716D01*
X182165640Y-68336000D01*
X182624360Y-68336000D01*
X182651938Y-68338716D01*
G37*
G36*
X191302638Y-67220716D02*
G01*
X191323257Y-67226971D01*
X191342253Y-67237124D01*
X191358908Y-67250792D01*
X191372576Y-67267447D01*
X191382729Y-67286443D01*
X191388984Y-67307062D01*
X191391700Y-67334640D01*
X191391700Y-67793360D01*
X191388984Y-67820938D01*
X191382729Y-67841557D01*
X191372576Y-67860553D01*
X191358908Y-67877208D01*
X191342253Y-67890876D01*
X191323257Y-67901029D01*
X191302638Y-67907284D01*
X191275060Y-67910000D01*
X190766340Y-67910000D01*
X190738762Y-67907284D01*
X190718143Y-67901029D01*
X190699147Y-67890876D01*
X190682492Y-67877208D01*
X190668824Y-67860553D01*
X190658671Y-67841557D01*
X190652416Y-67820938D01*
X190649700Y-67793360D01*
X190649700Y-67334640D01*
X190652416Y-67307062D01*
X190658671Y-67286443D01*
X190668824Y-67267447D01*
X190682492Y-67250792D01*
X190699147Y-67237124D01*
X190718143Y-67226971D01*
X190738762Y-67220716D01*
X190766340Y-67218000D01*
X191275060Y-67218000D01*
X191302638Y-67220716D01*
G37*
G36*
X186021978Y-67098796D02*
G01*
X186042597Y-67105051D01*
X186061593Y-67115204D01*
X186078248Y-67128872D01*
X186091916Y-67145527D01*
X186102069Y-67164523D01*
X186108324Y-67185142D01*
X186111040Y-67212720D01*
X186111040Y-67671440D01*
X186108324Y-67699018D01*
X186102069Y-67719637D01*
X186091916Y-67738633D01*
X186078248Y-67755288D01*
X186061593Y-67768956D01*
X186042597Y-67779109D01*
X186021978Y-67785364D01*
X185994400Y-67788080D01*
X185485680Y-67788080D01*
X185458102Y-67785364D01*
X185437483Y-67779109D01*
X185418487Y-67768956D01*
X185401832Y-67755288D01*
X185388164Y-67738633D01*
X185378011Y-67719637D01*
X185371756Y-67699018D01*
X185369040Y-67671440D01*
X185369040Y-67212720D01*
X185371756Y-67185142D01*
X185378011Y-67164523D01*
X185388164Y-67145527D01*
X185401832Y-67128872D01*
X185418487Y-67115204D01*
X185437483Y-67105051D01*
X185458102Y-67098796D01*
X185485680Y-67096080D01*
X185994400Y-67096080D01*
X186021978Y-67098796D01*
G37*
G36*
X183221968Y-66182565D02*
G01*
X183260638Y-66194296D01*
X183296277Y-66213346D01*
X183327517Y-66238983D01*
X183353154Y-66270223D01*
X183372204Y-66305862D01*
X183383935Y-66344532D01*
X183388500Y-66390888D01*
X183388500Y-67467112D01*
X183383935Y-67513468D01*
X183372204Y-67552138D01*
X183353154Y-67587777D01*
X183327517Y-67619017D01*
X183296277Y-67644654D01*
X183260638Y-67663704D01*
X183221968Y-67675435D01*
X183175612Y-67680000D01*
X182524388Y-67680000D01*
X182478032Y-67675435D01*
X182439362Y-67663704D01*
X182403723Y-67644654D01*
X182372483Y-67619017D01*
X182346846Y-67587777D01*
X182327796Y-67552138D01*
X182316065Y-67513468D01*
X182311500Y-67467112D01*
X182311500Y-66390888D01*
X182316065Y-66344532D01*
X182327796Y-66305862D01*
X182346846Y-66270223D01*
X182372483Y-66238983D01*
X182403723Y-66213346D01*
X182439362Y-66194296D01*
X182478032Y-66182565D01*
X182524388Y-66178000D01*
X183175612Y-66178000D01*
X183221968Y-66182565D01*
G37*
G36*
X181346968Y-66182565D02*
G01*
X181385638Y-66194296D01*
X181421277Y-66213346D01*
X181452517Y-66238983D01*
X181478154Y-66270223D01*
X181497204Y-66305862D01*
X181508935Y-66344532D01*
X181513500Y-66390888D01*
X181513500Y-67467112D01*
X181508935Y-67513468D01*
X181497204Y-67552138D01*
X181478154Y-67587777D01*
X181452517Y-67619017D01*
X181421277Y-67644654D01*
X181385638Y-67663704D01*
X181346968Y-67675435D01*
X181300612Y-67680000D01*
X180649388Y-67680000D01*
X180603032Y-67675435D01*
X180564362Y-67663704D01*
X180528723Y-67644654D01*
X180497483Y-67619017D01*
X180471846Y-67587777D01*
X180452796Y-67552138D01*
X180441065Y-67513468D01*
X180436500Y-67467112D01*
X180436500Y-66390888D01*
X180441065Y-66344532D01*
X180452796Y-66305862D01*
X180471846Y-66270223D01*
X180497483Y-66238983D01*
X180528723Y-66213346D01*
X180564362Y-66194296D01*
X180603032Y-66182565D01*
X180649388Y-66178000D01*
X181300612Y-66178000D01*
X181346968Y-66182565D01*
G37*
G36*
X198627212Y-65791627D02*
G01*
X198776512Y-65821324D01*
X198940484Y-65889244D01*
X199088054Y-65987847D01*
X199213553Y-66113346D01*
X199312156Y-66260916D01*
X199380076Y-66424888D01*
X199414700Y-66598959D01*
X199414700Y-66776441D01*
X199380076Y-66950512D01*
X199312156Y-67114484D01*
X199213553Y-67262054D01*
X199088054Y-67387553D01*
X198940484Y-67486156D01*
X198776512Y-67554076D01*
X198627212Y-67583773D01*
X198602442Y-67588700D01*
X198424958Y-67588700D01*
X198400188Y-67583773D01*
X198250888Y-67554076D01*
X198086916Y-67486156D01*
X197939346Y-67387553D01*
X197813847Y-67262054D01*
X197715244Y-67114484D01*
X197647324Y-66950512D01*
X197612700Y-66776441D01*
X197612700Y-66598959D01*
X197647324Y-66424888D01*
X197715244Y-66260916D01*
X197813847Y-66113346D01*
X197939346Y-65987847D01*
X198086916Y-65889244D01*
X198250888Y-65821324D01*
X198400188Y-65791627D01*
X198424958Y-65786700D01*
X198602442Y-65786700D01*
X198627212Y-65791627D01*
G37*
G36*
X196087212Y-65791627D02*
G01*
X196236512Y-65821324D01*
X196400484Y-65889244D01*
X196548054Y-65987847D01*
X196673553Y-66113346D01*
X196772156Y-66260916D01*
X196840076Y-66424888D01*
X196874700Y-66598959D01*
X196874700Y-66776441D01*
X196840076Y-66950512D01*
X196772156Y-67114484D01*
X196673553Y-67262054D01*
X196548054Y-67387553D01*
X196400484Y-67486156D01*
X196236512Y-67554076D01*
X196087212Y-67583773D01*
X196062442Y-67588700D01*
X195884958Y-67588700D01*
X195860188Y-67583773D01*
X195710888Y-67554076D01*
X195546916Y-67486156D01*
X195399346Y-67387553D01*
X195273847Y-67262054D01*
X195175244Y-67114484D01*
X195107324Y-66950512D01*
X195072700Y-66776441D01*
X195072700Y-66598959D01*
X195107324Y-66424888D01*
X195175244Y-66260916D01*
X195273847Y-66113346D01*
X195399346Y-65987847D01*
X195546916Y-65889244D01*
X195710888Y-65821324D01*
X195860188Y-65791627D01*
X195884958Y-65786700D01*
X196062442Y-65786700D01*
X196087212Y-65791627D01*
G37*
G36*
X193547212Y-65791627D02*
G01*
X193696512Y-65821324D01*
X193860484Y-65889244D01*
X194008054Y-65987847D01*
X194133553Y-66113346D01*
X194232156Y-66260916D01*
X194300076Y-66424888D01*
X194334700Y-66598959D01*
X194334700Y-66776441D01*
X194300076Y-66950512D01*
X194232156Y-67114484D01*
X194133553Y-67262054D01*
X194008054Y-67387553D01*
X193860484Y-67486156D01*
X193696512Y-67554076D01*
X193547212Y-67583773D01*
X193522442Y-67588700D01*
X193344958Y-67588700D01*
X193320188Y-67583773D01*
X193170888Y-67554076D01*
X193006916Y-67486156D01*
X192859346Y-67387553D01*
X192733847Y-67262054D01*
X192635244Y-67114484D01*
X192567324Y-66950512D01*
X192532700Y-66776441D01*
X192532700Y-66598959D01*
X192567324Y-66424888D01*
X192635244Y-66260916D01*
X192733847Y-66113346D01*
X192859346Y-65987847D01*
X193006916Y-65889244D01*
X193170888Y-65821324D01*
X193320188Y-65791627D01*
X193344958Y-65786700D01*
X193522442Y-65786700D01*
X193547212Y-65791627D01*
G37*
G36*
X201167212Y-65791627D02*
G01*
X201316512Y-65821324D01*
X201480484Y-65889244D01*
X201628054Y-65987847D01*
X201753553Y-66113346D01*
X201852156Y-66260916D01*
X201920076Y-66424888D01*
X201954700Y-66598959D01*
X201954700Y-66776441D01*
X201920076Y-66950512D01*
X201852156Y-67114484D01*
X201753553Y-67262054D01*
X201628054Y-67387553D01*
X201480484Y-67486156D01*
X201316512Y-67554076D01*
X201167212Y-67583773D01*
X201142442Y-67588700D01*
X200964958Y-67588700D01*
X200940188Y-67583773D01*
X200790888Y-67554076D01*
X200626916Y-67486156D01*
X200479346Y-67387553D01*
X200353847Y-67262054D01*
X200255244Y-67114484D01*
X200187324Y-66950512D01*
X200152700Y-66776441D01*
X200152700Y-66598959D01*
X200187324Y-66424888D01*
X200255244Y-66260916D01*
X200353847Y-66113346D01*
X200479346Y-65987847D01*
X200626916Y-65889244D01*
X200790888Y-65821324D01*
X200940188Y-65791627D01*
X200964958Y-65786700D01*
X201142442Y-65786700D01*
X201167212Y-65791627D01*
G37*
G36*
X203707212Y-65791627D02*
G01*
X203856512Y-65821324D01*
X204020484Y-65889244D01*
X204168054Y-65987847D01*
X204293553Y-66113346D01*
X204392156Y-66260916D01*
X204460076Y-66424888D01*
X204494700Y-66598959D01*
X204494700Y-66776441D01*
X204460076Y-66950512D01*
X204392156Y-67114484D01*
X204293553Y-67262054D01*
X204168054Y-67387553D01*
X204020484Y-67486156D01*
X203856512Y-67554076D01*
X203707212Y-67583773D01*
X203682442Y-67588700D01*
X203504958Y-67588700D01*
X203480188Y-67583773D01*
X203330888Y-67554076D01*
X203166916Y-67486156D01*
X203019346Y-67387553D01*
X202893847Y-67262054D01*
X202795244Y-67114484D01*
X202727324Y-66950512D01*
X202692700Y-66776441D01*
X202692700Y-66598959D01*
X202727324Y-66424888D01*
X202795244Y-66260916D01*
X202893847Y-66113346D01*
X203019346Y-65987847D01*
X203166916Y-65889244D01*
X203330888Y-65821324D01*
X203480188Y-65791627D01*
X203504958Y-65786700D01*
X203682442Y-65786700D01*
X203707212Y-65791627D01*
G37*
G36*
X154343179Y-63549912D02*
G01*
X154469144Y-63574968D01*
X154616591Y-63636043D01*
X154825112Y-63722415D01*
X154825113Y-63722416D01*
X155145477Y-63936476D01*
X155417924Y-64208923D01*
X155497724Y-64328353D01*
X155631985Y-64529288D01*
X155711831Y-64722053D01*
X155779432Y-64885256D01*
X155854600Y-65263151D01*
X155854600Y-65648449D01*
X155787090Y-65987847D01*
X155779432Y-66026343D01*
X155631985Y-66382312D01*
X155603536Y-66424889D01*
X155417924Y-66702677D01*
X155145477Y-66975124D01*
X154951027Y-67105051D01*
X154825112Y-67189185D01*
X154632228Y-67269080D01*
X154469144Y-67336632D01*
X154365495Y-67357249D01*
X154091251Y-67411800D01*
X153705949Y-67411800D01*
X153431705Y-67357249D01*
X153328056Y-67336632D01*
X153164972Y-67269080D01*
X152972088Y-67189185D01*
X152846173Y-67105051D01*
X152651723Y-66975124D01*
X152379276Y-66702677D01*
X152193664Y-66424889D01*
X152165215Y-66382312D01*
X152017768Y-66026343D01*
X152010111Y-65987847D01*
X151942600Y-65648449D01*
X151942600Y-65263151D01*
X152017768Y-64885256D01*
X152085369Y-64722053D01*
X152165215Y-64529288D01*
X152299476Y-64328353D01*
X152379276Y-64208923D01*
X152651723Y-63936476D01*
X152972087Y-63722416D01*
X152972088Y-63722415D01*
X153180609Y-63636043D01*
X153328056Y-63574968D01*
X153454021Y-63549912D01*
X153705949Y-63499800D01*
X154091251Y-63499800D01*
X154343179Y-63549912D01*
G37*
G36*
X147993179Y-63549912D02*
G01*
X148119144Y-63574968D01*
X148266591Y-63636043D01*
X148475112Y-63722415D01*
X148475113Y-63722416D01*
X148795477Y-63936476D01*
X149067924Y-64208923D01*
X149147724Y-64328353D01*
X149281985Y-64529288D01*
X149361831Y-64722053D01*
X149429432Y-64885256D01*
X149504600Y-65263151D01*
X149504600Y-65648449D01*
X149437090Y-65987847D01*
X149429432Y-66026343D01*
X149281985Y-66382312D01*
X149253536Y-66424889D01*
X149067924Y-66702677D01*
X148795477Y-66975124D01*
X148601027Y-67105051D01*
X148475112Y-67189185D01*
X148282228Y-67269080D01*
X148119144Y-67336632D01*
X148015495Y-67357249D01*
X147741251Y-67411800D01*
X147355949Y-67411800D01*
X147081705Y-67357249D01*
X146978056Y-67336632D01*
X146814972Y-67269080D01*
X146622088Y-67189185D01*
X146496173Y-67105051D01*
X146301723Y-66975124D01*
X146029276Y-66702677D01*
X145843664Y-66424889D01*
X145815215Y-66382312D01*
X145667768Y-66026343D01*
X145660111Y-65987847D01*
X145592600Y-65648449D01*
X145592600Y-65263151D01*
X145667768Y-64885256D01*
X145735369Y-64722053D01*
X145815215Y-64529288D01*
X145949476Y-64328353D01*
X146029276Y-64208923D01*
X146301723Y-63936476D01*
X146622087Y-63722416D01*
X146622088Y-63722415D01*
X146830609Y-63636043D01*
X146978056Y-63574968D01*
X147104021Y-63549912D01*
X147355949Y-63499800D01*
X147741251Y-63499800D01*
X147993179Y-63549912D01*
G37*
G36*
X164643200Y-67162500D02*
G01*
X161391200Y-67162500D01*
X161391200Y-66060500D01*
X164643200Y-66060500D01*
X164643200Y-67162500D01*
G37*
G36*
X169693200Y-67162500D02*
G01*
X166441200Y-67162500D01*
X166441200Y-66060500D01*
X169693200Y-66060500D01*
X169693200Y-67162500D01*
G37*
G36*
X191302638Y-66250716D02*
G01*
X191323257Y-66256971D01*
X191342253Y-66267124D01*
X191358908Y-66280792D01*
X191372576Y-66297447D01*
X191382729Y-66316443D01*
X191388984Y-66337062D01*
X191391700Y-66364640D01*
X191391700Y-66823360D01*
X191388984Y-66850938D01*
X191382729Y-66871557D01*
X191372576Y-66890553D01*
X191358908Y-66907208D01*
X191342253Y-66920876D01*
X191323257Y-66931029D01*
X191302638Y-66937284D01*
X191275060Y-66940000D01*
X190766340Y-66940000D01*
X190738762Y-66937284D01*
X190718143Y-66931029D01*
X190699147Y-66920876D01*
X190682492Y-66907208D01*
X190668824Y-66890553D01*
X190658671Y-66871557D01*
X190652416Y-66850938D01*
X190649700Y-66823360D01*
X190649700Y-66364640D01*
X190652416Y-66337062D01*
X190658671Y-66316443D01*
X190668824Y-66297447D01*
X190682492Y-66280792D01*
X190699147Y-66267124D01*
X190718143Y-66256971D01*
X190738762Y-66250716D01*
X190766340Y-66248000D01*
X191275060Y-66248000D01*
X191302638Y-66250716D01*
G37*
G36*
X186021978Y-66128796D02*
G01*
X186042597Y-66135051D01*
X186061593Y-66145204D01*
X186078248Y-66158872D01*
X186091916Y-66175527D01*
X186102069Y-66194523D01*
X186108324Y-66215142D01*
X186111040Y-66242720D01*
X186111040Y-66701440D01*
X186108324Y-66729018D01*
X186102069Y-66749637D01*
X186091916Y-66768633D01*
X186078248Y-66785288D01*
X186061593Y-66798956D01*
X186042597Y-66809109D01*
X186021978Y-66815364D01*
X185994400Y-66818080D01*
X185485680Y-66818080D01*
X185458102Y-66815364D01*
X185437483Y-66809109D01*
X185418487Y-66798956D01*
X185401832Y-66785288D01*
X185388164Y-66768633D01*
X185378011Y-66749637D01*
X185371756Y-66729018D01*
X185369040Y-66701440D01*
X185369040Y-66242720D01*
X185371756Y-66215142D01*
X185378011Y-66194523D01*
X185388164Y-66175527D01*
X185401832Y-66158872D01*
X185418487Y-66145204D01*
X185437483Y-66135051D01*
X185458102Y-66128796D01*
X185485680Y-66126080D01*
X185994400Y-66126080D01*
X186021978Y-66128796D01*
G37*
G36*
X173800120Y-65389580D02*
G01*
X172798120Y-65389580D01*
X172798120Y-64287580D01*
X173800120Y-64287580D01*
X173800120Y-65389580D01*
G37*
G36*
X177900120Y-65389580D02*
G01*
X176898120Y-65389580D01*
X176898120Y-64287580D01*
X177900120Y-64287580D01*
X177900120Y-65389580D01*
G37*
G36*
X204494700Y-65048700D02*
G01*
X202692700Y-65048700D01*
X202692700Y-63246700D01*
X204494700Y-63246700D01*
X204494700Y-65048700D01*
G37*
G36*
X201167212Y-63251627D02*
G01*
X201316512Y-63281324D01*
X201480484Y-63349244D01*
X201628054Y-63447847D01*
X201753553Y-63573346D01*
X201852156Y-63720916D01*
X201920076Y-63884888D01*
X201954700Y-64058959D01*
X201954700Y-64236441D01*
X201920076Y-64410512D01*
X201852156Y-64574484D01*
X201753553Y-64722054D01*
X201628054Y-64847553D01*
X201480484Y-64946156D01*
X201316512Y-65014076D01*
X201167212Y-65043773D01*
X201142442Y-65048700D01*
X200964958Y-65048700D01*
X200940188Y-65043773D01*
X200790888Y-65014076D01*
X200626916Y-64946156D01*
X200479346Y-64847553D01*
X200353847Y-64722054D01*
X200255244Y-64574484D01*
X200187324Y-64410512D01*
X200152700Y-64236441D01*
X200152700Y-64058959D01*
X200187324Y-63884888D01*
X200255244Y-63720916D01*
X200353847Y-63573346D01*
X200479346Y-63447847D01*
X200626916Y-63349244D01*
X200790888Y-63281324D01*
X200940188Y-63251627D01*
X200964958Y-63246700D01*
X201142442Y-63246700D01*
X201167212Y-63251627D01*
G37*
G36*
X198627212Y-63251627D02*
G01*
X198776512Y-63281324D01*
X198940484Y-63349244D01*
X199088054Y-63447847D01*
X199213553Y-63573346D01*
X199312156Y-63720916D01*
X199380076Y-63884888D01*
X199414700Y-64058959D01*
X199414700Y-64236441D01*
X199380076Y-64410512D01*
X199312156Y-64574484D01*
X199213553Y-64722054D01*
X199088054Y-64847553D01*
X198940484Y-64946156D01*
X198776512Y-65014076D01*
X198627212Y-65043773D01*
X198602442Y-65048700D01*
X198424958Y-65048700D01*
X198400188Y-65043773D01*
X198250888Y-65014076D01*
X198086916Y-64946156D01*
X197939346Y-64847553D01*
X197813847Y-64722054D01*
X197715244Y-64574484D01*
X197647324Y-64410512D01*
X197612700Y-64236441D01*
X197612700Y-64058959D01*
X197647324Y-63884888D01*
X197715244Y-63720916D01*
X197813847Y-63573346D01*
X197939346Y-63447847D01*
X198086916Y-63349244D01*
X198250888Y-63281324D01*
X198400188Y-63251627D01*
X198424958Y-63246700D01*
X198602442Y-63246700D01*
X198627212Y-63251627D01*
G37*
G36*
X193547212Y-63251627D02*
G01*
X193696512Y-63281324D01*
X193860484Y-63349244D01*
X194008054Y-63447847D01*
X194133553Y-63573346D01*
X194232156Y-63720916D01*
X194300076Y-63884888D01*
X194334700Y-64058959D01*
X194334700Y-64236441D01*
X194300076Y-64410512D01*
X194232156Y-64574484D01*
X194133553Y-64722054D01*
X194008054Y-64847553D01*
X193860484Y-64946156D01*
X193696512Y-65014076D01*
X193547212Y-65043773D01*
X193522442Y-65048700D01*
X193344958Y-65048700D01*
X193320188Y-65043773D01*
X193170888Y-65014076D01*
X193006916Y-64946156D01*
X192859346Y-64847553D01*
X192733847Y-64722054D01*
X192635244Y-64574484D01*
X192567324Y-64410512D01*
X192532700Y-64236441D01*
X192532700Y-64058959D01*
X192567324Y-63884888D01*
X192635244Y-63720916D01*
X192733847Y-63573346D01*
X192859346Y-63447847D01*
X193006916Y-63349244D01*
X193170888Y-63281324D01*
X193320188Y-63251627D01*
X193344958Y-63246700D01*
X193522442Y-63246700D01*
X193547212Y-63251627D01*
G37*
G36*
X196087212Y-63251627D02*
G01*
X196236512Y-63281324D01*
X196400484Y-63349244D01*
X196548054Y-63447847D01*
X196673553Y-63573346D01*
X196772156Y-63720916D01*
X196840076Y-63884888D01*
X196874700Y-64058959D01*
X196874700Y-64236441D01*
X196840076Y-64410512D01*
X196772156Y-64574484D01*
X196673553Y-64722054D01*
X196548054Y-64847553D01*
X196400484Y-64946156D01*
X196236512Y-65014076D01*
X196087212Y-65043773D01*
X196062442Y-65048700D01*
X195884958Y-65048700D01*
X195860188Y-65043773D01*
X195710888Y-65014076D01*
X195546916Y-64946156D01*
X195399346Y-64847553D01*
X195273847Y-64722054D01*
X195175244Y-64574484D01*
X195107324Y-64410512D01*
X195072700Y-64236441D01*
X195072700Y-64058959D01*
X195107324Y-63884888D01*
X195175244Y-63720916D01*
X195273847Y-63573346D01*
X195399346Y-63447847D01*
X195546916Y-63349244D01*
X195710888Y-63281324D01*
X195860188Y-63251627D01*
X195884958Y-63246700D01*
X196062442Y-63246700D01*
X196087212Y-63251627D01*
G37*
G36*
X187438512Y-62857927D02*
G01*
X187587812Y-62887624D01*
X187751784Y-62955544D01*
X187899354Y-63054147D01*
X188024853Y-63179646D01*
X188123456Y-63327216D01*
X188191376Y-63491188D01*
X188226000Y-63665259D01*
X188226000Y-63842741D01*
X188191376Y-64016812D01*
X188123456Y-64180784D01*
X188024853Y-64328354D01*
X187899354Y-64453853D01*
X187751784Y-64552456D01*
X187587812Y-64620376D01*
X187438512Y-64650073D01*
X187413742Y-64655000D01*
X187236258Y-64655000D01*
X187211488Y-64650073D01*
X187062188Y-64620376D01*
X186898216Y-64552456D01*
X186750646Y-64453853D01*
X186625147Y-64328354D01*
X186526544Y-64180784D01*
X186458624Y-64016812D01*
X186424000Y-63842741D01*
X186424000Y-63665259D01*
X186458624Y-63491188D01*
X186526544Y-63327216D01*
X186625147Y-63179646D01*
X186750646Y-63054147D01*
X186898216Y-62955544D01*
X187062188Y-62887624D01*
X187211488Y-62857927D01*
X187236258Y-62853000D01*
X187413742Y-62853000D01*
X187438512Y-62857927D01*
G37*
G36*
X184898512Y-62857927D02*
G01*
X185047812Y-62887624D01*
X185211784Y-62955544D01*
X185359354Y-63054147D01*
X185484853Y-63179646D01*
X185583456Y-63327216D01*
X185651376Y-63491188D01*
X185686000Y-63665259D01*
X185686000Y-63842741D01*
X185651376Y-64016812D01*
X185583456Y-64180784D01*
X185484853Y-64328354D01*
X185359354Y-64453853D01*
X185211784Y-64552456D01*
X185047812Y-64620376D01*
X184898512Y-64650073D01*
X184873742Y-64655000D01*
X184696258Y-64655000D01*
X184671488Y-64650073D01*
X184522188Y-64620376D01*
X184358216Y-64552456D01*
X184210646Y-64453853D01*
X184085147Y-64328354D01*
X183986544Y-64180784D01*
X183918624Y-64016812D01*
X183884000Y-63842741D01*
X183884000Y-63665259D01*
X183918624Y-63491188D01*
X183986544Y-63327216D01*
X184085147Y-63179646D01*
X184210646Y-63054147D01*
X184358216Y-62955544D01*
X184522188Y-62887624D01*
X184671488Y-62857927D01*
X184696258Y-62853000D01*
X184873742Y-62853000D01*
X184898512Y-62857927D01*
G37*
G36*
X183146000Y-64655000D02*
G01*
X181344000Y-64655000D01*
X181344000Y-62853000D01*
X183146000Y-62853000D01*
X183146000Y-64655000D01*
G37*
G36*
X169693200Y-64622500D02*
G01*
X166441200Y-64622500D01*
X166441200Y-63520500D01*
X169693200Y-63520500D01*
X169693200Y-64622500D01*
G37*
G36*
X164643200Y-64622500D02*
G01*
X161391200Y-64622500D01*
X161391200Y-63520500D01*
X164643200Y-63520500D01*
X164643200Y-64622500D01*
G37*
G36*
X177900120Y-63789580D02*
G01*
X176898120Y-63789580D01*
X176898120Y-62687580D01*
X177900120Y-62687580D01*
X177900120Y-63789580D01*
G37*
G36*
X173800120Y-63789580D02*
G01*
X172798120Y-63789580D01*
X172798120Y-62687580D01*
X173800120Y-62687580D01*
X173800120Y-63789580D01*
G37*
G36*
X193153512Y-60063927D02*
G01*
X193302812Y-60093624D01*
X193466784Y-60161544D01*
X193614354Y-60260147D01*
X193739853Y-60385646D01*
X193838456Y-60533216D01*
X193906376Y-60697188D01*
X193941000Y-60871259D01*
X193941000Y-61048741D01*
X193906376Y-61222812D01*
X193838456Y-61386784D01*
X193739853Y-61534354D01*
X193614354Y-61659853D01*
X193466784Y-61758456D01*
X193302812Y-61826376D01*
X193153512Y-61856073D01*
X193128742Y-61861000D01*
X192951258Y-61861000D01*
X192926488Y-61856073D01*
X192777188Y-61826376D01*
X192613216Y-61758456D01*
X192465646Y-61659853D01*
X192340147Y-61534354D01*
X192241544Y-61386784D01*
X192173624Y-61222812D01*
X192139000Y-61048741D01*
X192139000Y-60871259D01*
X192173624Y-60697188D01*
X192241544Y-60533216D01*
X192340147Y-60385646D01*
X192465646Y-60260147D01*
X192613216Y-60161544D01*
X192777188Y-60093624D01*
X192926488Y-60063927D01*
X192951258Y-60059000D01*
X193128742Y-60059000D01*
X193153512Y-60063927D01*
G37*
G36*
X195693512Y-60063927D02*
G01*
X195842812Y-60093624D01*
X196006784Y-60161544D01*
X196154354Y-60260147D01*
X196279853Y-60385646D01*
X196378456Y-60533216D01*
X196446376Y-60697188D01*
X196481000Y-60871259D01*
X196481000Y-61048741D01*
X196446376Y-61222812D01*
X196378456Y-61386784D01*
X196279853Y-61534354D01*
X196154354Y-61659853D01*
X196006784Y-61758456D01*
X195842812Y-61826376D01*
X195693512Y-61856073D01*
X195668742Y-61861000D01*
X195491258Y-61861000D01*
X195466488Y-61856073D01*
X195317188Y-61826376D01*
X195153216Y-61758456D01*
X195005646Y-61659853D01*
X194880147Y-61534354D01*
X194781544Y-61386784D01*
X194713624Y-61222812D01*
X194679000Y-61048741D01*
X194679000Y-60871259D01*
X194713624Y-60697188D01*
X194781544Y-60533216D01*
X194880147Y-60385646D01*
X195005646Y-60260147D01*
X195153216Y-60161544D01*
X195317188Y-60093624D01*
X195466488Y-60063927D01*
X195491258Y-60059000D01*
X195668742Y-60059000D01*
X195693512Y-60063927D01*
G37*
G36*
X198233512Y-60063927D02*
G01*
X198382812Y-60093624D01*
X198546784Y-60161544D01*
X198694354Y-60260147D01*
X198819853Y-60385646D01*
X198918456Y-60533216D01*
X198986376Y-60697188D01*
X199021000Y-60871259D01*
X199021000Y-61048741D01*
X198986376Y-61222812D01*
X198918456Y-61386784D01*
X198819853Y-61534354D01*
X198694354Y-61659853D01*
X198546784Y-61758456D01*
X198382812Y-61826376D01*
X198233512Y-61856073D01*
X198208742Y-61861000D01*
X198031258Y-61861000D01*
X198006488Y-61856073D01*
X197857188Y-61826376D01*
X197693216Y-61758456D01*
X197545646Y-61659853D01*
X197420147Y-61534354D01*
X197321544Y-61386784D01*
X197253624Y-61222812D01*
X197219000Y-61048741D01*
X197219000Y-60871259D01*
X197253624Y-60697188D01*
X197321544Y-60533216D01*
X197420147Y-60385646D01*
X197545646Y-60260147D01*
X197693216Y-60161544D01*
X197857188Y-60093624D01*
X198006488Y-60063927D01*
X198031258Y-60059000D01*
X198208742Y-60059000D01*
X198233512Y-60063927D01*
G37*
G36*
X200773512Y-60063927D02*
G01*
X200922812Y-60093624D01*
X201086784Y-60161544D01*
X201234354Y-60260147D01*
X201359853Y-60385646D01*
X201458456Y-60533216D01*
X201526376Y-60697188D01*
X201561000Y-60871259D01*
X201561000Y-61048741D01*
X201526376Y-61222812D01*
X201458456Y-61386784D01*
X201359853Y-61534354D01*
X201234354Y-61659853D01*
X201086784Y-61758456D01*
X200922812Y-61826376D01*
X200773512Y-61856073D01*
X200748742Y-61861000D01*
X200571258Y-61861000D01*
X200546488Y-61856073D01*
X200397188Y-61826376D01*
X200233216Y-61758456D01*
X200085646Y-61659853D01*
X199960147Y-61534354D01*
X199861544Y-61386784D01*
X199793624Y-61222812D01*
X199759000Y-61048741D01*
X199759000Y-60871259D01*
X199793624Y-60697188D01*
X199861544Y-60533216D01*
X199960147Y-60385646D01*
X200085646Y-60260147D01*
X200233216Y-60161544D01*
X200397188Y-60093624D01*
X200546488Y-60063927D01*
X200571258Y-60059000D01*
X200748742Y-60059000D01*
X200773512Y-60063927D01*
G37*
G36*
X203313512Y-60063927D02*
G01*
X203462812Y-60093624D01*
X203626784Y-60161544D01*
X203774354Y-60260147D01*
X203899853Y-60385646D01*
X203998456Y-60533216D01*
X204066376Y-60697188D01*
X204101000Y-60871259D01*
X204101000Y-61048741D01*
X204066376Y-61222812D01*
X203998456Y-61386784D01*
X203899853Y-61534354D01*
X203774354Y-61659853D01*
X203626784Y-61758456D01*
X203462812Y-61826376D01*
X203313512Y-61856073D01*
X203288742Y-61861000D01*
X203111258Y-61861000D01*
X203086488Y-61856073D01*
X202937188Y-61826376D01*
X202773216Y-61758456D01*
X202625646Y-61659853D01*
X202500147Y-61534354D01*
X202401544Y-61386784D01*
X202333624Y-61222812D01*
X202299000Y-61048741D01*
X202299000Y-60871259D01*
X202333624Y-60697188D01*
X202401544Y-60533216D01*
X202500147Y-60385646D01*
X202625646Y-60260147D01*
X202773216Y-60161544D01*
X202937188Y-60093624D01*
X203086488Y-60063927D01*
X203111258Y-60059000D01*
X203288742Y-60059000D01*
X203313512Y-60063927D01*
G37*
G36*
X205853512Y-60063927D02*
G01*
X206002812Y-60093624D01*
X206166784Y-60161544D01*
X206314354Y-60260147D01*
X206439853Y-60385646D01*
X206538456Y-60533216D01*
X206606376Y-60697188D01*
X206641000Y-60871259D01*
X206641000Y-61048741D01*
X206606376Y-61222812D01*
X206538456Y-61386784D01*
X206439853Y-61534354D01*
X206314354Y-61659853D01*
X206166784Y-61758456D01*
X206002812Y-61826376D01*
X205853512Y-61856073D01*
X205828742Y-61861000D01*
X205651258Y-61861000D01*
X205626488Y-61856073D01*
X205477188Y-61826376D01*
X205313216Y-61758456D01*
X205165646Y-61659853D01*
X205040147Y-61534354D01*
X204941544Y-61386784D01*
X204873624Y-61222812D01*
X204839000Y-61048741D01*
X204839000Y-60871259D01*
X204873624Y-60697188D01*
X204941544Y-60533216D01*
X205040147Y-60385646D01*
X205165646Y-60260147D01*
X205313216Y-60161544D01*
X205477188Y-60093624D01*
X205626488Y-60063927D01*
X205651258Y-60059000D01*
X205828742Y-60059000D01*
X205853512Y-60063927D01*
G37*
G36*
X158381000Y-61861000D02*
G01*
X156579000Y-61861000D01*
X156579000Y-60059000D01*
X158381000Y-60059000D01*
X158381000Y-61861000D01*
G37*
G36*
X188073512Y-60063927D02*
G01*
X188222812Y-60093624D01*
X188386784Y-60161544D01*
X188534354Y-60260147D01*
X188659853Y-60385646D01*
X188758456Y-60533216D01*
X188826376Y-60697188D01*
X188861000Y-60871259D01*
X188861000Y-61048741D01*
X188826376Y-61222812D01*
X188758456Y-61386784D01*
X188659853Y-61534354D01*
X188534354Y-61659853D01*
X188386784Y-61758456D01*
X188222812Y-61826376D01*
X188073512Y-61856073D01*
X188048742Y-61861000D01*
X187871258Y-61861000D01*
X187846488Y-61856073D01*
X187697188Y-61826376D01*
X187533216Y-61758456D01*
X187385646Y-61659853D01*
X187260147Y-61534354D01*
X187161544Y-61386784D01*
X187093624Y-61222812D01*
X187059000Y-61048741D01*
X187059000Y-60871259D01*
X187093624Y-60697188D01*
X187161544Y-60533216D01*
X187260147Y-60385646D01*
X187385646Y-60260147D01*
X187533216Y-60161544D01*
X187697188Y-60093624D01*
X187846488Y-60063927D01*
X187871258Y-60059000D01*
X188048742Y-60059000D01*
X188073512Y-60063927D01*
G37*
G36*
X185533512Y-60063927D02*
G01*
X185682812Y-60093624D01*
X185846784Y-60161544D01*
X185994354Y-60260147D01*
X186119853Y-60385646D01*
X186218456Y-60533216D01*
X186286376Y-60697188D01*
X186321000Y-60871259D01*
X186321000Y-61048741D01*
X186286376Y-61222812D01*
X186218456Y-61386784D01*
X186119853Y-61534354D01*
X185994354Y-61659853D01*
X185846784Y-61758456D01*
X185682812Y-61826376D01*
X185533512Y-61856073D01*
X185508742Y-61861000D01*
X185331258Y-61861000D01*
X185306488Y-61856073D01*
X185157188Y-61826376D01*
X184993216Y-61758456D01*
X184845646Y-61659853D01*
X184720147Y-61534354D01*
X184621544Y-61386784D01*
X184553624Y-61222812D01*
X184519000Y-61048741D01*
X184519000Y-60871259D01*
X184553624Y-60697188D01*
X184621544Y-60533216D01*
X184720147Y-60385646D01*
X184845646Y-60260147D01*
X184993216Y-60161544D01*
X185157188Y-60093624D01*
X185306488Y-60063927D01*
X185331258Y-60059000D01*
X185508742Y-60059000D01*
X185533512Y-60063927D01*
G37*
G36*
X182993512Y-60063927D02*
G01*
X183142812Y-60093624D01*
X183306784Y-60161544D01*
X183454354Y-60260147D01*
X183579853Y-60385646D01*
X183678456Y-60533216D01*
X183746376Y-60697188D01*
X183781000Y-60871259D01*
X183781000Y-61048741D01*
X183746376Y-61222812D01*
X183678456Y-61386784D01*
X183579853Y-61534354D01*
X183454354Y-61659853D01*
X183306784Y-61758456D01*
X183142812Y-61826376D01*
X182993512Y-61856073D01*
X182968742Y-61861000D01*
X182791258Y-61861000D01*
X182766488Y-61856073D01*
X182617188Y-61826376D01*
X182453216Y-61758456D01*
X182305646Y-61659853D01*
X182180147Y-61534354D01*
X182081544Y-61386784D01*
X182013624Y-61222812D01*
X181979000Y-61048741D01*
X181979000Y-60871259D01*
X182013624Y-60697188D01*
X182081544Y-60533216D01*
X182180147Y-60385646D01*
X182305646Y-60260147D01*
X182453216Y-60161544D01*
X182617188Y-60093624D01*
X182766488Y-60063927D01*
X182791258Y-60059000D01*
X182968742Y-60059000D01*
X182993512Y-60063927D01*
G37*
G36*
X180453512Y-60063927D02*
G01*
X180602812Y-60093624D01*
X180766784Y-60161544D01*
X180914354Y-60260147D01*
X181039853Y-60385646D01*
X181138456Y-60533216D01*
X181206376Y-60697188D01*
X181241000Y-60871259D01*
X181241000Y-61048741D01*
X181206376Y-61222812D01*
X181138456Y-61386784D01*
X181039853Y-61534354D01*
X180914354Y-61659853D01*
X180766784Y-61758456D01*
X180602812Y-61826376D01*
X180453512Y-61856073D01*
X180428742Y-61861000D01*
X180251258Y-61861000D01*
X180226488Y-61856073D01*
X180077188Y-61826376D01*
X179913216Y-61758456D01*
X179765646Y-61659853D01*
X179640147Y-61534354D01*
X179541544Y-61386784D01*
X179473624Y-61222812D01*
X179439000Y-61048741D01*
X179439000Y-60871259D01*
X179473624Y-60697188D01*
X179541544Y-60533216D01*
X179640147Y-60385646D01*
X179765646Y-60260147D01*
X179913216Y-60161544D01*
X180077188Y-60093624D01*
X180226488Y-60063927D01*
X180251258Y-60059000D01*
X180428742Y-60059000D01*
X180453512Y-60063927D01*
G37*
G36*
X160133512Y-60063927D02*
G01*
X160282812Y-60093624D01*
X160446784Y-60161544D01*
X160594354Y-60260147D01*
X160719853Y-60385646D01*
X160818456Y-60533216D01*
X160886376Y-60697188D01*
X160921000Y-60871259D01*
X160921000Y-61048741D01*
X160886376Y-61222812D01*
X160818456Y-61386784D01*
X160719853Y-61534354D01*
X160594354Y-61659853D01*
X160446784Y-61758456D01*
X160282812Y-61826376D01*
X160133512Y-61856073D01*
X160108742Y-61861000D01*
X159931258Y-61861000D01*
X159906488Y-61856073D01*
X159757188Y-61826376D01*
X159593216Y-61758456D01*
X159445646Y-61659853D01*
X159320147Y-61534354D01*
X159221544Y-61386784D01*
X159153624Y-61222812D01*
X159119000Y-61048741D01*
X159119000Y-60871259D01*
X159153624Y-60697188D01*
X159221544Y-60533216D01*
X159320147Y-60385646D01*
X159445646Y-60260147D01*
X159593216Y-60161544D01*
X159757188Y-60093624D01*
X159906488Y-60063927D01*
X159931258Y-60059000D01*
X160108742Y-60059000D01*
X160133512Y-60063927D01*
G37*
G36*
X162673512Y-60063927D02*
G01*
X162822812Y-60093624D01*
X162986784Y-60161544D01*
X163134354Y-60260147D01*
X163259853Y-60385646D01*
X163358456Y-60533216D01*
X163426376Y-60697188D01*
X163461000Y-60871259D01*
X163461000Y-61048741D01*
X163426376Y-61222812D01*
X163358456Y-61386784D01*
X163259853Y-61534354D01*
X163134354Y-61659853D01*
X162986784Y-61758456D01*
X162822812Y-61826376D01*
X162673512Y-61856073D01*
X162648742Y-61861000D01*
X162471258Y-61861000D01*
X162446488Y-61856073D01*
X162297188Y-61826376D01*
X162133216Y-61758456D01*
X161985646Y-61659853D01*
X161860147Y-61534354D01*
X161761544Y-61386784D01*
X161693624Y-61222812D01*
X161659000Y-61048741D01*
X161659000Y-60871259D01*
X161693624Y-60697188D01*
X161761544Y-60533216D01*
X161860147Y-60385646D01*
X161985646Y-60260147D01*
X162133216Y-60161544D01*
X162297188Y-60093624D01*
X162446488Y-60063927D01*
X162471258Y-60059000D01*
X162648742Y-60059000D01*
X162673512Y-60063927D01*
G37*
G36*
X165213512Y-60063927D02*
G01*
X165362812Y-60093624D01*
X165526784Y-60161544D01*
X165674354Y-60260147D01*
X165799853Y-60385646D01*
X165898456Y-60533216D01*
X165966376Y-60697188D01*
X166001000Y-60871259D01*
X166001000Y-61048741D01*
X165966376Y-61222812D01*
X165898456Y-61386784D01*
X165799853Y-61534354D01*
X165674354Y-61659853D01*
X165526784Y-61758456D01*
X165362812Y-61826376D01*
X165213512Y-61856073D01*
X165188742Y-61861000D01*
X165011258Y-61861000D01*
X164986488Y-61856073D01*
X164837188Y-61826376D01*
X164673216Y-61758456D01*
X164525646Y-61659853D01*
X164400147Y-61534354D01*
X164301544Y-61386784D01*
X164233624Y-61222812D01*
X164199000Y-61048741D01*
X164199000Y-60871259D01*
X164233624Y-60697188D01*
X164301544Y-60533216D01*
X164400147Y-60385646D01*
X164525646Y-60260147D01*
X164673216Y-60161544D01*
X164837188Y-60093624D01*
X164986488Y-60063927D01*
X165011258Y-60059000D01*
X165188742Y-60059000D01*
X165213512Y-60063927D01*
G37*
G36*
X167753512Y-60063927D02*
G01*
X167902812Y-60093624D01*
X168066784Y-60161544D01*
X168214354Y-60260147D01*
X168339853Y-60385646D01*
X168438456Y-60533216D01*
X168506376Y-60697188D01*
X168541000Y-60871259D01*
X168541000Y-61048741D01*
X168506376Y-61222812D01*
X168438456Y-61386784D01*
X168339853Y-61534354D01*
X168214354Y-61659853D01*
X168066784Y-61758456D01*
X167902812Y-61826376D01*
X167753512Y-61856073D01*
X167728742Y-61861000D01*
X167551258Y-61861000D01*
X167526488Y-61856073D01*
X167377188Y-61826376D01*
X167213216Y-61758456D01*
X167065646Y-61659853D01*
X166940147Y-61534354D01*
X166841544Y-61386784D01*
X166773624Y-61222812D01*
X166739000Y-61048741D01*
X166739000Y-60871259D01*
X166773624Y-60697188D01*
X166841544Y-60533216D01*
X166940147Y-60385646D01*
X167065646Y-60260147D01*
X167213216Y-60161544D01*
X167377188Y-60093624D01*
X167526488Y-60063927D01*
X167551258Y-60059000D01*
X167728742Y-60059000D01*
X167753512Y-60063927D01*
G37*
G36*
X170293512Y-60063927D02*
G01*
X170442812Y-60093624D01*
X170606784Y-60161544D01*
X170754354Y-60260147D01*
X170879853Y-60385646D01*
X170978456Y-60533216D01*
X171046376Y-60697188D01*
X171081000Y-60871259D01*
X171081000Y-61048741D01*
X171046376Y-61222812D01*
X170978456Y-61386784D01*
X170879853Y-61534354D01*
X170754354Y-61659853D01*
X170606784Y-61758456D01*
X170442812Y-61826376D01*
X170293512Y-61856073D01*
X170268742Y-61861000D01*
X170091258Y-61861000D01*
X170066488Y-61856073D01*
X169917188Y-61826376D01*
X169753216Y-61758456D01*
X169605646Y-61659853D01*
X169480147Y-61534354D01*
X169381544Y-61386784D01*
X169313624Y-61222812D01*
X169279000Y-61048741D01*
X169279000Y-60871259D01*
X169313624Y-60697188D01*
X169381544Y-60533216D01*
X169480147Y-60385646D01*
X169605646Y-60260147D01*
X169753216Y-60161544D01*
X169917188Y-60093624D01*
X170066488Y-60063927D01*
X170091258Y-60059000D01*
X170268742Y-60059000D01*
X170293512Y-60063927D01*
G37*
G36*
X172833512Y-60063927D02*
G01*
X172982812Y-60093624D01*
X173146784Y-60161544D01*
X173294354Y-60260147D01*
X173419853Y-60385646D01*
X173518456Y-60533216D01*
X173586376Y-60697188D01*
X173621000Y-60871259D01*
X173621000Y-61048741D01*
X173586376Y-61222812D01*
X173518456Y-61386784D01*
X173419853Y-61534354D01*
X173294354Y-61659853D01*
X173146784Y-61758456D01*
X172982812Y-61826376D01*
X172833512Y-61856073D01*
X172808742Y-61861000D01*
X172631258Y-61861000D01*
X172606488Y-61856073D01*
X172457188Y-61826376D01*
X172293216Y-61758456D01*
X172145646Y-61659853D01*
X172020147Y-61534354D01*
X171921544Y-61386784D01*
X171853624Y-61222812D01*
X171819000Y-61048741D01*
X171819000Y-60871259D01*
X171853624Y-60697188D01*
X171921544Y-60533216D01*
X172020147Y-60385646D01*
X172145646Y-60260147D01*
X172293216Y-60161544D01*
X172457188Y-60093624D01*
X172606488Y-60063927D01*
X172631258Y-60059000D01*
X172808742Y-60059000D01*
X172833512Y-60063927D01*
G37*
G36*
X175373512Y-60063927D02*
G01*
X175522812Y-60093624D01*
X175686784Y-60161544D01*
X175834354Y-60260147D01*
X175959853Y-60385646D01*
X176058456Y-60533216D01*
X176126376Y-60697188D01*
X176161000Y-60871259D01*
X176161000Y-61048741D01*
X176126376Y-61222812D01*
X176058456Y-61386784D01*
X175959853Y-61534354D01*
X175834354Y-61659853D01*
X175686784Y-61758456D01*
X175522812Y-61826376D01*
X175373512Y-61856073D01*
X175348742Y-61861000D01*
X175171258Y-61861000D01*
X175146488Y-61856073D01*
X174997188Y-61826376D01*
X174833216Y-61758456D01*
X174685646Y-61659853D01*
X174560147Y-61534354D01*
X174461544Y-61386784D01*
X174393624Y-61222812D01*
X174359000Y-61048741D01*
X174359000Y-60871259D01*
X174393624Y-60697188D01*
X174461544Y-60533216D01*
X174560147Y-60385646D01*
X174685646Y-60260147D01*
X174833216Y-60161544D01*
X174997188Y-60093624D01*
X175146488Y-60063927D01*
X175171258Y-60059000D01*
X175348742Y-60059000D01*
X175373512Y-60063927D01*
G37*
G36*
X177913512Y-60063927D02*
G01*
X178062812Y-60093624D01*
X178226784Y-60161544D01*
X178374354Y-60260147D01*
X178499853Y-60385646D01*
X178598456Y-60533216D01*
X178666376Y-60697188D01*
X178701000Y-60871259D01*
X178701000Y-61048741D01*
X178666376Y-61222812D01*
X178598456Y-61386784D01*
X178499853Y-61534354D01*
X178374354Y-61659853D01*
X178226784Y-61758456D01*
X178062812Y-61826376D01*
X177913512Y-61856073D01*
X177888742Y-61861000D01*
X177711258Y-61861000D01*
X177686488Y-61856073D01*
X177537188Y-61826376D01*
X177373216Y-61758456D01*
X177225646Y-61659853D01*
X177100147Y-61534354D01*
X177001544Y-61386784D01*
X176933624Y-61222812D01*
X176899000Y-61048741D01*
X176899000Y-60871259D01*
X176933624Y-60697188D01*
X177001544Y-60533216D01*
X177100147Y-60385646D01*
X177225646Y-60260147D01*
X177373216Y-60161544D01*
X177537188Y-60093624D01*
X177686488Y-60063927D01*
X177711258Y-60059000D01*
X177888742Y-60059000D01*
X177913512Y-60063927D01*
G37*
G36*
X190613512Y-60063927D02*
G01*
X190762812Y-60093624D01*
X190926784Y-60161544D01*
X191074354Y-60260147D01*
X191199853Y-60385646D01*
X191298456Y-60533216D01*
X191366376Y-60697188D01*
X191401000Y-60871259D01*
X191401000Y-61048741D01*
X191366376Y-61222812D01*
X191298456Y-61386784D01*
X191199853Y-61534354D01*
X191074354Y-61659853D01*
X190926784Y-61758456D01*
X190762812Y-61826376D01*
X190613512Y-61856073D01*
X190588742Y-61861000D01*
X190411258Y-61861000D01*
X190386488Y-61856073D01*
X190237188Y-61826376D01*
X190073216Y-61758456D01*
X189925646Y-61659853D01*
X189800147Y-61534354D01*
X189701544Y-61386784D01*
X189633624Y-61222812D01*
X189599000Y-61048741D01*
X189599000Y-60871259D01*
X189633624Y-60697188D01*
X189701544Y-60533216D01*
X189800147Y-60385646D01*
X189925646Y-60260147D01*
X190073216Y-60161544D01*
X190237188Y-60093624D01*
X190386488Y-60063927D01*
X190411258Y-60059000D01*
X190588742Y-60059000D01*
X190613512Y-60063927D01*
G37*
M02*
