G04 #@! TF.GenerationSoftware,KiCad,Pcbnew,(5.1.5-0)*
G04 #@! TF.CreationDate,2020-02-13T07:59:00-05:00*
G04 #@! TF.ProjectId,bfunc,6266756e-632e-46b6-9963-61645f706362,rev?*
G04 #@! TF.SameCoordinates,Original*
G04 #@! TF.FileFunction,Legend,Top*
G04 #@! TF.FilePolarity,Positive*
%FSLAX46Y46*%
G04 Gerber Fmt 4.6, Leading zero omitted, Abs format (unit mm)*
G04 Created by KiCad (PCBNEW (5.1.5-0)) date 2020-02-13 07:59:00*
%MOMM*%
%LPD*%
G04 APERTURE LIST*
%ADD10C,0.120000*%
%ADD11C,0.150000*%
G04 APERTURE END LIST*
D10*
X162942200Y-62741500D02*
X168142200Y-62741500D01*
X162942200Y-70481500D02*
X168142200Y-70481500D01*
X161502200Y-63311500D02*
X162942200Y-63311500D01*
X162942200Y-62741500D02*
X162942200Y-63311500D01*
X168142200Y-62741500D02*
X168142200Y-63311500D01*
X162942200Y-69911500D02*
X162942200Y-70481500D01*
X168142200Y-69911500D02*
X168142200Y-70481500D01*
X162942200Y-64831500D02*
X162942200Y-65851500D01*
X168142200Y-64831500D02*
X168142200Y-65851500D01*
X162942200Y-67371500D02*
X162942200Y-68391500D01*
X168142200Y-67371500D02*
X168142200Y-68391500D01*
X160160442Y-79167920D02*
X160677598Y-79167920D01*
X160160442Y-80587920D02*
X160677598Y-80587920D01*
X181653922Y-67639000D02*
X182171078Y-67639000D01*
X181653922Y-66219000D02*
X182171078Y-66219000D01*
X178256000Y-77269078D02*
X178256000Y-76751922D01*
X176836000Y-77269078D02*
X176836000Y-76751922D01*
X194067500Y-70569322D02*
X194067500Y-71086478D01*
X192647500Y-70569322D02*
X192647500Y-71086478D01*
X199294680Y-77980038D02*
X199294680Y-77462882D01*
X200714680Y-77980038D02*
X200714680Y-77462882D01*
X193785560Y-77921378D02*
X193785560Y-77404222D01*
X192365560Y-77921378D02*
X192365560Y-77404222D01*
X174787779Y-78488000D02*
X174462221Y-78488000D01*
X174787779Y-77468000D02*
X174462221Y-77468000D01*
X145960011Y-66918137D02*
G75*
G03X145973600Y-70380800I4763589J-1712663D01*
G01*
X149010937Y-73394389D02*
G75*
G03X152473600Y-73380800I1712663J4763589D01*
G01*
X155487189Y-70343463D02*
G75*
G03X155473600Y-66880800I-4763589J1712663D01*
G01*
X152436263Y-63867211D02*
G75*
G03X148973600Y-63880800I-1712663J-4763589D01*
G01*
X188655000Y-65084000D02*
X188655000Y-62424000D01*
X183515000Y-65084000D02*
X188655000Y-65084000D01*
X183515000Y-62424000D02*
X188655000Y-62424000D01*
X183515000Y-65084000D02*
X183515000Y-62424000D01*
X182245000Y-65084000D02*
X180915000Y-65084000D01*
X180915000Y-65084000D02*
X180915000Y-63754000D01*
X202511400Y-77621640D02*
X202511400Y-77171640D01*
X204361400Y-77621640D02*
X202511400Y-77621640D01*
X206911400Y-69821640D02*
X206661400Y-69821640D01*
X206911400Y-77621640D02*
X206661400Y-77621640D01*
X204361400Y-69821640D02*
X202511400Y-69821640D01*
X202511400Y-69821640D02*
X202511400Y-70271640D01*
X201961400Y-75421640D02*
X201961400Y-74971640D01*
X201961400Y-75421640D02*
X202411400Y-75421640D01*
X207070000Y-85150000D02*
X207070000Y-82490000D01*
X158750000Y-85150000D02*
X207070000Y-85150000D01*
X158750000Y-82490000D02*
X207070000Y-82490000D01*
X158750000Y-85150000D02*
X158750000Y-82490000D01*
X157480000Y-85150000D02*
X156150000Y-85150000D01*
X156150000Y-85150000D02*
X156150000Y-83820000D01*
X156150000Y-62290000D02*
X156150000Y-60960000D01*
X157480000Y-62290000D02*
X156150000Y-62290000D01*
X158750000Y-62290000D02*
X158750000Y-59630000D01*
X158750000Y-59630000D02*
X207070000Y-59630000D01*
X158750000Y-62290000D02*
X207070000Y-62290000D01*
X207070000Y-62290000D02*
X207070000Y-59630000D01*
X200828219Y-80860900D02*
G75*
G03X200828219Y-80860900I-803219J0D01*
G01*
X193883859Y-81003140D02*
G75*
G03X193883859Y-81003140I-803219J0D01*
G01*
X157536240Y-75237340D02*
X157536240Y-73737340D01*
X160756240Y-76737340D02*
X160756240Y-73737340D01*
X188678500Y-78286000D02*
X189128500Y-78286000D01*
X189128500Y-78286000D02*
X189128500Y-77836000D01*
X182358500Y-78286000D02*
X181908500Y-78286000D01*
X181908500Y-78286000D02*
X181908500Y-77836000D01*
X188678500Y-71066000D02*
X189128500Y-71066000D01*
X189128500Y-71066000D02*
X189128500Y-71516000D01*
X182358500Y-71066000D02*
X181908500Y-71066000D01*
X181908500Y-71066000D02*
X181908500Y-71516000D01*
X181908500Y-71516000D02*
X180618500Y-71516000D01*
X195744440Y-79313640D02*
X198194440Y-79313640D01*
X197544440Y-76093640D02*
X195744440Y-76093640D01*
X167263040Y-76434440D02*
X167513040Y-76434440D01*
X167263040Y-75894440D02*
X167263040Y-76434440D01*
X163663040Y-78864440D02*
X163663040Y-78434440D01*
X167263040Y-78864440D02*
X163663040Y-78864440D01*
X167263040Y-78434440D02*
X167263040Y-78864440D01*
X167513040Y-78434440D02*
X167263040Y-78434440D01*
X163663040Y-76434440D02*
X163663040Y-75894440D01*
X167263040Y-73464440D02*
X167263040Y-73894440D01*
X163663040Y-73464440D02*
X167263040Y-73464440D01*
X163663040Y-73894440D02*
X163663040Y-73464440D01*
X179795000Y-71844000D02*
X176945000Y-71844000D01*
X179795000Y-73444000D02*
X179795000Y-71844000D01*
X176945000Y-73444000D02*
X179795000Y-73444000D01*
X177549120Y-64088580D02*
X177549120Y-63988580D01*
X173149120Y-65588580D02*
X177549120Y-65588580D01*
X177549120Y-62488580D02*
X173149120Y-62488580D01*
X173149120Y-64088580D02*
X173149120Y-63988580D01*
X146879000Y-76787700D02*
X146879000Y-79447700D01*
X149479000Y-76787700D02*
X146879000Y-76787700D01*
X149479000Y-79447700D02*
X146879000Y-79447700D01*
X149479000Y-76787700D02*
X149479000Y-79447700D01*
X150749000Y-76787700D02*
X152079000Y-76787700D01*
X152079000Y-76787700D02*
X152079000Y-78117700D01*
X192103700Y-62817700D02*
X192103700Y-68017700D01*
X202323700Y-62817700D02*
X192103700Y-62817700D01*
X204923700Y-68017700D02*
X192103700Y-68017700D01*
X202323700Y-62817700D02*
X202323700Y-65417700D01*
X202323700Y-65417700D02*
X204923700Y-65417700D01*
X204923700Y-65417700D02*
X204923700Y-68017700D01*
X203593700Y-62817700D02*
X204923700Y-62817700D01*
X204923700Y-62817700D02*
X204923700Y-64147700D01*
D11*
X166011266Y-71334380D02*
X166011266Y-72048666D01*
X165963647Y-72191523D01*
X165868409Y-72286761D01*
X165725552Y-72334380D01*
X165630314Y-72334380D01*
X167011266Y-72334380D02*
X166439838Y-72334380D01*
X166725552Y-72334380D02*
X166725552Y-71334380D01*
X166630314Y-71477238D01*
X166535076Y-71572476D01*
X166439838Y-71620095D01*
X168837882Y-78439306D02*
X168885501Y-78486925D01*
X168933120Y-78629782D01*
X168933120Y-78725020D01*
X168885501Y-78867878D01*
X168790263Y-78963116D01*
X168695025Y-79010735D01*
X168504549Y-79058354D01*
X168361692Y-79058354D01*
X168171216Y-79010735D01*
X168075978Y-78963116D01*
X167980740Y-78867878D01*
X167933120Y-78725020D01*
X167933120Y-78629782D01*
X167980740Y-78486925D01*
X168028359Y-78439306D01*
X168933120Y-77486925D02*
X168933120Y-78058354D01*
X168933120Y-77772640D02*
X167933120Y-77772640D01*
X168075978Y-77867878D01*
X168171216Y-77963116D01*
X168218835Y-78058354D01*
X163162953Y-80247762D02*
X163115334Y-80295381D01*
X162972477Y-80343000D01*
X162877239Y-80343000D01*
X162734381Y-80295381D01*
X162639143Y-80200143D01*
X162591524Y-80104905D01*
X162543905Y-79914429D01*
X162543905Y-79771572D01*
X162591524Y-79581096D01*
X162639143Y-79485858D01*
X162734381Y-79390620D01*
X162877239Y-79343000D01*
X162972477Y-79343000D01*
X163115334Y-79390620D01*
X163162953Y-79438239D01*
X163543905Y-79438239D02*
X163591524Y-79390620D01*
X163686762Y-79343000D01*
X163924858Y-79343000D01*
X164020096Y-79390620D01*
X164067715Y-79438239D01*
X164115334Y-79533477D01*
X164115334Y-79628715D01*
X164067715Y-79771572D01*
X163496286Y-80343000D01*
X164115334Y-80343000D01*
X158398482Y-80761006D02*
X158446101Y-80808625D01*
X158493720Y-80951482D01*
X158493720Y-81046720D01*
X158446101Y-81189578D01*
X158350863Y-81284816D01*
X158255625Y-81332435D01*
X158065149Y-81380054D01*
X157922292Y-81380054D01*
X157731816Y-81332435D01*
X157636578Y-81284816D01*
X157541340Y-81189578D01*
X157493720Y-81046720D01*
X157493720Y-80951482D01*
X157541340Y-80808625D01*
X157588959Y-80761006D01*
X157493720Y-80427673D02*
X157493720Y-79808625D01*
X157874673Y-80141959D01*
X157874673Y-79999101D01*
X157922292Y-79903863D01*
X157969911Y-79856244D01*
X158065149Y-79808625D01*
X158303244Y-79808625D01*
X158398482Y-79856244D01*
X158446101Y-79903863D01*
X158493720Y-79999101D01*
X158493720Y-80284816D01*
X158446101Y-80380054D01*
X158398482Y-80427673D01*
X161745493Y-78375782D02*
X161697874Y-78423401D01*
X161555017Y-78471020D01*
X161459779Y-78471020D01*
X161316921Y-78423401D01*
X161221683Y-78328163D01*
X161174064Y-78232925D01*
X161126445Y-78042449D01*
X161126445Y-77899592D01*
X161174064Y-77709116D01*
X161221683Y-77613878D01*
X161316921Y-77518640D01*
X161459779Y-77471020D01*
X161555017Y-77471020D01*
X161697874Y-77518640D01*
X161745493Y-77566259D01*
X162602636Y-77804354D02*
X162602636Y-78471020D01*
X162364540Y-77423401D02*
X162126445Y-78137687D01*
X162745493Y-78137687D01*
X162683462Y-75073806D02*
X162731081Y-75121425D01*
X162778700Y-75264282D01*
X162778700Y-75359520D01*
X162731081Y-75502378D01*
X162635843Y-75597616D01*
X162540605Y-75645235D01*
X162350129Y-75692854D01*
X162207272Y-75692854D01*
X162016796Y-75645235D01*
X161921558Y-75597616D01*
X161826320Y-75502378D01*
X161778700Y-75359520D01*
X161778700Y-75264282D01*
X161826320Y-75121425D01*
X161873939Y-75073806D01*
X161778700Y-74169044D02*
X161778700Y-74645235D01*
X162254891Y-74692854D01*
X162207272Y-74645235D01*
X162159653Y-74549997D01*
X162159653Y-74311901D01*
X162207272Y-74216663D01*
X162254891Y-74169044D01*
X162350129Y-74121425D01*
X162588224Y-74121425D01*
X162683462Y-74169044D01*
X162731081Y-74216663D01*
X162778700Y-74311901D01*
X162778700Y-74549997D01*
X162731081Y-74645235D01*
X162683462Y-74692854D01*
X156950682Y-79734706D02*
X156998301Y-79782325D01*
X157045920Y-79925182D01*
X157045920Y-80020420D01*
X156998301Y-80163278D01*
X156903063Y-80258516D01*
X156807825Y-80306135D01*
X156617349Y-80353754D01*
X156474492Y-80353754D01*
X156284016Y-80306135D01*
X156188778Y-80258516D01*
X156093540Y-80163278D01*
X156045920Y-80020420D01*
X156045920Y-79925182D01*
X156093540Y-79782325D01*
X156141159Y-79734706D01*
X156045920Y-78877563D02*
X156045920Y-79068040D01*
X156093540Y-79163278D01*
X156141159Y-79210897D01*
X156284016Y-79306135D01*
X156474492Y-79353754D01*
X156855444Y-79353754D01*
X156950682Y-79306135D01*
X156998301Y-79258516D01*
X157045920Y-79163278D01*
X157045920Y-78972801D01*
X156998301Y-78877563D01*
X156950682Y-78829944D01*
X156855444Y-78782325D01*
X156617349Y-78782325D01*
X156522111Y-78829944D01*
X156474492Y-78877563D01*
X156426873Y-78972801D01*
X156426873Y-79163278D01*
X156474492Y-79258516D01*
X156522111Y-79306135D01*
X156617349Y-79353754D01*
X173092382Y-72724306D02*
X173140001Y-72771925D01*
X173187620Y-72914782D01*
X173187620Y-73010020D01*
X173140001Y-73152878D01*
X173044763Y-73248116D01*
X172949525Y-73295735D01*
X172759049Y-73343354D01*
X172616192Y-73343354D01*
X172425716Y-73295735D01*
X172330478Y-73248116D01*
X172235240Y-73152878D01*
X172187620Y-73010020D01*
X172187620Y-72914782D01*
X172235240Y-72771925D01*
X172282859Y-72724306D01*
X172187620Y-72390973D02*
X172187620Y-71724306D01*
X173187620Y-72152878D01*
X175312342Y-67311566D02*
X175359961Y-67359185D01*
X175407580Y-67502042D01*
X175407580Y-67597280D01*
X175359961Y-67740138D01*
X175264723Y-67835376D01*
X175169485Y-67882995D01*
X174979009Y-67930614D01*
X174836152Y-67930614D01*
X174645676Y-67882995D01*
X174550438Y-67835376D01*
X174455200Y-67740138D01*
X174407580Y-67597280D01*
X174407580Y-67502042D01*
X174455200Y-67359185D01*
X174502819Y-67311566D01*
X174836152Y-66740138D02*
X174788533Y-66835376D01*
X174740914Y-66882995D01*
X174645676Y-66930614D01*
X174598057Y-66930614D01*
X174502819Y-66882995D01*
X174455200Y-66835376D01*
X174407580Y-66740138D01*
X174407580Y-66549661D01*
X174455200Y-66454423D01*
X174502819Y-66406804D01*
X174598057Y-66359185D01*
X174645676Y-66359185D01*
X174740914Y-66406804D01*
X174788533Y-66454423D01*
X174836152Y-66549661D01*
X174836152Y-66740138D01*
X174883771Y-66835376D01*
X174931390Y-66882995D01*
X175026628Y-66930614D01*
X175217104Y-66930614D01*
X175312342Y-66882995D01*
X175359961Y-66835376D01*
X175407580Y-66740138D01*
X175407580Y-66549661D01*
X175359961Y-66454423D01*
X175312342Y-66406804D01*
X175217104Y-66359185D01*
X175026628Y-66359185D01*
X174931390Y-66406804D01*
X174883771Y-66454423D01*
X174836152Y-66549661D01*
X173229542Y-67286166D02*
X173277161Y-67333785D01*
X173324780Y-67476642D01*
X173324780Y-67571880D01*
X173277161Y-67714738D01*
X173181923Y-67809976D01*
X173086685Y-67857595D01*
X172896209Y-67905214D01*
X172753352Y-67905214D01*
X172562876Y-67857595D01*
X172467638Y-67809976D01*
X172372400Y-67714738D01*
X172324780Y-67571880D01*
X172324780Y-67476642D01*
X172372400Y-67333785D01*
X172420019Y-67286166D01*
X173324780Y-66809976D02*
X173324780Y-66619500D01*
X173277161Y-66524261D01*
X173229542Y-66476642D01*
X173086685Y-66381404D01*
X172896209Y-66333785D01*
X172515257Y-66333785D01*
X172420019Y-66381404D01*
X172372400Y-66429023D01*
X172324780Y-66524261D01*
X172324780Y-66714738D01*
X172372400Y-66809976D01*
X172420019Y-66857595D01*
X172515257Y-66905214D01*
X172753352Y-66905214D01*
X172848590Y-66857595D01*
X172896209Y-66809976D01*
X172943828Y-66714738D01*
X172943828Y-66524261D01*
X172896209Y-66429023D01*
X172848590Y-66381404D01*
X172753352Y-66333785D01*
X177868342Y-67425842D02*
X177820723Y-67473461D01*
X177677866Y-67521080D01*
X177582628Y-67521080D01*
X177439771Y-67473461D01*
X177344533Y-67378223D01*
X177296914Y-67282985D01*
X177249295Y-67092509D01*
X177249295Y-66949652D01*
X177296914Y-66759176D01*
X177344533Y-66663938D01*
X177439771Y-66568700D01*
X177582628Y-66521080D01*
X177677866Y-66521080D01*
X177820723Y-66568700D01*
X177868342Y-66616319D01*
X178820723Y-67521080D02*
X178249295Y-67521080D01*
X178535009Y-67521080D02*
X178535009Y-66521080D01*
X178439771Y-66663938D01*
X178344533Y-66759176D01*
X178249295Y-66806795D01*
X179439771Y-66521080D02*
X179535009Y-66521080D01*
X179630247Y-66568700D01*
X179677866Y-66616319D01*
X179725485Y-66711557D01*
X179773104Y-66902033D01*
X179773104Y-67140128D01*
X179725485Y-67330604D01*
X179677866Y-67425842D01*
X179630247Y-67473461D01*
X179535009Y-67521080D01*
X179439771Y-67521080D01*
X179344533Y-67473461D01*
X179296914Y-67425842D01*
X179249295Y-67330604D01*
X179201676Y-67140128D01*
X179201676Y-66902033D01*
X179249295Y-66711557D01*
X179296914Y-66616319D01*
X179344533Y-66568700D01*
X179439771Y-66521080D01*
X179544742Y-69241942D02*
X179497123Y-69289561D01*
X179354266Y-69337180D01*
X179259028Y-69337180D01*
X179116171Y-69289561D01*
X179020933Y-69194323D01*
X178973314Y-69099085D01*
X178925695Y-68908609D01*
X178925695Y-68765752D01*
X178973314Y-68575276D01*
X179020933Y-68480038D01*
X179116171Y-68384800D01*
X179259028Y-68337180D01*
X179354266Y-68337180D01*
X179497123Y-68384800D01*
X179544742Y-68432419D01*
X180497123Y-69337180D02*
X179925695Y-69337180D01*
X180211409Y-69337180D02*
X180211409Y-68337180D01*
X180116171Y-68480038D01*
X180020933Y-68575276D01*
X179925695Y-68622895D01*
X181449504Y-69337180D02*
X180878076Y-69337180D01*
X181163790Y-69337180D02*
X181163790Y-68337180D01*
X181068552Y-68480038D01*
X180973314Y-68575276D01*
X180878076Y-68622895D01*
X187273822Y-82034982D02*
X187226203Y-82082601D01*
X187083346Y-82130220D01*
X186988108Y-82130220D01*
X186845251Y-82082601D01*
X186750013Y-81987363D01*
X186702394Y-81892125D01*
X186654775Y-81701649D01*
X186654775Y-81558792D01*
X186702394Y-81368316D01*
X186750013Y-81273078D01*
X186845251Y-81177840D01*
X186988108Y-81130220D01*
X187083346Y-81130220D01*
X187226203Y-81177840D01*
X187273822Y-81225459D01*
X188226203Y-82130220D02*
X187654775Y-82130220D01*
X187940489Y-82130220D02*
X187940489Y-81130220D01*
X187845251Y-81273078D01*
X187750013Y-81368316D01*
X187654775Y-81415935D01*
X188607156Y-81225459D02*
X188654775Y-81177840D01*
X188750013Y-81130220D01*
X188988108Y-81130220D01*
X189083346Y-81177840D01*
X189130965Y-81225459D01*
X189178584Y-81320697D01*
X189178584Y-81415935D01*
X189130965Y-81558792D01*
X188559537Y-82130220D01*
X189178584Y-82130220D01*
X179935142Y-79509857D02*
X179982761Y-79557476D01*
X180030380Y-79700333D01*
X180030380Y-79795571D01*
X179982761Y-79938428D01*
X179887523Y-80033666D01*
X179792285Y-80081285D01*
X179601809Y-80128904D01*
X179458952Y-80128904D01*
X179268476Y-80081285D01*
X179173238Y-80033666D01*
X179078000Y-79938428D01*
X179030380Y-79795571D01*
X179030380Y-79700333D01*
X179078000Y-79557476D01*
X179125619Y-79509857D01*
X180030380Y-78557476D02*
X180030380Y-79128904D01*
X180030380Y-78843190D02*
X179030380Y-78843190D01*
X179173238Y-78938428D01*
X179268476Y-79033666D01*
X179316095Y-79128904D01*
X179030380Y-78224142D02*
X179030380Y-77605095D01*
X179411333Y-77938428D01*
X179411333Y-77795571D01*
X179458952Y-77700333D01*
X179506571Y-77652714D01*
X179601809Y-77605095D01*
X179839904Y-77605095D01*
X179935142Y-77652714D01*
X179982761Y-77700333D01*
X180030380Y-77795571D01*
X180030380Y-78081285D01*
X179982761Y-78176523D01*
X179935142Y-78224142D01*
X191936642Y-75153757D02*
X191984261Y-75201376D01*
X192031880Y-75344233D01*
X192031880Y-75439471D01*
X191984261Y-75582328D01*
X191889023Y-75677566D01*
X191793785Y-75725185D01*
X191603309Y-75772804D01*
X191460452Y-75772804D01*
X191269976Y-75725185D01*
X191174738Y-75677566D01*
X191079500Y-75582328D01*
X191031880Y-75439471D01*
X191031880Y-75344233D01*
X191079500Y-75201376D01*
X191127119Y-75153757D01*
X192031880Y-74201376D02*
X192031880Y-74772804D01*
X192031880Y-74487090D02*
X191031880Y-74487090D01*
X191174738Y-74582328D01*
X191269976Y-74677566D01*
X191317595Y-74772804D01*
X191365214Y-73344233D02*
X192031880Y-73344233D01*
X190984261Y-73582328D02*
X191698547Y-73820423D01*
X191698547Y-73201376D01*
X177903142Y-80906857D02*
X177950761Y-80954476D01*
X177998380Y-81097333D01*
X177998380Y-81192571D01*
X177950761Y-81335428D01*
X177855523Y-81430666D01*
X177760285Y-81478285D01*
X177569809Y-81525904D01*
X177426952Y-81525904D01*
X177236476Y-81478285D01*
X177141238Y-81430666D01*
X177046000Y-81335428D01*
X176998380Y-81192571D01*
X176998380Y-81097333D01*
X177046000Y-80954476D01*
X177093619Y-80906857D01*
X177998380Y-79954476D02*
X177998380Y-80525904D01*
X177998380Y-80240190D02*
X176998380Y-80240190D01*
X177141238Y-80335428D01*
X177236476Y-80430666D01*
X177284095Y-80525904D01*
X176998380Y-79049714D02*
X176998380Y-79525904D01*
X177474571Y-79573523D01*
X177426952Y-79525904D01*
X177379333Y-79430666D01*
X177379333Y-79192571D01*
X177426952Y-79097333D01*
X177474571Y-79049714D01*
X177569809Y-79002095D01*
X177807904Y-79002095D01*
X177903142Y-79049714D01*
X177950761Y-79097333D01*
X177998380Y-79192571D01*
X177998380Y-79430666D01*
X177950761Y-79525904D01*
X177903142Y-79573523D01*
X193663842Y-75128357D02*
X193711461Y-75175976D01*
X193759080Y-75318833D01*
X193759080Y-75414071D01*
X193711461Y-75556928D01*
X193616223Y-75652166D01*
X193520985Y-75699785D01*
X193330509Y-75747404D01*
X193187652Y-75747404D01*
X192997176Y-75699785D01*
X192901938Y-75652166D01*
X192806700Y-75556928D01*
X192759080Y-75414071D01*
X192759080Y-75318833D01*
X192806700Y-75175976D01*
X192854319Y-75128357D01*
X193759080Y-74175976D02*
X193759080Y-74747404D01*
X193759080Y-74461690D02*
X192759080Y-74461690D01*
X192901938Y-74556928D01*
X192997176Y-74652166D01*
X193044795Y-74747404D01*
X192759080Y-73318833D02*
X192759080Y-73509309D01*
X192806700Y-73604547D01*
X192854319Y-73652166D01*
X192997176Y-73747404D01*
X193187652Y-73795023D01*
X193568604Y-73795023D01*
X193663842Y-73747404D01*
X193711461Y-73699785D01*
X193759080Y-73604547D01*
X193759080Y-73414071D01*
X193711461Y-73318833D01*
X193663842Y-73271214D01*
X193568604Y-73223595D01*
X193330509Y-73223595D01*
X193235271Y-73271214D01*
X193187652Y-73318833D01*
X193140033Y-73414071D01*
X193140033Y-73604547D01*
X193187652Y-73699785D01*
X193235271Y-73747404D01*
X193330509Y-73795023D01*
X200407542Y-68882497D02*
X200455161Y-68930116D01*
X200502780Y-69072973D01*
X200502780Y-69168211D01*
X200455161Y-69311068D01*
X200359923Y-69406306D01*
X200264685Y-69453925D01*
X200074209Y-69501544D01*
X199931352Y-69501544D01*
X199740876Y-69453925D01*
X199645638Y-69406306D01*
X199550400Y-69311068D01*
X199502780Y-69168211D01*
X199502780Y-69072973D01*
X199550400Y-68930116D01*
X199598019Y-68882497D01*
X200502780Y-67930116D02*
X200502780Y-68501544D01*
X200502780Y-68215830D02*
X199502780Y-68215830D01*
X199645638Y-68311068D01*
X199740876Y-68406306D01*
X199788495Y-68501544D01*
X199502780Y-67596782D02*
X199502780Y-66930116D01*
X200502780Y-67358687D01*
X202246502Y-80198197D02*
X202294121Y-80245816D01*
X202341740Y-80388673D01*
X202341740Y-80483911D01*
X202294121Y-80626768D01*
X202198883Y-80722006D01*
X202103645Y-80769625D01*
X201913169Y-80817244D01*
X201770312Y-80817244D01*
X201579836Y-80769625D01*
X201484598Y-80722006D01*
X201389360Y-80626768D01*
X201341740Y-80483911D01*
X201341740Y-80388673D01*
X201389360Y-80245816D01*
X201436979Y-80198197D01*
X202341740Y-79245816D02*
X202341740Y-79817244D01*
X202341740Y-79531530D02*
X201341740Y-79531530D01*
X201484598Y-79626768D01*
X201579836Y-79722006D01*
X201627455Y-79817244D01*
X201770312Y-78674387D02*
X201722693Y-78769625D01*
X201675074Y-78817244D01*
X201579836Y-78864863D01*
X201532217Y-78864863D01*
X201436979Y-78817244D01*
X201389360Y-78769625D01*
X201341740Y-78674387D01*
X201341740Y-78483911D01*
X201389360Y-78388673D01*
X201436979Y-78341054D01*
X201532217Y-78293435D01*
X201579836Y-78293435D01*
X201675074Y-78341054D01*
X201722693Y-78388673D01*
X201770312Y-78483911D01*
X201770312Y-78674387D01*
X201817931Y-78769625D01*
X201865550Y-78817244D01*
X201960788Y-78864863D01*
X202151264Y-78864863D01*
X202246502Y-78817244D01*
X202294121Y-78769625D01*
X202341740Y-78674387D01*
X202341740Y-78483911D01*
X202294121Y-78388673D01*
X202246502Y-78341054D01*
X202151264Y-78293435D01*
X201960788Y-78293435D01*
X201865550Y-78341054D01*
X201817931Y-78388673D01*
X201770312Y-78483911D01*
X191782702Y-78305657D02*
X191830321Y-78353276D01*
X191877940Y-78496133D01*
X191877940Y-78591371D01*
X191830321Y-78734228D01*
X191735083Y-78829466D01*
X191639845Y-78877085D01*
X191449369Y-78924704D01*
X191306512Y-78924704D01*
X191116036Y-78877085D01*
X191020798Y-78829466D01*
X190925560Y-78734228D01*
X190877940Y-78591371D01*
X190877940Y-78496133D01*
X190925560Y-78353276D01*
X190973179Y-78305657D01*
X190973179Y-77924704D02*
X190925560Y-77877085D01*
X190877940Y-77781847D01*
X190877940Y-77543752D01*
X190925560Y-77448514D01*
X190973179Y-77400895D01*
X191068417Y-77353276D01*
X191163655Y-77353276D01*
X191306512Y-77400895D01*
X191877940Y-77972323D01*
X191877940Y-77353276D01*
X190877940Y-76734228D02*
X190877940Y-76638990D01*
X190925560Y-76543752D01*
X190973179Y-76496133D01*
X191068417Y-76448514D01*
X191258893Y-76400895D01*
X191496988Y-76400895D01*
X191687464Y-76448514D01*
X191782702Y-76496133D01*
X191830321Y-76543752D01*
X191877940Y-76638990D01*
X191877940Y-76734228D01*
X191830321Y-76829466D01*
X191782702Y-76877085D01*
X191687464Y-76924704D01*
X191496988Y-76972323D01*
X191258893Y-76972323D01*
X191068417Y-76924704D01*
X190973179Y-76877085D01*
X190925560Y-76829466D01*
X190877940Y-76734228D01*
X173791666Y-79336571D02*
X173458333Y-79336571D01*
X173458333Y-79860380D02*
X173458333Y-78860380D01*
X173934523Y-78860380D01*
X174648809Y-79336571D02*
X174791666Y-79384190D01*
X174839285Y-79431809D01*
X174886904Y-79527047D01*
X174886904Y-79669904D01*
X174839285Y-79765142D01*
X174791666Y-79812761D01*
X174696428Y-79860380D01*
X174315476Y-79860380D01*
X174315476Y-78860380D01*
X174648809Y-78860380D01*
X174744047Y-78908000D01*
X174791666Y-78955619D01*
X174839285Y-79050857D01*
X174839285Y-79146095D01*
X174791666Y-79241333D01*
X174744047Y-79288952D01*
X174648809Y-79336571D01*
X174315476Y-79336571D01*
X175839285Y-79860380D02*
X175267857Y-79860380D01*
X175553571Y-79860380D02*
X175553571Y-78860380D01*
X175458333Y-79003238D01*
X175363095Y-79098476D01*
X175267857Y-79146095D01*
X157019666Y-67943480D02*
X157019666Y-68657766D01*
X156972047Y-68800623D01*
X156876809Y-68895861D01*
X156733952Y-68943480D01*
X156638714Y-68943480D01*
X157400619Y-67943480D02*
X158019666Y-67943480D01*
X157686333Y-68324433D01*
X157829190Y-68324433D01*
X157924428Y-68372052D01*
X157972047Y-68419671D01*
X158019666Y-68514909D01*
X158019666Y-68753004D01*
X157972047Y-68848242D01*
X157924428Y-68895861D01*
X157829190Y-68943480D01*
X157543476Y-68943480D01*
X157448238Y-68895861D01*
X157400619Y-68848242D01*
X179367380Y-64087333D02*
X180081666Y-64087333D01*
X180224523Y-64134952D01*
X180319761Y-64230190D01*
X180367380Y-64373047D01*
X180367380Y-64468285D01*
X179700714Y-63182571D02*
X180367380Y-63182571D01*
X179319761Y-63420666D02*
X180034047Y-63658761D01*
X180034047Y-63039714D01*
X200613780Y-74054973D02*
X201328066Y-74054973D01*
X201470923Y-74102592D01*
X201566161Y-74197830D01*
X201613780Y-74340687D01*
X201613780Y-74435925D01*
X200613780Y-73150211D02*
X200613780Y-73340687D01*
X200661400Y-73435925D01*
X200709019Y-73483544D01*
X200851876Y-73578782D01*
X201042352Y-73626401D01*
X201423304Y-73626401D01*
X201518542Y-73578782D01*
X201566161Y-73531163D01*
X201613780Y-73435925D01*
X201613780Y-73245449D01*
X201566161Y-73150211D01*
X201518542Y-73102592D01*
X201423304Y-73054973D01*
X201185209Y-73054973D01*
X201089971Y-73102592D01*
X201042352Y-73150211D01*
X200994733Y-73245449D01*
X200994733Y-73435925D01*
X201042352Y-73531163D01*
X201089971Y-73578782D01*
X201185209Y-73626401D01*
X154602380Y-84153333D02*
X155316666Y-84153333D01*
X155459523Y-84200952D01*
X155554761Y-84296190D01*
X155602380Y-84439047D01*
X155602380Y-84534285D01*
X155602380Y-83629523D02*
X155602380Y-83439047D01*
X155554761Y-83343809D01*
X155507142Y-83296190D01*
X155364285Y-83200952D01*
X155173809Y-83153333D01*
X154792857Y-83153333D01*
X154697619Y-83200952D01*
X154650000Y-83248571D01*
X154602380Y-83343809D01*
X154602380Y-83534285D01*
X154650000Y-83629523D01*
X154697619Y-83677142D01*
X154792857Y-83724761D01*
X155030952Y-83724761D01*
X155126190Y-83677142D01*
X155173809Y-83629523D01*
X155221428Y-83534285D01*
X155221428Y-83343809D01*
X155173809Y-83248571D01*
X155126190Y-83200952D01*
X155030952Y-83153333D01*
X154602380Y-61769523D02*
X155316666Y-61769523D01*
X155459523Y-61817142D01*
X155554761Y-61912380D01*
X155602380Y-62055238D01*
X155602380Y-62150476D01*
X155602380Y-60769523D02*
X155602380Y-61340952D01*
X155602380Y-61055238D02*
X154602380Y-61055238D01*
X154745238Y-61150476D01*
X154840476Y-61245714D01*
X154888095Y-61340952D01*
X154602380Y-60150476D02*
X154602380Y-60055238D01*
X154650000Y-59960000D01*
X154697619Y-59912380D01*
X154792857Y-59864761D01*
X154983333Y-59817142D01*
X155221428Y-59817142D01*
X155411904Y-59864761D01*
X155507142Y-59912380D01*
X155554761Y-59960000D01*
X155602380Y-60055238D01*
X155602380Y-60150476D01*
X155554761Y-60245714D01*
X155507142Y-60293333D01*
X155411904Y-60340952D01*
X155221428Y-60388571D01*
X154983333Y-60388571D01*
X154792857Y-60340952D01*
X154697619Y-60293333D01*
X154650000Y-60245714D01*
X154602380Y-60150476D01*
X167298073Y-80452220D02*
X166964740Y-79976030D01*
X166726644Y-80452220D02*
X166726644Y-79452220D01*
X167107597Y-79452220D01*
X167202835Y-79499840D01*
X167250454Y-79547459D01*
X167298073Y-79642697D01*
X167298073Y-79785554D01*
X167250454Y-79880792D01*
X167202835Y-79928411D01*
X167107597Y-79976030D01*
X166726644Y-79976030D01*
X168250454Y-80452220D02*
X167679025Y-80452220D01*
X167964740Y-80452220D02*
X167964740Y-79452220D01*
X167869501Y-79595078D01*
X167774263Y-79690316D01*
X167679025Y-79737935D01*
X173160620Y-74819666D02*
X172684430Y-75153000D01*
X173160620Y-75391095D02*
X172160620Y-75391095D01*
X172160620Y-75010142D01*
X172208240Y-74914904D01*
X172255859Y-74867285D01*
X172351097Y-74819666D01*
X172493954Y-74819666D01*
X172589192Y-74867285D01*
X172636811Y-74914904D01*
X172684430Y-75010142D01*
X172684430Y-75391095D01*
X172255859Y-74438714D02*
X172208240Y-74391095D01*
X172160620Y-74295857D01*
X172160620Y-74057761D01*
X172208240Y-73962523D01*
X172255859Y-73914904D01*
X172351097Y-73867285D01*
X172446335Y-73867285D01*
X172589192Y-73914904D01*
X173160620Y-74486333D01*
X173160620Y-73867285D01*
X187508140Y-67141386D02*
X187031950Y-67474720D01*
X187508140Y-67712815D02*
X186508140Y-67712815D01*
X186508140Y-67331862D01*
X186555760Y-67236624D01*
X186603379Y-67189005D01*
X186698617Y-67141386D01*
X186841474Y-67141386D01*
X186936712Y-67189005D01*
X186984331Y-67236624D01*
X187031950Y-67331862D01*
X187031950Y-67712815D01*
X186508140Y-66808053D02*
X186508140Y-66189005D01*
X186889093Y-66522339D01*
X186889093Y-66379481D01*
X186936712Y-66284243D01*
X186984331Y-66236624D01*
X187079569Y-66189005D01*
X187317664Y-66189005D01*
X187412902Y-66236624D01*
X187460521Y-66284243D01*
X187508140Y-66379481D01*
X187508140Y-66665196D01*
X187460521Y-66760434D01*
X187412902Y-66808053D01*
X172421253Y-76947020D02*
X172087920Y-76470830D01*
X171849824Y-76947020D02*
X171849824Y-75947020D01*
X172230777Y-75947020D01*
X172326015Y-75994640D01*
X172373634Y-76042259D01*
X172421253Y-76137497D01*
X172421253Y-76280354D01*
X172373634Y-76375592D01*
X172326015Y-76423211D01*
X172230777Y-76470830D01*
X171849824Y-76470830D01*
X173278396Y-76280354D02*
X173278396Y-76947020D01*
X173040300Y-75899401D02*
X172802205Y-76613687D01*
X173421253Y-76613687D01*
X173467733Y-70924680D02*
X173134400Y-70448490D01*
X172896304Y-70924680D02*
X172896304Y-69924680D01*
X173277257Y-69924680D01*
X173372495Y-69972300D01*
X173420114Y-70019919D01*
X173467733Y-70115157D01*
X173467733Y-70258014D01*
X173420114Y-70353252D01*
X173372495Y-70400871D01*
X173277257Y-70448490D01*
X172896304Y-70448490D01*
X174372495Y-69924680D02*
X173896304Y-69924680D01*
X173848685Y-70400871D01*
X173896304Y-70353252D01*
X173991542Y-70305633D01*
X174229638Y-70305633D01*
X174324876Y-70353252D01*
X174372495Y-70400871D01*
X174420114Y-70496109D01*
X174420114Y-70734204D01*
X174372495Y-70829442D01*
X174324876Y-70877061D01*
X174229638Y-70924680D01*
X173991542Y-70924680D01*
X173896304Y-70877061D01*
X173848685Y-70829442D01*
X196527680Y-73735366D02*
X196051490Y-74068700D01*
X196527680Y-74306795D02*
X195527680Y-74306795D01*
X195527680Y-73925842D01*
X195575300Y-73830604D01*
X195622919Y-73782985D01*
X195718157Y-73735366D01*
X195861014Y-73735366D01*
X195956252Y-73782985D01*
X196003871Y-73830604D01*
X196051490Y-73925842D01*
X196051490Y-74306795D01*
X195527680Y-72878223D02*
X195527680Y-73068700D01*
X195575300Y-73163938D01*
X195622919Y-73211557D01*
X195765776Y-73306795D01*
X195956252Y-73354414D01*
X196337204Y-73354414D01*
X196432442Y-73306795D01*
X196480061Y-73259176D01*
X196527680Y-73163938D01*
X196527680Y-72973461D01*
X196480061Y-72878223D01*
X196432442Y-72830604D01*
X196337204Y-72782985D01*
X196099109Y-72782985D01*
X196003871Y-72830604D01*
X195956252Y-72878223D01*
X195908633Y-72973461D01*
X195908633Y-73163938D01*
X195956252Y-73259176D01*
X196003871Y-73306795D01*
X196099109Y-73354414D01*
X191600080Y-69277666D02*
X191123890Y-69611000D01*
X191600080Y-69849095D02*
X190600080Y-69849095D01*
X190600080Y-69468142D01*
X190647700Y-69372904D01*
X190695319Y-69325285D01*
X190790557Y-69277666D01*
X190933414Y-69277666D01*
X191028652Y-69325285D01*
X191076271Y-69372904D01*
X191123890Y-69468142D01*
X191123890Y-69849095D01*
X190600080Y-68944333D02*
X190600080Y-68277666D01*
X191600080Y-68706238D01*
X176796020Y-74819666D02*
X176319830Y-75153000D01*
X176796020Y-75391095D02*
X175796020Y-75391095D01*
X175796020Y-75010142D01*
X175843640Y-74914904D01*
X175891259Y-74867285D01*
X175986497Y-74819666D01*
X176129354Y-74819666D01*
X176224592Y-74867285D01*
X176272211Y-74914904D01*
X176319830Y-75010142D01*
X176319830Y-75391095D01*
X176224592Y-74248238D02*
X176176973Y-74343476D01*
X176129354Y-74391095D01*
X176034116Y-74438714D01*
X175986497Y-74438714D01*
X175891259Y-74391095D01*
X175843640Y-74343476D01*
X175796020Y-74248238D01*
X175796020Y-74057761D01*
X175843640Y-73962523D01*
X175891259Y-73914904D01*
X175986497Y-73867285D01*
X176034116Y-73867285D01*
X176129354Y-73914904D01*
X176176973Y-73962523D01*
X176224592Y-74057761D01*
X176224592Y-74248238D01*
X176272211Y-74343476D01*
X176319830Y-74391095D01*
X176415068Y-74438714D01*
X176605544Y-74438714D01*
X176700782Y-74391095D01*
X176748401Y-74343476D01*
X176796020Y-74248238D01*
X176796020Y-74057761D01*
X176748401Y-73962523D01*
X176700782Y-73914904D01*
X176605544Y-73867285D01*
X176415068Y-73867285D01*
X176319830Y-73914904D01*
X176272211Y-73962523D01*
X176224592Y-74057761D01*
X198878779Y-68834305D02*
X198402589Y-69167639D01*
X198878779Y-69405734D02*
X197878779Y-69405734D01*
X197878779Y-69024781D01*
X197926399Y-68929543D01*
X197974018Y-68881924D01*
X198069256Y-68834305D01*
X198212113Y-68834305D01*
X198307351Y-68881924D01*
X198354970Y-68929543D01*
X198402589Y-69024781D01*
X198402589Y-69405734D01*
X198878779Y-68358115D02*
X198878779Y-68167639D01*
X198831160Y-68072400D01*
X198783541Y-68024781D01*
X198640684Y-67929543D01*
X198450208Y-67881924D01*
X198069256Y-67881924D01*
X197974018Y-67929543D01*
X197926399Y-67977162D01*
X197878779Y-68072400D01*
X197878779Y-68262877D01*
X197926399Y-68358115D01*
X197974018Y-68405734D01*
X198069256Y-68453353D01*
X198307351Y-68453353D01*
X198402589Y-68405734D01*
X198450208Y-68358115D01*
X198497827Y-68262877D01*
X198497827Y-68072400D01*
X198450208Y-67977162D01*
X198402589Y-67929543D01*
X198307351Y-67881924D01*
X201341195Y-81316580D02*
X201912623Y-81316580D01*
X201626909Y-82316580D02*
X201626909Y-81316580D01*
X202245957Y-82316580D02*
X202245957Y-81316580D01*
X202626909Y-81316580D01*
X202722147Y-81364200D01*
X202769766Y-81411819D01*
X202817385Y-81507057D01*
X202817385Y-81649914D01*
X202769766Y-81745152D01*
X202722147Y-81792771D01*
X202626909Y-81840390D01*
X202245957Y-81840390D01*
X203769766Y-82316580D02*
X203198338Y-82316580D01*
X203484052Y-82316580D02*
X203484052Y-81316580D01*
X203388814Y-81459438D01*
X203293576Y-81554676D01*
X203198338Y-81602295D01*
X189530195Y-79843380D02*
X190101623Y-79843380D01*
X189815909Y-80843380D02*
X189815909Y-79843380D01*
X190434957Y-80843380D02*
X190434957Y-79843380D01*
X190815909Y-79843380D01*
X190911147Y-79891000D01*
X190958766Y-79938619D01*
X191006385Y-80033857D01*
X191006385Y-80176714D01*
X190958766Y-80271952D01*
X190911147Y-80319571D01*
X190815909Y-80367190D01*
X190434957Y-80367190D01*
X191387338Y-79938619D02*
X191434957Y-79891000D01*
X191530195Y-79843380D01*
X191768290Y-79843380D01*
X191863528Y-79891000D01*
X191911147Y-79938619D01*
X191958766Y-80033857D01*
X191958766Y-80129095D01*
X191911147Y-80271952D01*
X191339719Y-80843380D01*
X191958766Y-80843380D01*
X156148620Y-75999244D02*
X156958144Y-75999244D01*
X157053382Y-75951625D01*
X157101001Y-75904006D01*
X157148620Y-75808768D01*
X157148620Y-75618292D01*
X157101001Y-75523054D01*
X157053382Y-75475435D01*
X156958144Y-75427816D01*
X156148620Y-75427816D01*
X157148620Y-74427816D02*
X157148620Y-74999244D01*
X157148620Y-74713530D02*
X156148620Y-74713530D01*
X156291478Y-74808768D01*
X156386716Y-74904006D01*
X156434335Y-74999244D01*
X184756595Y-68278380D02*
X184756595Y-69087904D01*
X184804214Y-69183142D01*
X184851833Y-69230761D01*
X184947071Y-69278380D01*
X185137547Y-69278380D01*
X185232785Y-69230761D01*
X185280404Y-69183142D01*
X185328023Y-69087904D01*
X185328023Y-68278380D01*
X185756595Y-68373619D02*
X185804214Y-68326000D01*
X185899452Y-68278380D01*
X186137547Y-68278380D01*
X186232785Y-68326000D01*
X186280404Y-68373619D01*
X186328023Y-68468857D01*
X186328023Y-68564095D01*
X186280404Y-68706952D01*
X185708976Y-69278380D01*
X186328023Y-69278380D01*
X195882535Y-80056020D02*
X195882535Y-80865544D01*
X195930154Y-80960782D01*
X195977773Y-81008401D01*
X196073011Y-81056020D01*
X196263487Y-81056020D01*
X196358725Y-81008401D01*
X196406344Y-80960782D01*
X196453963Y-80865544D01*
X196453963Y-80056020D01*
X196834916Y-80056020D02*
X197453963Y-80056020D01*
X197120630Y-80436973D01*
X197263487Y-80436973D01*
X197358725Y-80484592D01*
X197406344Y-80532211D01*
X197453963Y-80627449D01*
X197453963Y-80865544D01*
X197406344Y-80960782D01*
X197358725Y-81008401D01*
X197263487Y-81056020D01*
X196977773Y-81056020D01*
X196882535Y-81008401D01*
X196834916Y-80960782D01*
X163612580Y-73212223D02*
X164612580Y-72545557D01*
X163612580Y-72545557D02*
X164612580Y-73212223D01*
X164612580Y-71640795D02*
X164612580Y-72212223D01*
X164612580Y-71926509D02*
X163612580Y-71926509D01*
X163755438Y-72021747D01*
X163850676Y-72116985D01*
X163898295Y-72212223D01*
X173196309Y-68949890D02*
X173196309Y-69426080D01*
X172862976Y-68426080D02*
X173196309Y-68949890D01*
X173529642Y-68426080D01*
X174386785Y-69426080D02*
X173815357Y-69426080D01*
X174101071Y-69426080D02*
X174101071Y-68426080D01*
X174005833Y-68568938D01*
X173910595Y-68664176D01*
X173815357Y-68711795D01*
X168999066Y-63523761D02*
X169141923Y-63571380D01*
X169380019Y-63571380D01*
X169475257Y-63523761D01*
X169522876Y-63476142D01*
X169570495Y-63380904D01*
X169570495Y-63285666D01*
X169522876Y-63190428D01*
X169475257Y-63142809D01*
X169380019Y-63095190D01*
X169189542Y-63047571D01*
X169094304Y-62999952D01*
X169046685Y-62952333D01*
X168999066Y-62857095D01*
X168999066Y-62761857D01*
X169046685Y-62666619D01*
X169094304Y-62619000D01*
X169189542Y-62571380D01*
X169427638Y-62571380D01*
X169570495Y-62619000D01*
X169903828Y-62571380D02*
X170141923Y-63571380D01*
X170332400Y-62857095D01*
X170522876Y-63571380D01*
X170760971Y-62571380D01*
X171665733Y-63571380D02*
X171094304Y-63571380D01*
X171380019Y-63571380D02*
X171380019Y-62571380D01*
X171284780Y-62714238D01*
X171189542Y-62809476D01*
X171094304Y-62857095D01*
X152531380Y-78451033D02*
X153245666Y-78451033D01*
X153388523Y-78498652D01*
X153483761Y-78593890D01*
X153531380Y-78736747D01*
X153531380Y-78831985D01*
X152626619Y-78022461D02*
X152579000Y-77974842D01*
X152531380Y-77879604D01*
X152531380Y-77641509D01*
X152579000Y-77546271D01*
X152626619Y-77498652D01*
X152721857Y-77451033D01*
X152817095Y-77451033D01*
X152959952Y-77498652D01*
X153531380Y-78070080D01*
X153531380Y-77451033D01*
X205376080Y-65751033D02*
X206090366Y-65751033D01*
X206233223Y-65798652D01*
X206328461Y-65893890D01*
X206376080Y-66036747D01*
X206376080Y-66131985D01*
X205376080Y-64798652D02*
X205376080Y-65274842D01*
X205852271Y-65322461D01*
X205804652Y-65274842D01*
X205757033Y-65179604D01*
X205757033Y-64941509D01*
X205804652Y-64846271D01*
X205852271Y-64798652D01*
X205947509Y-64751033D01*
X206185604Y-64751033D01*
X206280842Y-64798652D01*
X206328461Y-64846271D01*
X206376080Y-64941509D01*
X206376080Y-65179604D01*
X206328461Y-65274842D01*
X206280842Y-65322461D01*
M02*
