%FSLAX45Y45*%
G04 Gerber Fmt 4.5, Leading zero omitted, Abs format (unit mm)*
G04 Created by KiCad (PCBNEW (5.1.5-0)) date 2020-02-13 07:58:38*
%MOMM*%
%LPD*%
G04 APERTURE LIST*
%TA.AperFunction,Profile*%
%ADD10C,0.050000*%
%TD*%
%ADD11C,0.200000*%
%ADD12C,0.300000*%
G04 APERTURE END LIST*
D10*
X14351000Y-5969000D02*
X14605000Y-5969000D01*
X14351000Y-8509000D02*
X14351000Y-5969000D01*
X14478000Y-8509000D02*
X14351000Y-8509000D01*
X14478000Y-5969000D02*
X20701000Y-5969000D01*
X20701000Y-8509000D02*
X14478000Y-8509000D01*
X20701000Y-5969000D02*
X20701000Y-8509000D01*
D11*
D12*
X14634928Y-8977214D02*
X14634928Y-8677214D01*
X14706357Y-8677214D01*
X14749214Y-8691500D01*
X14777786Y-8720072D01*
X14792071Y-8748643D01*
X14806357Y-8805786D01*
X14806357Y-8848643D01*
X14792071Y-8905786D01*
X14777786Y-8934357D01*
X14749214Y-8962929D01*
X14706357Y-8977214D01*
X14634928Y-8977214D01*
X14934928Y-8977214D02*
X14934928Y-8777214D01*
X14934928Y-8834357D02*
X14949214Y-8805786D01*
X14963500Y-8791500D01*
X14992071Y-8777214D01*
X15020643Y-8777214D01*
X15120643Y-8977214D02*
X15120643Y-8777214D01*
X15120643Y-8677214D02*
X15106357Y-8691500D01*
X15120643Y-8705786D01*
X15134928Y-8691500D01*
X15120643Y-8677214D01*
X15120643Y-8705786D01*
X15306357Y-8977214D02*
X15277786Y-8962929D01*
X15263500Y-8934357D01*
X15263500Y-8677214D01*
X15463500Y-8977214D02*
X15434928Y-8962929D01*
X15420643Y-8934357D01*
X15420643Y-8677214D01*
X15806357Y-8977214D02*
X15806357Y-8677214D01*
X15906357Y-8891500D01*
X16006357Y-8677214D01*
X16006357Y-8977214D01*
X16277786Y-8977214D02*
X16277786Y-8820072D01*
X16263500Y-8791500D01*
X16234928Y-8777214D01*
X16177786Y-8777214D01*
X16149214Y-8791500D01*
X16277786Y-8962929D02*
X16249214Y-8977214D01*
X16177786Y-8977214D01*
X16149214Y-8962929D01*
X16134928Y-8934357D01*
X16134928Y-8905786D01*
X16149214Y-8877214D01*
X16177786Y-8862929D01*
X16249214Y-8862929D01*
X16277786Y-8848643D01*
X16420643Y-8777214D02*
X16420643Y-9077214D01*
X16420643Y-8791500D02*
X16449214Y-8777214D01*
X16506357Y-8777214D01*
X16534928Y-8791500D01*
X16549214Y-8805786D01*
X16563500Y-8834357D01*
X16563500Y-8920072D01*
X16549214Y-8948643D01*
X16534928Y-8962929D01*
X16506357Y-8977214D01*
X16449214Y-8977214D01*
X16420643Y-8962929D01*
X16692071Y-8948643D02*
X16706357Y-8962929D01*
X16692071Y-8977214D01*
X16677786Y-8962929D01*
X16692071Y-8948643D01*
X16692071Y-8977214D01*
X16692071Y-8791500D02*
X16706357Y-8805786D01*
X16692071Y-8820072D01*
X16677786Y-8805786D01*
X16692071Y-8791500D01*
X16692071Y-8820072D01*
M02*
