G04 #@! TF.GenerationSoftware,KiCad,Pcbnew,(5.1.5-0)*
G04 #@! TF.CreationDate,2020-02-13T07:59:00-05:00*
G04 #@! TF.ProjectId,bfunc,6266756e-632e-46b6-9963-61645f706362,rev?*
G04 #@! TF.SameCoordinates,Original*
G04 #@! TF.FileFunction,Copper,L2,Bot*
G04 #@! TF.FilePolarity,Positive*
%FSLAX46Y46*%
G04 Gerber Fmt 4.6, Leading zero omitted, Abs format (unit mm)*
G04 Created by KiCad (PCBNEW (5.1.5-0)) date 2020-02-13 07:59:00*
%MOMM*%
%LPD*%
G04 APERTURE LIST*
%ADD10C,3.810000*%
%ADD11C,3.556000*%
%ADD12R,1.700000X1.700000*%
%ADD13O,1.700000X1.700000*%
%ADD14C,1.450000*%
%ADD15O,1.900000X1.200000*%
%ADD16C,1.143000*%
%ADD17C,0.800000*%
%ADD18C,0.250000*%
%ADD19C,0.254000*%
G04 APERTURE END LIST*
D10*
X147548600Y-65455800D03*
D11*
X150723600Y-68630800D03*
D10*
X153898600Y-65455800D03*
X147548600Y-71805800D03*
X153898600Y-71805800D03*
D12*
X182245000Y-63754000D03*
D13*
X184785000Y-63754000D03*
X187325000Y-63754000D03*
D14*
X202811400Y-76221640D03*
X202811400Y-71221640D03*
D15*
X205511400Y-77221640D03*
X205511400Y-70221640D03*
D12*
X157480000Y-83820000D03*
D13*
X160020000Y-83820000D03*
X162560000Y-83820000D03*
X165100000Y-83820000D03*
X167640000Y-83820000D03*
X170180000Y-83820000D03*
X172720000Y-83820000D03*
X175260000Y-83820000D03*
X177800000Y-83820000D03*
X180340000Y-83820000D03*
X182880000Y-83820000D03*
X185420000Y-83820000D03*
X187960000Y-83820000D03*
X190500000Y-83820000D03*
X193040000Y-83820000D03*
X195580000Y-83820000D03*
X198120000Y-83820000D03*
X200660000Y-83820000D03*
X203200000Y-83820000D03*
X205740000Y-83820000D03*
X205740000Y-60960000D03*
X203200000Y-60960000D03*
X200660000Y-60960000D03*
X198120000Y-60960000D03*
X195580000Y-60960000D03*
X193040000Y-60960000D03*
X190500000Y-60960000D03*
X187960000Y-60960000D03*
X185420000Y-60960000D03*
X182880000Y-60960000D03*
X180340000Y-60960000D03*
X177800000Y-60960000D03*
X175260000Y-60960000D03*
X172720000Y-60960000D03*
X170180000Y-60960000D03*
X167640000Y-60960000D03*
X165100000Y-60960000D03*
X162560000Y-60960000D03*
X160020000Y-60960000D03*
D12*
X157480000Y-60960000D03*
D16*
X200025000Y-80860900D03*
X193080640Y-81003140D03*
D12*
X150749000Y-78117700D03*
D13*
X148209000Y-78117700D03*
D12*
X203593700Y-64147700D03*
D13*
X203593700Y-66687700D03*
X201053700Y-64147700D03*
X201053700Y-66687700D03*
X198513700Y-64147700D03*
X198513700Y-66687700D03*
X195973700Y-64147700D03*
X195973700Y-66687700D03*
X193433700Y-64147700D03*
X193433700Y-66687700D03*
D17*
X199364600Y-72420480D03*
X184236360Y-67426840D03*
X183078120Y-75463400D03*
X162600640Y-75905360D03*
X198247000Y-72501760D03*
X179049680Y-69113400D03*
X177154840Y-69113400D03*
X173923960Y-71008240D03*
X175432720Y-63263780D03*
X158150133Y-80091707D03*
X161340800Y-77703680D03*
X198805800Y-75496420D03*
X186390280Y-80558640D03*
X165709600Y-63601600D03*
X165528485Y-65842416D03*
X165519100Y-68465700D03*
X194398900Y-75399900D03*
X188048900Y-73774300D03*
X170688000Y-80429100D03*
X172504100Y-78244700D03*
D18*
X171087999Y-80029101D02*
X171087999Y-79660801D01*
X170688000Y-80429100D02*
X171087999Y-80029101D01*
X171087999Y-79660801D02*
X172504100Y-78244700D01*
D19*
G36*
X159586842Y-62387932D02*
G01*
X159873740Y-62445000D01*
X160166260Y-62445000D01*
X160453158Y-62387932D01*
X160527835Y-62357000D01*
X162052165Y-62357000D01*
X162126842Y-62387932D01*
X162413740Y-62445000D01*
X162706260Y-62445000D01*
X162993158Y-62387932D01*
X163067835Y-62357000D01*
X164592165Y-62357000D01*
X164666842Y-62387932D01*
X164953740Y-62445000D01*
X165246260Y-62445000D01*
X165533158Y-62387932D01*
X165607835Y-62357000D01*
X167132165Y-62357000D01*
X167206842Y-62387932D01*
X167493740Y-62445000D01*
X167786260Y-62445000D01*
X168073158Y-62387932D01*
X168147835Y-62357000D01*
X169672165Y-62357000D01*
X169746842Y-62387932D01*
X170033740Y-62445000D01*
X170326260Y-62445000D01*
X170613158Y-62387932D01*
X170687835Y-62357000D01*
X172212165Y-62357000D01*
X172286842Y-62387932D01*
X172573740Y-62445000D01*
X172866260Y-62445000D01*
X173153158Y-62387932D01*
X173227835Y-62357000D01*
X174752165Y-62357000D01*
X174826842Y-62387932D01*
X175113740Y-62445000D01*
X175406260Y-62445000D01*
X175693158Y-62387932D01*
X175767835Y-62357000D01*
X177292165Y-62357000D01*
X177366842Y-62387932D01*
X177653740Y-62445000D01*
X177946260Y-62445000D01*
X178233158Y-62387932D01*
X178307835Y-62357000D01*
X179832165Y-62357000D01*
X179906842Y-62387932D01*
X180193740Y-62445000D01*
X180486260Y-62445000D01*
X180773158Y-62387932D01*
X180847835Y-62357000D01*
X181071306Y-62357000D01*
X181040506Y-62373463D01*
X180943815Y-62452815D01*
X180864463Y-62549506D01*
X180805498Y-62659820D01*
X180769188Y-62779518D01*
X180756928Y-62904000D01*
X180756928Y-64604000D01*
X180769188Y-64728482D01*
X180805498Y-64848180D01*
X180864463Y-64958494D01*
X180943815Y-65055185D01*
X181040506Y-65134537D01*
X181150820Y-65193502D01*
X181270518Y-65229812D01*
X181395000Y-65242072D01*
X183095000Y-65242072D01*
X183219482Y-65229812D01*
X183339180Y-65193502D01*
X183449494Y-65134537D01*
X183546185Y-65055185D01*
X183625537Y-64958494D01*
X183684502Y-64848180D01*
X183706513Y-64775620D01*
X183838368Y-64907475D01*
X184081589Y-65069990D01*
X184351842Y-65181932D01*
X184638740Y-65239000D01*
X184931260Y-65239000D01*
X185218158Y-65181932D01*
X185488411Y-65069990D01*
X185731632Y-64907475D01*
X185938475Y-64700632D01*
X186060195Y-64518466D01*
X186129822Y-64635355D01*
X186324731Y-64851588D01*
X186558080Y-65025641D01*
X186820901Y-65150825D01*
X186968110Y-65195476D01*
X187198000Y-65074155D01*
X187198000Y-63881000D01*
X187452000Y-63881000D01*
X187452000Y-65074155D01*
X187681890Y-65195476D01*
X187829099Y-65150825D01*
X188091920Y-65025641D01*
X188325269Y-64851588D01*
X188520178Y-64635355D01*
X188669157Y-64385252D01*
X188766481Y-64110891D01*
X188709032Y-64001440D01*
X191948700Y-64001440D01*
X191948700Y-64293960D01*
X192005768Y-64580858D01*
X192117710Y-64851111D01*
X192280225Y-65094332D01*
X192487068Y-65301175D01*
X192661460Y-65417700D01*
X192487068Y-65534225D01*
X192280225Y-65741068D01*
X192117710Y-65984289D01*
X192005768Y-66254542D01*
X191948700Y-66541440D01*
X191948700Y-66833960D01*
X192005768Y-67120858D01*
X192117710Y-67391111D01*
X192280225Y-67634332D01*
X192487068Y-67841175D01*
X192730289Y-68003690D01*
X193000542Y-68115632D01*
X193287440Y-68172700D01*
X193579960Y-68172700D01*
X193866858Y-68115632D01*
X194137111Y-68003690D01*
X194380332Y-67841175D01*
X194587175Y-67634332D01*
X194703700Y-67459940D01*
X194820225Y-67634332D01*
X195027068Y-67841175D01*
X195270289Y-68003690D01*
X195540542Y-68115632D01*
X195827440Y-68172700D01*
X196119960Y-68172700D01*
X196406858Y-68115632D01*
X196677111Y-68003690D01*
X196920332Y-67841175D01*
X197127175Y-67634332D01*
X197243700Y-67459940D01*
X197360225Y-67634332D01*
X197567068Y-67841175D01*
X197810289Y-68003690D01*
X198080542Y-68115632D01*
X198367440Y-68172700D01*
X198659960Y-68172700D01*
X198946858Y-68115632D01*
X199217111Y-68003690D01*
X199460332Y-67841175D01*
X199667175Y-67634332D01*
X199788895Y-67452166D01*
X199858522Y-67569055D01*
X200053431Y-67785288D01*
X200286780Y-67959341D01*
X200549601Y-68084525D01*
X200696810Y-68129176D01*
X200926700Y-68007855D01*
X200926700Y-66814700D01*
X200906700Y-66814700D01*
X200906700Y-66560700D01*
X200926700Y-66560700D01*
X200926700Y-64274700D01*
X200906700Y-64274700D01*
X200906700Y-64020700D01*
X200926700Y-64020700D01*
X200926700Y-62827545D01*
X201180700Y-62827545D01*
X201180700Y-64020700D01*
X201200700Y-64020700D01*
X201200700Y-64274700D01*
X201180700Y-64274700D01*
X201180700Y-66560700D01*
X201200700Y-66560700D01*
X201200700Y-66814700D01*
X201180700Y-66814700D01*
X201180700Y-68007855D01*
X201410590Y-68129176D01*
X201557799Y-68084525D01*
X201820620Y-67959341D01*
X202053969Y-67785288D01*
X202248878Y-67569055D01*
X202318505Y-67452166D01*
X202440225Y-67634332D01*
X202647068Y-67841175D01*
X202890289Y-68003690D01*
X203160542Y-68115632D01*
X203447440Y-68172700D01*
X203739960Y-68172700D01*
X204026858Y-68115632D01*
X204297111Y-68003690D01*
X204540332Y-67841175D01*
X204747175Y-67634332D01*
X204909690Y-67391111D01*
X205021632Y-67120858D01*
X205078700Y-66833960D01*
X205078700Y-66541440D01*
X205021632Y-66254542D01*
X204909690Y-65984289D01*
X204747175Y-65741068D01*
X204615320Y-65609213D01*
X204687880Y-65587202D01*
X204798194Y-65528237D01*
X204894885Y-65448885D01*
X204974237Y-65352194D01*
X205033202Y-65241880D01*
X205069512Y-65122182D01*
X205081772Y-64997700D01*
X205081772Y-63297700D01*
X205069512Y-63173218D01*
X205033202Y-63053520D01*
X204974237Y-62943206D01*
X204894885Y-62846515D01*
X204798194Y-62767163D01*
X204687880Y-62708198D01*
X204568182Y-62671888D01*
X204443700Y-62659628D01*
X202743700Y-62659628D01*
X202619218Y-62671888D01*
X202499520Y-62708198D01*
X202389206Y-62767163D01*
X202292515Y-62846515D01*
X202213163Y-62943206D01*
X202154198Y-63053520D01*
X202129734Y-63134166D01*
X202053969Y-63050112D01*
X201820620Y-62876059D01*
X201557799Y-62750875D01*
X201410590Y-62706224D01*
X201180700Y-62827545D01*
X200926700Y-62827545D01*
X200696810Y-62706224D01*
X200549601Y-62750875D01*
X200286780Y-62876059D01*
X200053431Y-63050112D01*
X199858522Y-63266345D01*
X199788895Y-63383234D01*
X199667175Y-63201068D01*
X199460332Y-62994225D01*
X199217111Y-62831710D01*
X198946858Y-62719768D01*
X198659960Y-62662700D01*
X198367440Y-62662700D01*
X198080542Y-62719768D01*
X197810289Y-62831710D01*
X197567068Y-62994225D01*
X197360225Y-63201068D01*
X197243700Y-63375460D01*
X197127175Y-63201068D01*
X196920332Y-62994225D01*
X196677111Y-62831710D01*
X196406858Y-62719768D01*
X196119960Y-62662700D01*
X195827440Y-62662700D01*
X195540542Y-62719768D01*
X195270289Y-62831710D01*
X195027068Y-62994225D01*
X194820225Y-63201068D01*
X194703700Y-63375460D01*
X194587175Y-63201068D01*
X194380332Y-62994225D01*
X194137111Y-62831710D01*
X193866858Y-62719768D01*
X193579960Y-62662700D01*
X193287440Y-62662700D01*
X193000542Y-62719768D01*
X192730289Y-62831710D01*
X192487068Y-62994225D01*
X192280225Y-63201068D01*
X192117710Y-63444289D01*
X192005768Y-63714542D01*
X191948700Y-64001440D01*
X188709032Y-64001440D01*
X188645814Y-63881000D01*
X187452000Y-63881000D01*
X187198000Y-63881000D01*
X187178000Y-63881000D01*
X187178000Y-63627000D01*
X187198000Y-63627000D01*
X187198000Y-63607000D01*
X187452000Y-63607000D01*
X187452000Y-63627000D01*
X188645814Y-63627000D01*
X188766481Y-63397109D01*
X188669157Y-63122748D01*
X188520178Y-62872645D01*
X188325269Y-62656412D01*
X188091920Y-62482359D01*
X188013486Y-62445000D01*
X188106260Y-62445000D01*
X188393158Y-62387932D01*
X188467835Y-62357000D01*
X189992165Y-62357000D01*
X190066842Y-62387932D01*
X190353740Y-62445000D01*
X190646260Y-62445000D01*
X190933158Y-62387932D01*
X191007835Y-62357000D01*
X192532165Y-62357000D01*
X192606842Y-62387932D01*
X192893740Y-62445000D01*
X193186260Y-62445000D01*
X193473158Y-62387932D01*
X193547835Y-62357000D01*
X195072165Y-62357000D01*
X195146842Y-62387932D01*
X195433740Y-62445000D01*
X195726260Y-62445000D01*
X196013158Y-62387932D01*
X196087835Y-62357000D01*
X197612165Y-62357000D01*
X197686842Y-62387932D01*
X197973740Y-62445000D01*
X198266260Y-62445000D01*
X198553158Y-62387932D01*
X198627835Y-62357000D01*
X200152165Y-62357000D01*
X200226842Y-62387932D01*
X200513740Y-62445000D01*
X200806260Y-62445000D01*
X201093158Y-62387932D01*
X201167835Y-62357000D01*
X202692165Y-62357000D01*
X202766842Y-62387932D01*
X203053740Y-62445000D01*
X203346260Y-62445000D01*
X203633158Y-62387932D01*
X203707835Y-62357000D01*
X205232165Y-62357000D01*
X205306842Y-62387932D01*
X205593740Y-62445000D01*
X205886260Y-62445000D01*
X206173158Y-62387932D01*
X206247835Y-62357000D01*
X206350000Y-62357000D01*
X206350000Y-68453000D01*
X201930000Y-68453000D01*
X201905224Y-68455440D01*
X201881399Y-68462667D01*
X201859443Y-68474403D01*
X201840197Y-68490197D01*
X201824403Y-68509443D01*
X201812667Y-68531399D01*
X201805440Y-68555224D01*
X201803000Y-68580000D01*
X201803000Y-70306710D01*
X201755019Y-70354691D01*
X201606184Y-70577439D01*
X201503664Y-70824943D01*
X201451400Y-71087692D01*
X201451400Y-71355588D01*
X201503664Y-71618337D01*
X201606184Y-71865841D01*
X201755019Y-72088589D01*
X201803000Y-72136570D01*
X201803000Y-75306710D01*
X201755019Y-75354691D01*
X201606184Y-75577439D01*
X201503664Y-75824943D01*
X201451400Y-76087692D01*
X201451400Y-76355588D01*
X201503664Y-76618337D01*
X201606184Y-76865841D01*
X201755019Y-77088589D01*
X201803000Y-77136570D01*
X201803000Y-78740000D01*
X201805440Y-78764776D01*
X201812667Y-78788601D01*
X201824403Y-78810557D01*
X201840197Y-78829803D01*
X201859443Y-78845597D01*
X201881399Y-78857333D01*
X201905224Y-78864560D01*
X201930000Y-78867000D01*
X206350001Y-78867000D01*
X206350001Y-82423000D01*
X206247835Y-82423000D01*
X206173158Y-82392068D01*
X205886260Y-82335000D01*
X205593740Y-82335000D01*
X205306842Y-82392068D01*
X205232165Y-82423000D01*
X203707835Y-82423000D01*
X203633158Y-82392068D01*
X203346260Y-82335000D01*
X203053740Y-82335000D01*
X202766842Y-82392068D01*
X202692165Y-82423000D01*
X201167835Y-82423000D01*
X201093158Y-82392068D01*
X200806260Y-82335000D01*
X200513740Y-82335000D01*
X200226842Y-82392068D01*
X200152165Y-82423000D01*
X198627835Y-82423000D01*
X198553158Y-82392068D01*
X198266260Y-82335000D01*
X197973740Y-82335000D01*
X197686842Y-82392068D01*
X197612165Y-82423000D01*
X196087835Y-82423000D01*
X196013158Y-82392068D01*
X195726260Y-82335000D01*
X195433740Y-82335000D01*
X195146842Y-82392068D01*
X195072165Y-82423000D01*
X193547835Y-82423000D01*
X193473158Y-82392068D01*
X193186260Y-82335000D01*
X192893740Y-82335000D01*
X192606842Y-82392068D01*
X192532165Y-82423000D01*
X191007835Y-82423000D01*
X190933158Y-82392068D01*
X190646260Y-82335000D01*
X190353740Y-82335000D01*
X190066842Y-82392068D01*
X189992165Y-82423000D01*
X188467835Y-82423000D01*
X188393158Y-82392068D01*
X188106260Y-82335000D01*
X187813740Y-82335000D01*
X187526842Y-82392068D01*
X187452165Y-82423000D01*
X185927835Y-82423000D01*
X185853158Y-82392068D01*
X185566260Y-82335000D01*
X185273740Y-82335000D01*
X184986842Y-82392068D01*
X184912165Y-82423000D01*
X183387835Y-82423000D01*
X183313158Y-82392068D01*
X183026260Y-82335000D01*
X182733740Y-82335000D01*
X182446842Y-82392068D01*
X182372165Y-82423000D01*
X180847835Y-82423000D01*
X180773158Y-82392068D01*
X180486260Y-82335000D01*
X180193740Y-82335000D01*
X179906842Y-82392068D01*
X179832165Y-82423000D01*
X178307835Y-82423000D01*
X178233158Y-82392068D01*
X177946260Y-82335000D01*
X177653740Y-82335000D01*
X177366842Y-82392068D01*
X177292165Y-82423000D01*
X175767835Y-82423000D01*
X175693158Y-82392068D01*
X175406260Y-82335000D01*
X175113740Y-82335000D01*
X174826842Y-82392068D01*
X174752165Y-82423000D01*
X173227835Y-82423000D01*
X173153158Y-82392068D01*
X172866260Y-82335000D01*
X172573740Y-82335000D01*
X172286842Y-82392068D01*
X172212165Y-82423000D01*
X170687835Y-82423000D01*
X170613158Y-82392068D01*
X170326260Y-82335000D01*
X170033740Y-82335000D01*
X169746842Y-82392068D01*
X169672165Y-82423000D01*
X168147835Y-82423000D01*
X168073158Y-82392068D01*
X167786260Y-82335000D01*
X167493740Y-82335000D01*
X167206842Y-82392068D01*
X167132165Y-82423000D01*
X165607835Y-82423000D01*
X165533158Y-82392068D01*
X165246260Y-82335000D01*
X164953740Y-82335000D01*
X164666842Y-82392068D01*
X164592165Y-82423000D01*
X163067835Y-82423000D01*
X162993158Y-82392068D01*
X162706260Y-82335000D01*
X162413740Y-82335000D01*
X162126842Y-82392068D01*
X162052165Y-82423000D01*
X160527835Y-82423000D01*
X160453158Y-82392068D01*
X160166260Y-82335000D01*
X159873740Y-82335000D01*
X159586842Y-82392068D01*
X159512165Y-82423000D01*
X158877000Y-82423000D01*
X158877000Y-80327161D01*
X169653000Y-80327161D01*
X169653000Y-80531039D01*
X169692774Y-80730998D01*
X169770795Y-80919356D01*
X169884063Y-81088874D01*
X170028226Y-81233037D01*
X170197744Y-81346305D01*
X170386102Y-81424326D01*
X170586061Y-81464100D01*
X170789939Y-81464100D01*
X170989898Y-81424326D01*
X171178256Y-81346305D01*
X171347774Y-81233037D01*
X171491937Y-81088874D01*
X171605205Y-80919356D01*
X171619721Y-80884310D01*
X191874140Y-80884310D01*
X191874140Y-81121970D01*
X191920505Y-81355063D01*
X192011453Y-81574632D01*
X192143490Y-81772239D01*
X192311541Y-81940290D01*
X192509148Y-82072327D01*
X192728717Y-82163275D01*
X192961810Y-82209640D01*
X193199470Y-82209640D01*
X193432563Y-82163275D01*
X193652132Y-82072327D01*
X193849739Y-81940290D01*
X194017790Y-81772239D01*
X194149827Y-81574632D01*
X194240775Y-81355063D01*
X194287140Y-81121970D01*
X194287140Y-80884310D01*
X194258847Y-80742070D01*
X198818500Y-80742070D01*
X198818500Y-80979730D01*
X198864865Y-81212823D01*
X198955813Y-81432392D01*
X199087850Y-81629999D01*
X199255901Y-81798050D01*
X199453508Y-81930087D01*
X199673077Y-82021035D01*
X199906170Y-82067400D01*
X200143830Y-82067400D01*
X200376923Y-82021035D01*
X200596492Y-81930087D01*
X200794099Y-81798050D01*
X200962150Y-81629999D01*
X201094187Y-81432392D01*
X201185135Y-81212823D01*
X201231500Y-80979730D01*
X201231500Y-80742070D01*
X201185135Y-80508977D01*
X201094187Y-80289408D01*
X200962150Y-80091801D01*
X200794099Y-79923750D01*
X200596492Y-79791713D01*
X200376923Y-79700765D01*
X200143830Y-79654400D01*
X199906170Y-79654400D01*
X199673077Y-79700765D01*
X199453508Y-79791713D01*
X199255901Y-79923750D01*
X199087850Y-80091801D01*
X198955813Y-80289408D01*
X198864865Y-80508977D01*
X198818500Y-80742070D01*
X194258847Y-80742070D01*
X194240775Y-80651217D01*
X194149827Y-80431648D01*
X194017790Y-80234041D01*
X193849739Y-80065990D01*
X193652132Y-79933953D01*
X193432563Y-79843005D01*
X193199470Y-79796640D01*
X192961810Y-79796640D01*
X192728717Y-79843005D01*
X192509148Y-79933953D01*
X192311541Y-80065990D01*
X192143490Y-80234041D01*
X192011453Y-80431648D01*
X191920505Y-80651217D01*
X191874140Y-80884310D01*
X171619721Y-80884310D01*
X171683226Y-80730998D01*
X171723000Y-80531039D01*
X171723000Y-80453326D01*
X171793545Y-80321348D01*
X171837002Y-80178087D01*
X171847999Y-80066434D01*
X171847999Y-80066424D01*
X171851675Y-80029102D01*
X171847999Y-79991779D01*
X171847999Y-79975602D01*
X172543902Y-79279700D01*
X172606039Y-79279700D01*
X172805998Y-79239926D01*
X172994356Y-79161905D01*
X173163874Y-79048637D01*
X173308037Y-78904474D01*
X173421305Y-78734956D01*
X173499326Y-78546598D01*
X173539100Y-78346639D01*
X173539100Y-78142761D01*
X173499326Y-77942802D01*
X173421305Y-77754444D01*
X173308037Y-77584926D01*
X173163874Y-77440763D01*
X172994356Y-77327495D01*
X172805998Y-77249474D01*
X172606039Y-77209700D01*
X172402161Y-77209700D01*
X172202202Y-77249474D01*
X172013844Y-77327495D01*
X171844326Y-77440763D01*
X171700163Y-77584926D01*
X171586895Y-77754444D01*
X171508874Y-77942802D01*
X171469100Y-78142761D01*
X171469100Y-78204898D01*
X170577000Y-79096999D01*
X170547998Y-79120800D01*
X170453025Y-79236525D01*
X170382453Y-79368554D01*
X170359267Y-79444990D01*
X170197744Y-79511895D01*
X170028226Y-79625163D01*
X169884063Y-79769326D01*
X169770795Y-79938844D01*
X169692774Y-80127202D01*
X169653000Y-80327161D01*
X158877000Y-80327161D01*
X158877000Y-62357000D01*
X159512165Y-62357000D01*
X159586842Y-62387932D01*
G37*
X159586842Y-62387932D02*
X159873740Y-62445000D01*
X160166260Y-62445000D01*
X160453158Y-62387932D01*
X160527835Y-62357000D01*
X162052165Y-62357000D01*
X162126842Y-62387932D01*
X162413740Y-62445000D01*
X162706260Y-62445000D01*
X162993158Y-62387932D01*
X163067835Y-62357000D01*
X164592165Y-62357000D01*
X164666842Y-62387932D01*
X164953740Y-62445000D01*
X165246260Y-62445000D01*
X165533158Y-62387932D01*
X165607835Y-62357000D01*
X167132165Y-62357000D01*
X167206842Y-62387932D01*
X167493740Y-62445000D01*
X167786260Y-62445000D01*
X168073158Y-62387932D01*
X168147835Y-62357000D01*
X169672165Y-62357000D01*
X169746842Y-62387932D01*
X170033740Y-62445000D01*
X170326260Y-62445000D01*
X170613158Y-62387932D01*
X170687835Y-62357000D01*
X172212165Y-62357000D01*
X172286842Y-62387932D01*
X172573740Y-62445000D01*
X172866260Y-62445000D01*
X173153158Y-62387932D01*
X173227835Y-62357000D01*
X174752165Y-62357000D01*
X174826842Y-62387932D01*
X175113740Y-62445000D01*
X175406260Y-62445000D01*
X175693158Y-62387932D01*
X175767835Y-62357000D01*
X177292165Y-62357000D01*
X177366842Y-62387932D01*
X177653740Y-62445000D01*
X177946260Y-62445000D01*
X178233158Y-62387932D01*
X178307835Y-62357000D01*
X179832165Y-62357000D01*
X179906842Y-62387932D01*
X180193740Y-62445000D01*
X180486260Y-62445000D01*
X180773158Y-62387932D01*
X180847835Y-62357000D01*
X181071306Y-62357000D01*
X181040506Y-62373463D01*
X180943815Y-62452815D01*
X180864463Y-62549506D01*
X180805498Y-62659820D01*
X180769188Y-62779518D01*
X180756928Y-62904000D01*
X180756928Y-64604000D01*
X180769188Y-64728482D01*
X180805498Y-64848180D01*
X180864463Y-64958494D01*
X180943815Y-65055185D01*
X181040506Y-65134537D01*
X181150820Y-65193502D01*
X181270518Y-65229812D01*
X181395000Y-65242072D01*
X183095000Y-65242072D01*
X183219482Y-65229812D01*
X183339180Y-65193502D01*
X183449494Y-65134537D01*
X183546185Y-65055185D01*
X183625537Y-64958494D01*
X183684502Y-64848180D01*
X183706513Y-64775620D01*
X183838368Y-64907475D01*
X184081589Y-65069990D01*
X184351842Y-65181932D01*
X184638740Y-65239000D01*
X184931260Y-65239000D01*
X185218158Y-65181932D01*
X185488411Y-65069990D01*
X185731632Y-64907475D01*
X185938475Y-64700632D01*
X186060195Y-64518466D01*
X186129822Y-64635355D01*
X186324731Y-64851588D01*
X186558080Y-65025641D01*
X186820901Y-65150825D01*
X186968110Y-65195476D01*
X187198000Y-65074155D01*
X187198000Y-63881000D01*
X187452000Y-63881000D01*
X187452000Y-65074155D01*
X187681890Y-65195476D01*
X187829099Y-65150825D01*
X188091920Y-65025641D01*
X188325269Y-64851588D01*
X188520178Y-64635355D01*
X188669157Y-64385252D01*
X188766481Y-64110891D01*
X188709032Y-64001440D01*
X191948700Y-64001440D01*
X191948700Y-64293960D01*
X192005768Y-64580858D01*
X192117710Y-64851111D01*
X192280225Y-65094332D01*
X192487068Y-65301175D01*
X192661460Y-65417700D01*
X192487068Y-65534225D01*
X192280225Y-65741068D01*
X192117710Y-65984289D01*
X192005768Y-66254542D01*
X191948700Y-66541440D01*
X191948700Y-66833960D01*
X192005768Y-67120858D01*
X192117710Y-67391111D01*
X192280225Y-67634332D01*
X192487068Y-67841175D01*
X192730289Y-68003690D01*
X193000542Y-68115632D01*
X193287440Y-68172700D01*
X193579960Y-68172700D01*
X193866858Y-68115632D01*
X194137111Y-68003690D01*
X194380332Y-67841175D01*
X194587175Y-67634332D01*
X194703700Y-67459940D01*
X194820225Y-67634332D01*
X195027068Y-67841175D01*
X195270289Y-68003690D01*
X195540542Y-68115632D01*
X195827440Y-68172700D01*
X196119960Y-68172700D01*
X196406858Y-68115632D01*
X196677111Y-68003690D01*
X196920332Y-67841175D01*
X197127175Y-67634332D01*
X197243700Y-67459940D01*
X197360225Y-67634332D01*
X197567068Y-67841175D01*
X197810289Y-68003690D01*
X198080542Y-68115632D01*
X198367440Y-68172700D01*
X198659960Y-68172700D01*
X198946858Y-68115632D01*
X199217111Y-68003690D01*
X199460332Y-67841175D01*
X199667175Y-67634332D01*
X199788895Y-67452166D01*
X199858522Y-67569055D01*
X200053431Y-67785288D01*
X200286780Y-67959341D01*
X200549601Y-68084525D01*
X200696810Y-68129176D01*
X200926700Y-68007855D01*
X200926700Y-66814700D01*
X200906700Y-66814700D01*
X200906700Y-66560700D01*
X200926700Y-66560700D01*
X200926700Y-64274700D01*
X200906700Y-64274700D01*
X200906700Y-64020700D01*
X200926700Y-64020700D01*
X200926700Y-62827545D01*
X201180700Y-62827545D01*
X201180700Y-64020700D01*
X201200700Y-64020700D01*
X201200700Y-64274700D01*
X201180700Y-64274700D01*
X201180700Y-66560700D01*
X201200700Y-66560700D01*
X201200700Y-66814700D01*
X201180700Y-66814700D01*
X201180700Y-68007855D01*
X201410590Y-68129176D01*
X201557799Y-68084525D01*
X201820620Y-67959341D01*
X202053969Y-67785288D01*
X202248878Y-67569055D01*
X202318505Y-67452166D01*
X202440225Y-67634332D01*
X202647068Y-67841175D01*
X202890289Y-68003690D01*
X203160542Y-68115632D01*
X203447440Y-68172700D01*
X203739960Y-68172700D01*
X204026858Y-68115632D01*
X204297111Y-68003690D01*
X204540332Y-67841175D01*
X204747175Y-67634332D01*
X204909690Y-67391111D01*
X205021632Y-67120858D01*
X205078700Y-66833960D01*
X205078700Y-66541440D01*
X205021632Y-66254542D01*
X204909690Y-65984289D01*
X204747175Y-65741068D01*
X204615320Y-65609213D01*
X204687880Y-65587202D01*
X204798194Y-65528237D01*
X204894885Y-65448885D01*
X204974237Y-65352194D01*
X205033202Y-65241880D01*
X205069512Y-65122182D01*
X205081772Y-64997700D01*
X205081772Y-63297700D01*
X205069512Y-63173218D01*
X205033202Y-63053520D01*
X204974237Y-62943206D01*
X204894885Y-62846515D01*
X204798194Y-62767163D01*
X204687880Y-62708198D01*
X204568182Y-62671888D01*
X204443700Y-62659628D01*
X202743700Y-62659628D01*
X202619218Y-62671888D01*
X202499520Y-62708198D01*
X202389206Y-62767163D01*
X202292515Y-62846515D01*
X202213163Y-62943206D01*
X202154198Y-63053520D01*
X202129734Y-63134166D01*
X202053969Y-63050112D01*
X201820620Y-62876059D01*
X201557799Y-62750875D01*
X201410590Y-62706224D01*
X201180700Y-62827545D01*
X200926700Y-62827545D01*
X200696810Y-62706224D01*
X200549601Y-62750875D01*
X200286780Y-62876059D01*
X200053431Y-63050112D01*
X199858522Y-63266345D01*
X199788895Y-63383234D01*
X199667175Y-63201068D01*
X199460332Y-62994225D01*
X199217111Y-62831710D01*
X198946858Y-62719768D01*
X198659960Y-62662700D01*
X198367440Y-62662700D01*
X198080542Y-62719768D01*
X197810289Y-62831710D01*
X197567068Y-62994225D01*
X197360225Y-63201068D01*
X197243700Y-63375460D01*
X197127175Y-63201068D01*
X196920332Y-62994225D01*
X196677111Y-62831710D01*
X196406858Y-62719768D01*
X196119960Y-62662700D01*
X195827440Y-62662700D01*
X195540542Y-62719768D01*
X195270289Y-62831710D01*
X195027068Y-62994225D01*
X194820225Y-63201068D01*
X194703700Y-63375460D01*
X194587175Y-63201068D01*
X194380332Y-62994225D01*
X194137111Y-62831710D01*
X193866858Y-62719768D01*
X193579960Y-62662700D01*
X193287440Y-62662700D01*
X193000542Y-62719768D01*
X192730289Y-62831710D01*
X192487068Y-62994225D01*
X192280225Y-63201068D01*
X192117710Y-63444289D01*
X192005768Y-63714542D01*
X191948700Y-64001440D01*
X188709032Y-64001440D01*
X188645814Y-63881000D01*
X187452000Y-63881000D01*
X187198000Y-63881000D01*
X187178000Y-63881000D01*
X187178000Y-63627000D01*
X187198000Y-63627000D01*
X187198000Y-63607000D01*
X187452000Y-63607000D01*
X187452000Y-63627000D01*
X188645814Y-63627000D01*
X188766481Y-63397109D01*
X188669157Y-63122748D01*
X188520178Y-62872645D01*
X188325269Y-62656412D01*
X188091920Y-62482359D01*
X188013486Y-62445000D01*
X188106260Y-62445000D01*
X188393158Y-62387932D01*
X188467835Y-62357000D01*
X189992165Y-62357000D01*
X190066842Y-62387932D01*
X190353740Y-62445000D01*
X190646260Y-62445000D01*
X190933158Y-62387932D01*
X191007835Y-62357000D01*
X192532165Y-62357000D01*
X192606842Y-62387932D01*
X192893740Y-62445000D01*
X193186260Y-62445000D01*
X193473158Y-62387932D01*
X193547835Y-62357000D01*
X195072165Y-62357000D01*
X195146842Y-62387932D01*
X195433740Y-62445000D01*
X195726260Y-62445000D01*
X196013158Y-62387932D01*
X196087835Y-62357000D01*
X197612165Y-62357000D01*
X197686842Y-62387932D01*
X197973740Y-62445000D01*
X198266260Y-62445000D01*
X198553158Y-62387932D01*
X198627835Y-62357000D01*
X200152165Y-62357000D01*
X200226842Y-62387932D01*
X200513740Y-62445000D01*
X200806260Y-62445000D01*
X201093158Y-62387932D01*
X201167835Y-62357000D01*
X202692165Y-62357000D01*
X202766842Y-62387932D01*
X203053740Y-62445000D01*
X203346260Y-62445000D01*
X203633158Y-62387932D01*
X203707835Y-62357000D01*
X205232165Y-62357000D01*
X205306842Y-62387932D01*
X205593740Y-62445000D01*
X205886260Y-62445000D01*
X206173158Y-62387932D01*
X206247835Y-62357000D01*
X206350000Y-62357000D01*
X206350000Y-68453000D01*
X201930000Y-68453000D01*
X201905224Y-68455440D01*
X201881399Y-68462667D01*
X201859443Y-68474403D01*
X201840197Y-68490197D01*
X201824403Y-68509443D01*
X201812667Y-68531399D01*
X201805440Y-68555224D01*
X201803000Y-68580000D01*
X201803000Y-70306710D01*
X201755019Y-70354691D01*
X201606184Y-70577439D01*
X201503664Y-70824943D01*
X201451400Y-71087692D01*
X201451400Y-71355588D01*
X201503664Y-71618337D01*
X201606184Y-71865841D01*
X201755019Y-72088589D01*
X201803000Y-72136570D01*
X201803000Y-75306710D01*
X201755019Y-75354691D01*
X201606184Y-75577439D01*
X201503664Y-75824943D01*
X201451400Y-76087692D01*
X201451400Y-76355588D01*
X201503664Y-76618337D01*
X201606184Y-76865841D01*
X201755019Y-77088589D01*
X201803000Y-77136570D01*
X201803000Y-78740000D01*
X201805440Y-78764776D01*
X201812667Y-78788601D01*
X201824403Y-78810557D01*
X201840197Y-78829803D01*
X201859443Y-78845597D01*
X201881399Y-78857333D01*
X201905224Y-78864560D01*
X201930000Y-78867000D01*
X206350001Y-78867000D01*
X206350001Y-82423000D01*
X206247835Y-82423000D01*
X206173158Y-82392068D01*
X205886260Y-82335000D01*
X205593740Y-82335000D01*
X205306842Y-82392068D01*
X205232165Y-82423000D01*
X203707835Y-82423000D01*
X203633158Y-82392068D01*
X203346260Y-82335000D01*
X203053740Y-82335000D01*
X202766842Y-82392068D01*
X202692165Y-82423000D01*
X201167835Y-82423000D01*
X201093158Y-82392068D01*
X200806260Y-82335000D01*
X200513740Y-82335000D01*
X200226842Y-82392068D01*
X200152165Y-82423000D01*
X198627835Y-82423000D01*
X198553158Y-82392068D01*
X198266260Y-82335000D01*
X197973740Y-82335000D01*
X197686842Y-82392068D01*
X197612165Y-82423000D01*
X196087835Y-82423000D01*
X196013158Y-82392068D01*
X195726260Y-82335000D01*
X195433740Y-82335000D01*
X195146842Y-82392068D01*
X195072165Y-82423000D01*
X193547835Y-82423000D01*
X193473158Y-82392068D01*
X193186260Y-82335000D01*
X192893740Y-82335000D01*
X192606842Y-82392068D01*
X192532165Y-82423000D01*
X191007835Y-82423000D01*
X190933158Y-82392068D01*
X190646260Y-82335000D01*
X190353740Y-82335000D01*
X190066842Y-82392068D01*
X189992165Y-82423000D01*
X188467835Y-82423000D01*
X188393158Y-82392068D01*
X188106260Y-82335000D01*
X187813740Y-82335000D01*
X187526842Y-82392068D01*
X187452165Y-82423000D01*
X185927835Y-82423000D01*
X185853158Y-82392068D01*
X185566260Y-82335000D01*
X185273740Y-82335000D01*
X184986842Y-82392068D01*
X184912165Y-82423000D01*
X183387835Y-82423000D01*
X183313158Y-82392068D01*
X183026260Y-82335000D01*
X182733740Y-82335000D01*
X182446842Y-82392068D01*
X182372165Y-82423000D01*
X180847835Y-82423000D01*
X180773158Y-82392068D01*
X180486260Y-82335000D01*
X180193740Y-82335000D01*
X179906842Y-82392068D01*
X179832165Y-82423000D01*
X178307835Y-82423000D01*
X178233158Y-82392068D01*
X177946260Y-82335000D01*
X177653740Y-82335000D01*
X177366842Y-82392068D01*
X177292165Y-82423000D01*
X175767835Y-82423000D01*
X175693158Y-82392068D01*
X175406260Y-82335000D01*
X175113740Y-82335000D01*
X174826842Y-82392068D01*
X174752165Y-82423000D01*
X173227835Y-82423000D01*
X173153158Y-82392068D01*
X172866260Y-82335000D01*
X172573740Y-82335000D01*
X172286842Y-82392068D01*
X172212165Y-82423000D01*
X170687835Y-82423000D01*
X170613158Y-82392068D01*
X170326260Y-82335000D01*
X170033740Y-82335000D01*
X169746842Y-82392068D01*
X169672165Y-82423000D01*
X168147835Y-82423000D01*
X168073158Y-82392068D01*
X167786260Y-82335000D01*
X167493740Y-82335000D01*
X167206842Y-82392068D01*
X167132165Y-82423000D01*
X165607835Y-82423000D01*
X165533158Y-82392068D01*
X165246260Y-82335000D01*
X164953740Y-82335000D01*
X164666842Y-82392068D01*
X164592165Y-82423000D01*
X163067835Y-82423000D01*
X162993158Y-82392068D01*
X162706260Y-82335000D01*
X162413740Y-82335000D01*
X162126842Y-82392068D01*
X162052165Y-82423000D01*
X160527835Y-82423000D01*
X160453158Y-82392068D01*
X160166260Y-82335000D01*
X159873740Y-82335000D01*
X159586842Y-82392068D01*
X159512165Y-82423000D01*
X158877000Y-82423000D01*
X158877000Y-80327161D01*
X169653000Y-80327161D01*
X169653000Y-80531039D01*
X169692774Y-80730998D01*
X169770795Y-80919356D01*
X169884063Y-81088874D01*
X170028226Y-81233037D01*
X170197744Y-81346305D01*
X170386102Y-81424326D01*
X170586061Y-81464100D01*
X170789939Y-81464100D01*
X170989898Y-81424326D01*
X171178256Y-81346305D01*
X171347774Y-81233037D01*
X171491937Y-81088874D01*
X171605205Y-80919356D01*
X171619721Y-80884310D01*
X191874140Y-80884310D01*
X191874140Y-81121970D01*
X191920505Y-81355063D01*
X192011453Y-81574632D01*
X192143490Y-81772239D01*
X192311541Y-81940290D01*
X192509148Y-82072327D01*
X192728717Y-82163275D01*
X192961810Y-82209640D01*
X193199470Y-82209640D01*
X193432563Y-82163275D01*
X193652132Y-82072327D01*
X193849739Y-81940290D01*
X194017790Y-81772239D01*
X194149827Y-81574632D01*
X194240775Y-81355063D01*
X194287140Y-81121970D01*
X194287140Y-80884310D01*
X194258847Y-80742070D01*
X198818500Y-80742070D01*
X198818500Y-80979730D01*
X198864865Y-81212823D01*
X198955813Y-81432392D01*
X199087850Y-81629999D01*
X199255901Y-81798050D01*
X199453508Y-81930087D01*
X199673077Y-82021035D01*
X199906170Y-82067400D01*
X200143830Y-82067400D01*
X200376923Y-82021035D01*
X200596492Y-81930087D01*
X200794099Y-81798050D01*
X200962150Y-81629999D01*
X201094187Y-81432392D01*
X201185135Y-81212823D01*
X201231500Y-80979730D01*
X201231500Y-80742070D01*
X201185135Y-80508977D01*
X201094187Y-80289408D01*
X200962150Y-80091801D01*
X200794099Y-79923750D01*
X200596492Y-79791713D01*
X200376923Y-79700765D01*
X200143830Y-79654400D01*
X199906170Y-79654400D01*
X199673077Y-79700765D01*
X199453508Y-79791713D01*
X199255901Y-79923750D01*
X199087850Y-80091801D01*
X198955813Y-80289408D01*
X198864865Y-80508977D01*
X198818500Y-80742070D01*
X194258847Y-80742070D01*
X194240775Y-80651217D01*
X194149827Y-80431648D01*
X194017790Y-80234041D01*
X193849739Y-80065990D01*
X193652132Y-79933953D01*
X193432563Y-79843005D01*
X193199470Y-79796640D01*
X192961810Y-79796640D01*
X192728717Y-79843005D01*
X192509148Y-79933953D01*
X192311541Y-80065990D01*
X192143490Y-80234041D01*
X192011453Y-80431648D01*
X191920505Y-80651217D01*
X191874140Y-80884310D01*
X171619721Y-80884310D01*
X171683226Y-80730998D01*
X171723000Y-80531039D01*
X171723000Y-80453326D01*
X171793545Y-80321348D01*
X171837002Y-80178087D01*
X171847999Y-80066434D01*
X171847999Y-80066424D01*
X171851675Y-80029102D01*
X171847999Y-79991779D01*
X171847999Y-79975602D01*
X172543902Y-79279700D01*
X172606039Y-79279700D01*
X172805998Y-79239926D01*
X172994356Y-79161905D01*
X173163874Y-79048637D01*
X173308037Y-78904474D01*
X173421305Y-78734956D01*
X173499326Y-78546598D01*
X173539100Y-78346639D01*
X173539100Y-78142761D01*
X173499326Y-77942802D01*
X173421305Y-77754444D01*
X173308037Y-77584926D01*
X173163874Y-77440763D01*
X172994356Y-77327495D01*
X172805998Y-77249474D01*
X172606039Y-77209700D01*
X172402161Y-77209700D01*
X172202202Y-77249474D01*
X172013844Y-77327495D01*
X171844326Y-77440763D01*
X171700163Y-77584926D01*
X171586895Y-77754444D01*
X171508874Y-77942802D01*
X171469100Y-78142761D01*
X171469100Y-78204898D01*
X170577000Y-79096999D01*
X170547998Y-79120800D01*
X170453025Y-79236525D01*
X170382453Y-79368554D01*
X170359267Y-79444990D01*
X170197744Y-79511895D01*
X170028226Y-79625163D01*
X169884063Y-79769326D01*
X169770795Y-79938844D01*
X169692774Y-80127202D01*
X169653000Y-80327161D01*
X158877000Y-80327161D01*
X158877000Y-62357000D01*
X159512165Y-62357000D01*
X159586842Y-62387932D01*
G36*
X158623000Y-82406593D02*
G01*
X158574180Y-82380498D01*
X158454482Y-82344188D01*
X158330000Y-82331928D01*
X156630000Y-82331928D01*
X156505518Y-82344188D01*
X156385820Y-82380498D01*
X156306306Y-82423000D01*
X153797000Y-82423000D01*
X153797000Y-75692000D01*
X158623000Y-75692000D01*
X158623000Y-82406593D01*
G37*
X158623000Y-82406593D02*
X158574180Y-82380498D01*
X158454482Y-82344188D01*
X158330000Y-82331928D01*
X156630000Y-82331928D01*
X156505518Y-82344188D01*
X156385820Y-82380498D01*
X156306306Y-82423000D01*
X153797000Y-82423000D01*
X153797000Y-75692000D01*
X158623000Y-75692000D01*
X158623000Y-82406593D01*
G36*
X193839197Y-68682503D02*
G01*
X193858443Y-68698297D01*
X193880399Y-68710033D01*
X193904224Y-68717260D01*
X193925835Y-68719661D01*
X198386700Y-68830874D01*
X198386700Y-71154126D01*
X193827400Y-71478931D01*
X193827400Y-68670706D01*
X193839197Y-68682503D01*
G37*
X193839197Y-68682503D02*
X193858443Y-68698297D01*
X193880399Y-68710033D01*
X193904224Y-68717260D01*
X193925835Y-68719661D01*
X198386700Y-68830874D01*
X198386700Y-71154126D01*
X193827400Y-71478931D01*
X193827400Y-68670706D01*
X193839197Y-68682503D01*
M02*
