G04 #@! TF.GenerationSoftware,KiCad,Pcbnew,(5.1.5-0)*
G04 #@! TF.CreationDate,2020-02-13T07:59:00-05:00*
G04 #@! TF.ProjectId,bfunc,6266756e-632e-46b6-9963-61645f706362,rev?*
G04 #@! TF.SameCoordinates,Original*
G04 #@! TF.FileFunction,Soldermask,Bot*
G04 #@! TF.FilePolarity,Negative*
%FSLAX46Y46*%
G04 Gerber Fmt 4.6, Leading zero omitted, Abs format (unit mm)*
G04 Created by KiCad (PCBNEW (5.1.5-0)) date 2020-02-13 07:59:00*
%MOMM*%
%LPD*%
G04 APERTURE LIST*
%ADD10C,0.100000*%
G04 APERTURE END LIST*
D10*
G36*
X205853512Y-82923927D02*
G01*
X206002812Y-82953624D01*
X206166784Y-83021544D01*
X206314354Y-83120147D01*
X206439853Y-83245646D01*
X206538456Y-83393216D01*
X206606376Y-83557188D01*
X206641000Y-83731259D01*
X206641000Y-83908741D01*
X206606376Y-84082812D01*
X206538456Y-84246784D01*
X206439853Y-84394354D01*
X206314354Y-84519853D01*
X206166784Y-84618456D01*
X206002812Y-84686376D01*
X205853512Y-84716073D01*
X205828742Y-84721000D01*
X205651258Y-84721000D01*
X205626488Y-84716073D01*
X205477188Y-84686376D01*
X205313216Y-84618456D01*
X205165646Y-84519853D01*
X205040147Y-84394354D01*
X204941544Y-84246784D01*
X204873624Y-84082812D01*
X204839000Y-83908741D01*
X204839000Y-83731259D01*
X204873624Y-83557188D01*
X204941544Y-83393216D01*
X205040147Y-83245646D01*
X205165646Y-83120147D01*
X205313216Y-83021544D01*
X205477188Y-82953624D01*
X205626488Y-82923927D01*
X205651258Y-82919000D01*
X205828742Y-82919000D01*
X205853512Y-82923927D01*
G37*
G36*
X203313512Y-82923927D02*
G01*
X203462812Y-82953624D01*
X203626784Y-83021544D01*
X203774354Y-83120147D01*
X203899853Y-83245646D01*
X203998456Y-83393216D01*
X204066376Y-83557188D01*
X204101000Y-83731259D01*
X204101000Y-83908741D01*
X204066376Y-84082812D01*
X203998456Y-84246784D01*
X203899853Y-84394354D01*
X203774354Y-84519853D01*
X203626784Y-84618456D01*
X203462812Y-84686376D01*
X203313512Y-84716073D01*
X203288742Y-84721000D01*
X203111258Y-84721000D01*
X203086488Y-84716073D01*
X202937188Y-84686376D01*
X202773216Y-84618456D01*
X202625646Y-84519853D01*
X202500147Y-84394354D01*
X202401544Y-84246784D01*
X202333624Y-84082812D01*
X202299000Y-83908741D01*
X202299000Y-83731259D01*
X202333624Y-83557188D01*
X202401544Y-83393216D01*
X202500147Y-83245646D01*
X202625646Y-83120147D01*
X202773216Y-83021544D01*
X202937188Y-82953624D01*
X203086488Y-82923927D01*
X203111258Y-82919000D01*
X203288742Y-82919000D01*
X203313512Y-82923927D01*
G37*
G36*
X200773512Y-82923927D02*
G01*
X200922812Y-82953624D01*
X201086784Y-83021544D01*
X201234354Y-83120147D01*
X201359853Y-83245646D01*
X201458456Y-83393216D01*
X201526376Y-83557188D01*
X201561000Y-83731259D01*
X201561000Y-83908741D01*
X201526376Y-84082812D01*
X201458456Y-84246784D01*
X201359853Y-84394354D01*
X201234354Y-84519853D01*
X201086784Y-84618456D01*
X200922812Y-84686376D01*
X200773512Y-84716073D01*
X200748742Y-84721000D01*
X200571258Y-84721000D01*
X200546488Y-84716073D01*
X200397188Y-84686376D01*
X200233216Y-84618456D01*
X200085646Y-84519853D01*
X199960147Y-84394354D01*
X199861544Y-84246784D01*
X199793624Y-84082812D01*
X199759000Y-83908741D01*
X199759000Y-83731259D01*
X199793624Y-83557188D01*
X199861544Y-83393216D01*
X199960147Y-83245646D01*
X200085646Y-83120147D01*
X200233216Y-83021544D01*
X200397188Y-82953624D01*
X200546488Y-82923927D01*
X200571258Y-82919000D01*
X200748742Y-82919000D01*
X200773512Y-82923927D01*
G37*
G36*
X198233512Y-82923927D02*
G01*
X198382812Y-82953624D01*
X198546784Y-83021544D01*
X198694354Y-83120147D01*
X198819853Y-83245646D01*
X198918456Y-83393216D01*
X198986376Y-83557188D01*
X199021000Y-83731259D01*
X199021000Y-83908741D01*
X198986376Y-84082812D01*
X198918456Y-84246784D01*
X198819853Y-84394354D01*
X198694354Y-84519853D01*
X198546784Y-84618456D01*
X198382812Y-84686376D01*
X198233512Y-84716073D01*
X198208742Y-84721000D01*
X198031258Y-84721000D01*
X198006488Y-84716073D01*
X197857188Y-84686376D01*
X197693216Y-84618456D01*
X197545646Y-84519853D01*
X197420147Y-84394354D01*
X197321544Y-84246784D01*
X197253624Y-84082812D01*
X197219000Y-83908741D01*
X197219000Y-83731259D01*
X197253624Y-83557188D01*
X197321544Y-83393216D01*
X197420147Y-83245646D01*
X197545646Y-83120147D01*
X197693216Y-83021544D01*
X197857188Y-82953624D01*
X198006488Y-82923927D01*
X198031258Y-82919000D01*
X198208742Y-82919000D01*
X198233512Y-82923927D01*
G37*
G36*
X195693512Y-82923927D02*
G01*
X195842812Y-82953624D01*
X196006784Y-83021544D01*
X196154354Y-83120147D01*
X196279853Y-83245646D01*
X196378456Y-83393216D01*
X196446376Y-83557188D01*
X196481000Y-83731259D01*
X196481000Y-83908741D01*
X196446376Y-84082812D01*
X196378456Y-84246784D01*
X196279853Y-84394354D01*
X196154354Y-84519853D01*
X196006784Y-84618456D01*
X195842812Y-84686376D01*
X195693512Y-84716073D01*
X195668742Y-84721000D01*
X195491258Y-84721000D01*
X195466488Y-84716073D01*
X195317188Y-84686376D01*
X195153216Y-84618456D01*
X195005646Y-84519853D01*
X194880147Y-84394354D01*
X194781544Y-84246784D01*
X194713624Y-84082812D01*
X194679000Y-83908741D01*
X194679000Y-83731259D01*
X194713624Y-83557188D01*
X194781544Y-83393216D01*
X194880147Y-83245646D01*
X195005646Y-83120147D01*
X195153216Y-83021544D01*
X195317188Y-82953624D01*
X195466488Y-82923927D01*
X195491258Y-82919000D01*
X195668742Y-82919000D01*
X195693512Y-82923927D01*
G37*
G36*
X193153512Y-82923927D02*
G01*
X193302812Y-82953624D01*
X193466784Y-83021544D01*
X193614354Y-83120147D01*
X193739853Y-83245646D01*
X193838456Y-83393216D01*
X193906376Y-83557188D01*
X193941000Y-83731259D01*
X193941000Y-83908741D01*
X193906376Y-84082812D01*
X193838456Y-84246784D01*
X193739853Y-84394354D01*
X193614354Y-84519853D01*
X193466784Y-84618456D01*
X193302812Y-84686376D01*
X193153512Y-84716073D01*
X193128742Y-84721000D01*
X192951258Y-84721000D01*
X192926488Y-84716073D01*
X192777188Y-84686376D01*
X192613216Y-84618456D01*
X192465646Y-84519853D01*
X192340147Y-84394354D01*
X192241544Y-84246784D01*
X192173624Y-84082812D01*
X192139000Y-83908741D01*
X192139000Y-83731259D01*
X192173624Y-83557188D01*
X192241544Y-83393216D01*
X192340147Y-83245646D01*
X192465646Y-83120147D01*
X192613216Y-83021544D01*
X192777188Y-82953624D01*
X192926488Y-82923927D01*
X192951258Y-82919000D01*
X193128742Y-82919000D01*
X193153512Y-82923927D01*
G37*
G36*
X190613512Y-82923927D02*
G01*
X190762812Y-82953624D01*
X190926784Y-83021544D01*
X191074354Y-83120147D01*
X191199853Y-83245646D01*
X191298456Y-83393216D01*
X191366376Y-83557188D01*
X191401000Y-83731259D01*
X191401000Y-83908741D01*
X191366376Y-84082812D01*
X191298456Y-84246784D01*
X191199853Y-84394354D01*
X191074354Y-84519853D01*
X190926784Y-84618456D01*
X190762812Y-84686376D01*
X190613512Y-84716073D01*
X190588742Y-84721000D01*
X190411258Y-84721000D01*
X190386488Y-84716073D01*
X190237188Y-84686376D01*
X190073216Y-84618456D01*
X189925646Y-84519853D01*
X189800147Y-84394354D01*
X189701544Y-84246784D01*
X189633624Y-84082812D01*
X189599000Y-83908741D01*
X189599000Y-83731259D01*
X189633624Y-83557188D01*
X189701544Y-83393216D01*
X189800147Y-83245646D01*
X189925646Y-83120147D01*
X190073216Y-83021544D01*
X190237188Y-82953624D01*
X190386488Y-82923927D01*
X190411258Y-82919000D01*
X190588742Y-82919000D01*
X190613512Y-82923927D01*
G37*
G36*
X188073512Y-82923927D02*
G01*
X188222812Y-82953624D01*
X188386784Y-83021544D01*
X188534354Y-83120147D01*
X188659853Y-83245646D01*
X188758456Y-83393216D01*
X188826376Y-83557188D01*
X188861000Y-83731259D01*
X188861000Y-83908741D01*
X188826376Y-84082812D01*
X188758456Y-84246784D01*
X188659853Y-84394354D01*
X188534354Y-84519853D01*
X188386784Y-84618456D01*
X188222812Y-84686376D01*
X188073512Y-84716073D01*
X188048742Y-84721000D01*
X187871258Y-84721000D01*
X187846488Y-84716073D01*
X187697188Y-84686376D01*
X187533216Y-84618456D01*
X187385646Y-84519853D01*
X187260147Y-84394354D01*
X187161544Y-84246784D01*
X187093624Y-84082812D01*
X187059000Y-83908741D01*
X187059000Y-83731259D01*
X187093624Y-83557188D01*
X187161544Y-83393216D01*
X187260147Y-83245646D01*
X187385646Y-83120147D01*
X187533216Y-83021544D01*
X187697188Y-82953624D01*
X187846488Y-82923927D01*
X187871258Y-82919000D01*
X188048742Y-82919000D01*
X188073512Y-82923927D01*
G37*
G36*
X185533512Y-82923927D02*
G01*
X185682812Y-82953624D01*
X185846784Y-83021544D01*
X185994354Y-83120147D01*
X186119853Y-83245646D01*
X186218456Y-83393216D01*
X186286376Y-83557188D01*
X186321000Y-83731259D01*
X186321000Y-83908741D01*
X186286376Y-84082812D01*
X186218456Y-84246784D01*
X186119853Y-84394354D01*
X185994354Y-84519853D01*
X185846784Y-84618456D01*
X185682812Y-84686376D01*
X185533512Y-84716073D01*
X185508742Y-84721000D01*
X185331258Y-84721000D01*
X185306488Y-84716073D01*
X185157188Y-84686376D01*
X184993216Y-84618456D01*
X184845646Y-84519853D01*
X184720147Y-84394354D01*
X184621544Y-84246784D01*
X184553624Y-84082812D01*
X184519000Y-83908741D01*
X184519000Y-83731259D01*
X184553624Y-83557188D01*
X184621544Y-83393216D01*
X184720147Y-83245646D01*
X184845646Y-83120147D01*
X184993216Y-83021544D01*
X185157188Y-82953624D01*
X185306488Y-82923927D01*
X185331258Y-82919000D01*
X185508742Y-82919000D01*
X185533512Y-82923927D01*
G37*
G36*
X182993512Y-82923927D02*
G01*
X183142812Y-82953624D01*
X183306784Y-83021544D01*
X183454354Y-83120147D01*
X183579853Y-83245646D01*
X183678456Y-83393216D01*
X183746376Y-83557188D01*
X183781000Y-83731259D01*
X183781000Y-83908741D01*
X183746376Y-84082812D01*
X183678456Y-84246784D01*
X183579853Y-84394354D01*
X183454354Y-84519853D01*
X183306784Y-84618456D01*
X183142812Y-84686376D01*
X182993512Y-84716073D01*
X182968742Y-84721000D01*
X182791258Y-84721000D01*
X182766488Y-84716073D01*
X182617188Y-84686376D01*
X182453216Y-84618456D01*
X182305646Y-84519853D01*
X182180147Y-84394354D01*
X182081544Y-84246784D01*
X182013624Y-84082812D01*
X181979000Y-83908741D01*
X181979000Y-83731259D01*
X182013624Y-83557188D01*
X182081544Y-83393216D01*
X182180147Y-83245646D01*
X182305646Y-83120147D01*
X182453216Y-83021544D01*
X182617188Y-82953624D01*
X182766488Y-82923927D01*
X182791258Y-82919000D01*
X182968742Y-82919000D01*
X182993512Y-82923927D01*
G37*
G36*
X180453512Y-82923927D02*
G01*
X180602812Y-82953624D01*
X180766784Y-83021544D01*
X180914354Y-83120147D01*
X181039853Y-83245646D01*
X181138456Y-83393216D01*
X181206376Y-83557188D01*
X181241000Y-83731259D01*
X181241000Y-83908741D01*
X181206376Y-84082812D01*
X181138456Y-84246784D01*
X181039853Y-84394354D01*
X180914354Y-84519853D01*
X180766784Y-84618456D01*
X180602812Y-84686376D01*
X180453512Y-84716073D01*
X180428742Y-84721000D01*
X180251258Y-84721000D01*
X180226488Y-84716073D01*
X180077188Y-84686376D01*
X179913216Y-84618456D01*
X179765646Y-84519853D01*
X179640147Y-84394354D01*
X179541544Y-84246784D01*
X179473624Y-84082812D01*
X179439000Y-83908741D01*
X179439000Y-83731259D01*
X179473624Y-83557188D01*
X179541544Y-83393216D01*
X179640147Y-83245646D01*
X179765646Y-83120147D01*
X179913216Y-83021544D01*
X180077188Y-82953624D01*
X180226488Y-82923927D01*
X180251258Y-82919000D01*
X180428742Y-82919000D01*
X180453512Y-82923927D01*
G37*
G36*
X177913512Y-82923927D02*
G01*
X178062812Y-82953624D01*
X178226784Y-83021544D01*
X178374354Y-83120147D01*
X178499853Y-83245646D01*
X178598456Y-83393216D01*
X178666376Y-83557188D01*
X178701000Y-83731259D01*
X178701000Y-83908741D01*
X178666376Y-84082812D01*
X178598456Y-84246784D01*
X178499853Y-84394354D01*
X178374354Y-84519853D01*
X178226784Y-84618456D01*
X178062812Y-84686376D01*
X177913512Y-84716073D01*
X177888742Y-84721000D01*
X177711258Y-84721000D01*
X177686488Y-84716073D01*
X177537188Y-84686376D01*
X177373216Y-84618456D01*
X177225646Y-84519853D01*
X177100147Y-84394354D01*
X177001544Y-84246784D01*
X176933624Y-84082812D01*
X176899000Y-83908741D01*
X176899000Y-83731259D01*
X176933624Y-83557188D01*
X177001544Y-83393216D01*
X177100147Y-83245646D01*
X177225646Y-83120147D01*
X177373216Y-83021544D01*
X177537188Y-82953624D01*
X177686488Y-82923927D01*
X177711258Y-82919000D01*
X177888742Y-82919000D01*
X177913512Y-82923927D01*
G37*
G36*
X175373512Y-82923927D02*
G01*
X175522812Y-82953624D01*
X175686784Y-83021544D01*
X175834354Y-83120147D01*
X175959853Y-83245646D01*
X176058456Y-83393216D01*
X176126376Y-83557188D01*
X176161000Y-83731259D01*
X176161000Y-83908741D01*
X176126376Y-84082812D01*
X176058456Y-84246784D01*
X175959853Y-84394354D01*
X175834354Y-84519853D01*
X175686784Y-84618456D01*
X175522812Y-84686376D01*
X175373512Y-84716073D01*
X175348742Y-84721000D01*
X175171258Y-84721000D01*
X175146488Y-84716073D01*
X174997188Y-84686376D01*
X174833216Y-84618456D01*
X174685646Y-84519853D01*
X174560147Y-84394354D01*
X174461544Y-84246784D01*
X174393624Y-84082812D01*
X174359000Y-83908741D01*
X174359000Y-83731259D01*
X174393624Y-83557188D01*
X174461544Y-83393216D01*
X174560147Y-83245646D01*
X174685646Y-83120147D01*
X174833216Y-83021544D01*
X174997188Y-82953624D01*
X175146488Y-82923927D01*
X175171258Y-82919000D01*
X175348742Y-82919000D01*
X175373512Y-82923927D01*
G37*
G36*
X172833512Y-82923927D02*
G01*
X172982812Y-82953624D01*
X173146784Y-83021544D01*
X173294354Y-83120147D01*
X173419853Y-83245646D01*
X173518456Y-83393216D01*
X173586376Y-83557188D01*
X173621000Y-83731259D01*
X173621000Y-83908741D01*
X173586376Y-84082812D01*
X173518456Y-84246784D01*
X173419853Y-84394354D01*
X173294354Y-84519853D01*
X173146784Y-84618456D01*
X172982812Y-84686376D01*
X172833512Y-84716073D01*
X172808742Y-84721000D01*
X172631258Y-84721000D01*
X172606488Y-84716073D01*
X172457188Y-84686376D01*
X172293216Y-84618456D01*
X172145646Y-84519853D01*
X172020147Y-84394354D01*
X171921544Y-84246784D01*
X171853624Y-84082812D01*
X171819000Y-83908741D01*
X171819000Y-83731259D01*
X171853624Y-83557188D01*
X171921544Y-83393216D01*
X172020147Y-83245646D01*
X172145646Y-83120147D01*
X172293216Y-83021544D01*
X172457188Y-82953624D01*
X172606488Y-82923927D01*
X172631258Y-82919000D01*
X172808742Y-82919000D01*
X172833512Y-82923927D01*
G37*
G36*
X170293512Y-82923927D02*
G01*
X170442812Y-82953624D01*
X170606784Y-83021544D01*
X170754354Y-83120147D01*
X170879853Y-83245646D01*
X170978456Y-83393216D01*
X171046376Y-83557188D01*
X171081000Y-83731259D01*
X171081000Y-83908741D01*
X171046376Y-84082812D01*
X170978456Y-84246784D01*
X170879853Y-84394354D01*
X170754354Y-84519853D01*
X170606784Y-84618456D01*
X170442812Y-84686376D01*
X170293512Y-84716073D01*
X170268742Y-84721000D01*
X170091258Y-84721000D01*
X170066488Y-84716073D01*
X169917188Y-84686376D01*
X169753216Y-84618456D01*
X169605646Y-84519853D01*
X169480147Y-84394354D01*
X169381544Y-84246784D01*
X169313624Y-84082812D01*
X169279000Y-83908741D01*
X169279000Y-83731259D01*
X169313624Y-83557188D01*
X169381544Y-83393216D01*
X169480147Y-83245646D01*
X169605646Y-83120147D01*
X169753216Y-83021544D01*
X169917188Y-82953624D01*
X170066488Y-82923927D01*
X170091258Y-82919000D01*
X170268742Y-82919000D01*
X170293512Y-82923927D01*
G37*
G36*
X167753512Y-82923927D02*
G01*
X167902812Y-82953624D01*
X168066784Y-83021544D01*
X168214354Y-83120147D01*
X168339853Y-83245646D01*
X168438456Y-83393216D01*
X168506376Y-83557188D01*
X168541000Y-83731259D01*
X168541000Y-83908741D01*
X168506376Y-84082812D01*
X168438456Y-84246784D01*
X168339853Y-84394354D01*
X168214354Y-84519853D01*
X168066784Y-84618456D01*
X167902812Y-84686376D01*
X167753512Y-84716073D01*
X167728742Y-84721000D01*
X167551258Y-84721000D01*
X167526488Y-84716073D01*
X167377188Y-84686376D01*
X167213216Y-84618456D01*
X167065646Y-84519853D01*
X166940147Y-84394354D01*
X166841544Y-84246784D01*
X166773624Y-84082812D01*
X166739000Y-83908741D01*
X166739000Y-83731259D01*
X166773624Y-83557188D01*
X166841544Y-83393216D01*
X166940147Y-83245646D01*
X167065646Y-83120147D01*
X167213216Y-83021544D01*
X167377188Y-82953624D01*
X167526488Y-82923927D01*
X167551258Y-82919000D01*
X167728742Y-82919000D01*
X167753512Y-82923927D01*
G37*
G36*
X165213512Y-82923927D02*
G01*
X165362812Y-82953624D01*
X165526784Y-83021544D01*
X165674354Y-83120147D01*
X165799853Y-83245646D01*
X165898456Y-83393216D01*
X165966376Y-83557188D01*
X166001000Y-83731259D01*
X166001000Y-83908741D01*
X165966376Y-84082812D01*
X165898456Y-84246784D01*
X165799853Y-84394354D01*
X165674354Y-84519853D01*
X165526784Y-84618456D01*
X165362812Y-84686376D01*
X165213512Y-84716073D01*
X165188742Y-84721000D01*
X165011258Y-84721000D01*
X164986488Y-84716073D01*
X164837188Y-84686376D01*
X164673216Y-84618456D01*
X164525646Y-84519853D01*
X164400147Y-84394354D01*
X164301544Y-84246784D01*
X164233624Y-84082812D01*
X164199000Y-83908741D01*
X164199000Y-83731259D01*
X164233624Y-83557188D01*
X164301544Y-83393216D01*
X164400147Y-83245646D01*
X164525646Y-83120147D01*
X164673216Y-83021544D01*
X164837188Y-82953624D01*
X164986488Y-82923927D01*
X165011258Y-82919000D01*
X165188742Y-82919000D01*
X165213512Y-82923927D01*
G37*
G36*
X162673512Y-82923927D02*
G01*
X162822812Y-82953624D01*
X162986784Y-83021544D01*
X163134354Y-83120147D01*
X163259853Y-83245646D01*
X163358456Y-83393216D01*
X163426376Y-83557188D01*
X163461000Y-83731259D01*
X163461000Y-83908741D01*
X163426376Y-84082812D01*
X163358456Y-84246784D01*
X163259853Y-84394354D01*
X163134354Y-84519853D01*
X162986784Y-84618456D01*
X162822812Y-84686376D01*
X162673512Y-84716073D01*
X162648742Y-84721000D01*
X162471258Y-84721000D01*
X162446488Y-84716073D01*
X162297188Y-84686376D01*
X162133216Y-84618456D01*
X161985646Y-84519853D01*
X161860147Y-84394354D01*
X161761544Y-84246784D01*
X161693624Y-84082812D01*
X161659000Y-83908741D01*
X161659000Y-83731259D01*
X161693624Y-83557188D01*
X161761544Y-83393216D01*
X161860147Y-83245646D01*
X161985646Y-83120147D01*
X162133216Y-83021544D01*
X162297188Y-82953624D01*
X162446488Y-82923927D01*
X162471258Y-82919000D01*
X162648742Y-82919000D01*
X162673512Y-82923927D01*
G37*
G36*
X160133512Y-82923927D02*
G01*
X160282812Y-82953624D01*
X160446784Y-83021544D01*
X160594354Y-83120147D01*
X160719853Y-83245646D01*
X160818456Y-83393216D01*
X160886376Y-83557188D01*
X160921000Y-83731259D01*
X160921000Y-83908741D01*
X160886376Y-84082812D01*
X160818456Y-84246784D01*
X160719853Y-84394354D01*
X160594354Y-84519853D01*
X160446784Y-84618456D01*
X160282812Y-84686376D01*
X160133512Y-84716073D01*
X160108742Y-84721000D01*
X159931258Y-84721000D01*
X159906488Y-84716073D01*
X159757188Y-84686376D01*
X159593216Y-84618456D01*
X159445646Y-84519853D01*
X159320147Y-84394354D01*
X159221544Y-84246784D01*
X159153624Y-84082812D01*
X159119000Y-83908741D01*
X159119000Y-83731259D01*
X159153624Y-83557188D01*
X159221544Y-83393216D01*
X159320147Y-83245646D01*
X159445646Y-83120147D01*
X159593216Y-83021544D01*
X159757188Y-82953624D01*
X159906488Y-82923927D01*
X159931258Y-82919000D01*
X160108742Y-82919000D01*
X160133512Y-82923927D01*
G37*
G36*
X158381000Y-84721000D02*
G01*
X156579000Y-84721000D01*
X156579000Y-82919000D01*
X158381000Y-82919000D01*
X158381000Y-84721000D01*
G37*
G36*
X193202084Y-80392601D02*
G01*
X193262217Y-80404562D01*
X193299979Y-80420204D01*
X193375506Y-80451488D01*
X193477458Y-80519610D01*
X193564170Y-80606322D01*
X193632292Y-80708274D01*
X193679218Y-80821564D01*
X193703140Y-80941828D01*
X193703140Y-81064452D01*
X193679218Y-81184716D01*
X193632292Y-81298006D01*
X193564170Y-81399958D01*
X193477458Y-81486670D01*
X193375506Y-81554792D01*
X193299979Y-81586076D01*
X193262217Y-81601718D01*
X193202084Y-81613679D01*
X193141952Y-81625640D01*
X193019328Y-81625640D01*
X192959196Y-81613679D01*
X192899063Y-81601718D01*
X192861301Y-81586076D01*
X192785774Y-81554792D01*
X192683822Y-81486670D01*
X192597110Y-81399958D01*
X192528988Y-81298006D01*
X192482062Y-81184716D01*
X192458140Y-81064452D01*
X192458140Y-80941828D01*
X192482062Y-80821564D01*
X192528988Y-80708274D01*
X192597110Y-80606322D01*
X192683822Y-80519610D01*
X192785774Y-80451488D01*
X192861301Y-80420204D01*
X192899063Y-80404562D01*
X192959196Y-80392601D01*
X193019328Y-80380640D01*
X193141952Y-80380640D01*
X193202084Y-80392601D01*
G37*
G36*
X200146444Y-80250361D02*
G01*
X200206577Y-80262322D01*
X200244339Y-80277964D01*
X200319866Y-80309248D01*
X200421818Y-80377370D01*
X200508530Y-80464082D01*
X200576652Y-80566034D01*
X200623578Y-80679324D01*
X200647500Y-80799588D01*
X200647500Y-80922212D01*
X200623578Y-81042476D01*
X200576652Y-81155766D01*
X200508530Y-81257718D01*
X200421818Y-81344430D01*
X200319866Y-81412552D01*
X200244339Y-81443836D01*
X200206577Y-81459478D01*
X200146444Y-81471439D01*
X200086312Y-81483400D01*
X199963688Y-81483400D01*
X199903556Y-81471439D01*
X199843423Y-81459478D01*
X199805661Y-81443836D01*
X199730134Y-81412552D01*
X199628182Y-81344430D01*
X199541470Y-81257718D01*
X199473348Y-81155766D01*
X199426422Y-81042476D01*
X199402500Y-80922212D01*
X199402500Y-80799588D01*
X199426422Y-80679324D01*
X199473348Y-80566034D01*
X199541470Y-80464082D01*
X199628182Y-80377370D01*
X199730134Y-80309248D01*
X199805661Y-80277964D01*
X199843423Y-80262322D01*
X199903556Y-80250361D01*
X199963688Y-80238400D01*
X200086312Y-80238400D01*
X200146444Y-80250361D01*
G37*
G36*
X151650000Y-79018700D02*
G01*
X149848000Y-79018700D01*
X149848000Y-77216700D01*
X151650000Y-77216700D01*
X151650000Y-79018700D01*
G37*
G36*
X148322512Y-77221627D02*
G01*
X148471812Y-77251324D01*
X148635784Y-77319244D01*
X148783354Y-77417847D01*
X148908853Y-77543346D01*
X149007456Y-77690916D01*
X149075376Y-77854888D01*
X149110000Y-78028959D01*
X149110000Y-78206441D01*
X149075376Y-78380512D01*
X149007456Y-78544484D01*
X148908853Y-78692054D01*
X148783354Y-78817553D01*
X148635784Y-78916156D01*
X148471812Y-78984076D01*
X148322512Y-79013773D01*
X148297742Y-79018700D01*
X148120258Y-79018700D01*
X148095488Y-79013773D01*
X147946188Y-78984076D01*
X147782216Y-78916156D01*
X147634646Y-78817553D01*
X147509147Y-78692054D01*
X147410544Y-78544484D01*
X147342624Y-78380512D01*
X147308000Y-78206441D01*
X147308000Y-78028959D01*
X147342624Y-77854888D01*
X147410544Y-77690916D01*
X147509147Y-77543346D01*
X147634646Y-77417847D01*
X147782216Y-77319244D01*
X147946188Y-77251324D01*
X148095488Y-77221627D01*
X148120258Y-77216700D01*
X148297742Y-77216700D01*
X148322512Y-77221627D01*
G37*
G36*
X205925255Y-76573780D02*
G01*
X205989018Y-76580060D01*
X206079804Y-76607600D01*
X206111736Y-76617286D01*
X206224825Y-76677734D01*
X206323954Y-76759086D01*
X206405306Y-76858215D01*
X206465754Y-76971304D01*
X206465755Y-76971308D01*
X206502980Y-77094022D01*
X206515549Y-77221640D01*
X206502980Y-77349258D01*
X206482174Y-77417847D01*
X206465754Y-77471976D01*
X206405306Y-77585065D01*
X206323954Y-77684194D01*
X206224825Y-77765546D01*
X206111736Y-77825994D01*
X206079804Y-77835680D01*
X205989018Y-77863220D01*
X205925255Y-77869500D01*
X205893374Y-77872640D01*
X205129426Y-77872640D01*
X205097545Y-77869500D01*
X205033782Y-77863220D01*
X204942996Y-77835680D01*
X204911064Y-77825994D01*
X204797975Y-77765546D01*
X204698846Y-77684194D01*
X204617494Y-77585065D01*
X204557046Y-77471976D01*
X204540626Y-77417847D01*
X204519820Y-77349258D01*
X204507251Y-77221640D01*
X204519820Y-77094022D01*
X204557045Y-76971308D01*
X204557046Y-76971304D01*
X204617494Y-76858215D01*
X204698846Y-76759086D01*
X204797975Y-76677734D01*
X204911064Y-76617286D01*
X204942996Y-76607600D01*
X205033782Y-76580060D01*
X205097545Y-76573780D01*
X205129426Y-76570640D01*
X205893374Y-76570640D01*
X205925255Y-76573780D01*
G37*
G36*
X203037748Y-75475460D02*
G01*
X203037750Y-75475461D01*
X203037751Y-75475461D01*
X203178974Y-75533957D01*
X203178977Y-75533959D01*
X203306069Y-75618879D01*
X203414161Y-75726971D01*
X203499081Y-75854063D01*
X203499083Y-75854066D01*
X203557579Y-75995289D01*
X203587400Y-76145211D01*
X203587400Y-76298069D01*
X203557579Y-76447991D01*
X203499083Y-76589214D01*
X203499081Y-76589217D01*
X203414161Y-76716309D01*
X203306069Y-76824401D01*
X203178977Y-76909321D01*
X203178974Y-76909323D01*
X203037751Y-76967819D01*
X203037750Y-76967819D01*
X203037748Y-76967820D01*
X202887831Y-76997640D01*
X202734969Y-76997640D01*
X202585052Y-76967820D01*
X202585050Y-76967819D01*
X202585049Y-76967819D01*
X202443826Y-76909323D01*
X202443823Y-76909321D01*
X202316731Y-76824401D01*
X202208639Y-76716309D01*
X202123719Y-76589217D01*
X202123717Y-76589214D01*
X202065221Y-76447991D01*
X202035400Y-76298069D01*
X202035400Y-76145211D01*
X202065221Y-75995289D01*
X202123717Y-75854066D01*
X202123719Y-75854063D01*
X202208639Y-75726971D01*
X202316731Y-75618879D01*
X202443823Y-75533959D01*
X202443826Y-75533957D01*
X202585049Y-75475461D01*
X202585050Y-75475461D01*
X202585052Y-75475460D01*
X202734969Y-75445640D01*
X202887831Y-75445640D01*
X203037748Y-75475460D01*
G37*
G36*
X147993179Y-69899912D02*
G01*
X148119144Y-69924968D01*
X148231008Y-69971304D01*
X148475112Y-70072415D01*
X148475113Y-70072416D01*
X148795477Y-70286476D01*
X149067924Y-70558923D01*
X149180210Y-70726971D01*
X149281985Y-70879288D01*
X149429432Y-71235257D01*
X149504600Y-71613149D01*
X149504600Y-71998451D01*
X149429432Y-72376343D01*
X149281985Y-72732312D01*
X149281984Y-72732313D01*
X149067924Y-73052677D01*
X148795477Y-73325124D01*
X148581416Y-73468155D01*
X148475112Y-73539185D01*
X148266591Y-73625557D01*
X148119144Y-73686632D01*
X147993179Y-73711688D01*
X147741251Y-73761800D01*
X147355949Y-73761800D01*
X147104021Y-73711688D01*
X146978056Y-73686632D01*
X146830609Y-73625557D01*
X146622088Y-73539185D01*
X146515784Y-73468155D01*
X146301723Y-73325124D01*
X146029276Y-73052677D01*
X145815216Y-72732313D01*
X145815215Y-72732312D01*
X145667768Y-72376343D01*
X145592600Y-71998451D01*
X145592600Y-71613149D01*
X145667768Y-71235257D01*
X145815215Y-70879288D01*
X145916990Y-70726971D01*
X146029276Y-70558923D01*
X146301723Y-70286476D01*
X146622087Y-70072416D01*
X146622088Y-70072415D01*
X146866192Y-69971304D01*
X146978056Y-69924968D01*
X147104021Y-69899912D01*
X147355949Y-69849800D01*
X147741251Y-69849800D01*
X147993179Y-69899912D01*
G37*
G36*
X154343179Y-69899912D02*
G01*
X154469144Y-69924968D01*
X154581008Y-69971304D01*
X154825112Y-70072415D01*
X154825113Y-70072416D01*
X155145477Y-70286476D01*
X155417924Y-70558923D01*
X155530210Y-70726971D01*
X155631985Y-70879288D01*
X155779432Y-71235257D01*
X155854600Y-71613149D01*
X155854600Y-71998451D01*
X155779432Y-72376343D01*
X155631985Y-72732312D01*
X155631984Y-72732313D01*
X155417924Y-73052677D01*
X155145477Y-73325124D01*
X154931416Y-73468155D01*
X154825112Y-73539185D01*
X154616591Y-73625557D01*
X154469144Y-73686632D01*
X154343179Y-73711688D01*
X154091251Y-73761800D01*
X153705949Y-73761800D01*
X153454021Y-73711688D01*
X153328056Y-73686632D01*
X153180609Y-73625557D01*
X152972088Y-73539185D01*
X152865784Y-73468155D01*
X152651723Y-73325124D01*
X152379276Y-73052677D01*
X152165216Y-72732313D01*
X152165215Y-72732312D01*
X152017768Y-72376343D01*
X151942600Y-71998451D01*
X151942600Y-71613149D01*
X152017768Y-71235257D01*
X152165215Y-70879288D01*
X152266990Y-70726971D01*
X152379276Y-70558923D01*
X152651723Y-70286476D01*
X152972087Y-70072416D01*
X152972088Y-70072415D01*
X153216192Y-69971304D01*
X153328056Y-69924968D01*
X153454021Y-69899912D01*
X153705949Y-69849800D01*
X154091251Y-69849800D01*
X154343179Y-69899912D01*
G37*
G36*
X203037748Y-70475460D02*
G01*
X203037750Y-70475461D01*
X203037751Y-70475461D01*
X203178974Y-70533957D01*
X203178977Y-70533959D01*
X203306069Y-70618879D01*
X203414161Y-70726971D01*
X203499081Y-70854063D01*
X203499083Y-70854066D01*
X203557579Y-70995289D01*
X203587400Y-71145211D01*
X203587400Y-71298069D01*
X203557579Y-71447991D01*
X203499083Y-71589214D01*
X203499081Y-71589217D01*
X203414161Y-71716309D01*
X203306069Y-71824401D01*
X203178977Y-71909321D01*
X203178974Y-71909323D01*
X203037751Y-71967819D01*
X203037750Y-71967819D01*
X203037748Y-71967820D01*
X202887831Y-71997640D01*
X202734969Y-71997640D01*
X202585052Y-71967820D01*
X202585050Y-71967819D01*
X202585049Y-71967819D01*
X202443826Y-71909323D01*
X202443823Y-71909321D01*
X202316731Y-71824401D01*
X202208639Y-71716309D01*
X202123719Y-71589217D01*
X202123717Y-71589214D01*
X202065221Y-71447991D01*
X202035400Y-71298069D01*
X202035400Y-71145211D01*
X202065221Y-70995289D01*
X202123717Y-70854066D01*
X202123719Y-70854063D01*
X202208639Y-70726971D01*
X202316731Y-70618879D01*
X202443823Y-70533959D01*
X202443826Y-70533957D01*
X202585049Y-70475461D01*
X202585050Y-70475461D01*
X202585052Y-70475460D01*
X202734969Y-70445640D01*
X202887831Y-70445640D01*
X203037748Y-70475460D01*
G37*
G36*
X205925255Y-69573780D02*
G01*
X205989018Y-69580060D01*
X206079804Y-69607600D01*
X206111736Y-69617286D01*
X206224825Y-69677734D01*
X206323954Y-69759086D01*
X206405306Y-69858215D01*
X206465754Y-69971304D01*
X206465755Y-69971308D01*
X206502980Y-70094022D01*
X206515549Y-70221640D01*
X206502980Y-70349258D01*
X206475440Y-70440044D01*
X206465754Y-70471976D01*
X206405306Y-70585065D01*
X206323954Y-70684194D01*
X206224825Y-70765546D01*
X206111736Y-70825994D01*
X206079804Y-70835680D01*
X205989018Y-70863220D01*
X205925255Y-70869500D01*
X205893374Y-70872640D01*
X205129426Y-70872640D01*
X205097545Y-70869500D01*
X205033782Y-70863220D01*
X204942996Y-70835680D01*
X204911064Y-70825994D01*
X204797975Y-70765546D01*
X204698846Y-70684194D01*
X204617494Y-70585065D01*
X204557046Y-70471976D01*
X204547360Y-70440044D01*
X204519820Y-70349258D01*
X204507251Y-70221640D01*
X204519820Y-70094022D01*
X204557045Y-69971308D01*
X204557046Y-69971304D01*
X204617494Y-69858215D01*
X204698846Y-69759086D01*
X204797975Y-69677734D01*
X204911064Y-69617286D01*
X204942996Y-69607600D01*
X205033782Y-69580060D01*
X205097545Y-69573780D01*
X205129426Y-69570640D01*
X205893374Y-69570640D01*
X205925255Y-69573780D01*
G37*
G36*
X151080420Y-66836943D02*
G01*
X151257100Y-66872087D01*
X151394973Y-66929196D01*
X151589955Y-67009960D01*
X151589956Y-67009961D01*
X151889520Y-67210123D01*
X152144277Y-67464880D01*
X152144278Y-67464882D01*
X152344440Y-67764445D01*
X152482313Y-68097301D01*
X152552600Y-68450658D01*
X152552600Y-68810942D01*
X152482313Y-69164299D01*
X152344440Y-69497155D01*
X152264171Y-69617286D01*
X152144277Y-69796720D01*
X151889520Y-70051477D01*
X151825847Y-70094022D01*
X151589955Y-70251640D01*
X151394973Y-70332404D01*
X151257100Y-70389513D01*
X151080421Y-70424656D01*
X150903742Y-70459800D01*
X150543458Y-70459800D01*
X150366779Y-70424656D01*
X150190100Y-70389513D01*
X150052227Y-70332404D01*
X149857245Y-70251640D01*
X149621353Y-70094022D01*
X149557680Y-70051477D01*
X149302923Y-69796720D01*
X149183029Y-69617286D01*
X149102760Y-69497155D01*
X148964887Y-69164299D01*
X148894600Y-68810942D01*
X148894600Y-68450658D01*
X148964887Y-68097301D01*
X149102760Y-67764445D01*
X149302922Y-67464882D01*
X149302923Y-67464880D01*
X149557680Y-67210123D01*
X149857244Y-67009961D01*
X149857245Y-67009960D01*
X150052227Y-66929196D01*
X150190100Y-66872087D01*
X150366780Y-66836943D01*
X150543458Y-66801800D01*
X150903742Y-66801800D01*
X151080420Y-66836943D01*
G37*
G36*
X193547212Y-65791627D02*
G01*
X193696512Y-65821324D01*
X193860484Y-65889244D01*
X194008054Y-65987847D01*
X194133553Y-66113346D01*
X194232156Y-66260916D01*
X194300076Y-66424888D01*
X194334700Y-66598959D01*
X194334700Y-66776441D01*
X194300076Y-66950512D01*
X194232156Y-67114484D01*
X194133553Y-67262054D01*
X194008054Y-67387553D01*
X193860484Y-67486156D01*
X193696512Y-67554076D01*
X193547212Y-67583773D01*
X193522442Y-67588700D01*
X193344958Y-67588700D01*
X193320188Y-67583773D01*
X193170888Y-67554076D01*
X193006916Y-67486156D01*
X192859346Y-67387553D01*
X192733847Y-67262054D01*
X192635244Y-67114484D01*
X192567324Y-66950512D01*
X192532700Y-66776441D01*
X192532700Y-66598959D01*
X192567324Y-66424888D01*
X192635244Y-66260916D01*
X192733847Y-66113346D01*
X192859346Y-65987847D01*
X193006916Y-65889244D01*
X193170888Y-65821324D01*
X193320188Y-65791627D01*
X193344958Y-65786700D01*
X193522442Y-65786700D01*
X193547212Y-65791627D01*
G37*
G36*
X196087212Y-65791627D02*
G01*
X196236512Y-65821324D01*
X196400484Y-65889244D01*
X196548054Y-65987847D01*
X196673553Y-66113346D01*
X196772156Y-66260916D01*
X196840076Y-66424888D01*
X196874700Y-66598959D01*
X196874700Y-66776441D01*
X196840076Y-66950512D01*
X196772156Y-67114484D01*
X196673553Y-67262054D01*
X196548054Y-67387553D01*
X196400484Y-67486156D01*
X196236512Y-67554076D01*
X196087212Y-67583773D01*
X196062442Y-67588700D01*
X195884958Y-67588700D01*
X195860188Y-67583773D01*
X195710888Y-67554076D01*
X195546916Y-67486156D01*
X195399346Y-67387553D01*
X195273847Y-67262054D01*
X195175244Y-67114484D01*
X195107324Y-66950512D01*
X195072700Y-66776441D01*
X195072700Y-66598959D01*
X195107324Y-66424888D01*
X195175244Y-66260916D01*
X195273847Y-66113346D01*
X195399346Y-65987847D01*
X195546916Y-65889244D01*
X195710888Y-65821324D01*
X195860188Y-65791627D01*
X195884958Y-65786700D01*
X196062442Y-65786700D01*
X196087212Y-65791627D01*
G37*
G36*
X198627212Y-65791627D02*
G01*
X198776512Y-65821324D01*
X198940484Y-65889244D01*
X199088054Y-65987847D01*
X199213553Y-66113346D01*
X199312156Y-66260916D01*
X199380076Y-66424888D01*
X199414700Y-66598959D01*
X199414700Y-66776441D01*
X199380076Y-66950512D01*
X199312156Y-67114484D01*
X199213553Y-67262054D01*
X199088054Y-67387553D01*
X198940484Y-67486156D01*
X198776512Y-67554076D01*
X198627212Y-67583773D01*
X198602442Y-67588700D01*
X198424958Y-67588700D01*
X198400188Y-67583773D01*
X198250888Y-67554076D01*
X198086916Y-67486156D01*
X197939346Y-67387553D01*
X197813847Y-67262054D01*
X197715244Y-67114484D01*
X197647324Y-66950512D01*
X197612700Y-66776441D01*
X197612700Y-66598959D01*
X197647324Y-66424888D01*
X197715244Y-66260916D01*
X197813847Y-66113346D01*
X197939346Y-65987847D01*
X198086916Y-65889244D01*
X198250888Y-65821324D01*
X198400188Y-65791627D01*
X198424958Y-65786700D01*
X198602442Y-65786700D01*
X198627212Y-65791627D01*
G37*
G36*
X201167212Y-65791627D02*
G01*
X201316512Y-65821324D01*
X201480484Y-65889244D01*
X201628054Y-65987847D01*
X201753553Y-66113346D01*
X201852156Y-66260916D01*
X201920076Y-66424888D01*
X201954700Y-66598959D01*
X201954700Y-66776441D01*
X201920076Y-66950512D01*
X201852156Y-67114484D01*
X201753553Y-67262054D01*
X201628054Y-67387553D01*
X201480484Y-67486156D01*
X201316512Y-67554076D01*
X201167212Y-67583773D01*
X201142442Y-67588700D01*
X200964958Y-67588700D01*
X200940188Y-67583773D01*
X200790888Y-67554076D01*
X200626916Y-67486156D01*
X200479346Y-67387553D01*
X200353847Y-67262054D01*
X200255244Y-67114484D01*
X200187324Y-66950512D01*
X200152700Y-66776441D01*
X200152700Y-66598959D01*
X200187324Y-66424888D01*
X200255244Y-66260916D01*
X200353847Y-66113346D01*
X200479346Y-65987847D01*
X200626916Y-65889244D01*
X200790888Y-65821324D01*
X200940188Y-65791627D01*
X200964958Y-65786700D01*
X201142442Y-65786700D01*
X201167212Y-65791627D01*
G37*
G36*
X203707212Y-65791627D02*
G01*
X203856512Y-65821324D01*
X204020484Y-65889244D01*
X204168054Y-65987847D01*
X204293553Y-66113346D01*
X204392156Y-66260916D01*
X204460076Y-66424888D01*
X204494700Y-66598959D01*
X204494700Y-66776441D01*
X204460076Y-66950512D01*
X204392156Y-67114484D01*
X204293553Y-67262054D01*
X204168054Y-67387553D01*
X204020484Y-67486156D01*
X203856512Y-67554076D01*
X203707212Y-67583773D01*
X203682442Y-67588700D01*
X203504958Y-67588700D01*
X203480188Y-67583773D01*
X203330888Y-67554076D01*
X203166916Y-67486156D01*
X203019346Y-67387553D01*
X202893847Y-67262054D01*
X202795244Y-67114484D01*
X202727324Y-66950512D01*
X202692700Y-66776441D01*
X202692700Y-66598959D01*
X202727324Y-66424888D01*
X202795244Y-66260916D01*
X202893847Y-66113346D01*
X203019346Y-65987847D01*
X203166916Y-65889244D01*
X203330888Y-65821324D01*
X203480188Y-65791627D01*
X203504958Y-65786700D01*
X203682442Y-65786700D01*
X203707212Y-65791627D01*
G37*
G36*
X147993179Y-63549912D02*
G01*
X148119144Y-63574968D01*
X148266591Y-63636043D01*
X148475112Y-63722415D01*
X148475113Y-63722416D01*
X148795477Y-63936476D01*
X149067924Y-64208923D01*
X149147724Y-64328353D01*
X149281985Y-64529288D01*
X149361831Y-64722053D01*
X149429432Y-64885256D01*
X149504600Y-65263151D01*
X149504600Y-65648449D01*
X149437090Y-65987847D01*
X149429432Y-66026343D01*
X149281985Y-66382312D01*
X149253536Y-66424889D01*
X149067924Y-66702677D01*
X148795477Y-66975124D01*
X148586913Y-67114482D01*
X148475112Y-67189185D01*
X148299193Y-67262053D01*
X148119144Y-67336632D01*
X147993179Y-67361688D01*
X147741251Y-67411800D01*
X147355949Y-67411800D01*
X147104021Y-67361688D01*
X146978056Y-67336632D01*
X146798007Y-67262053D01*
X146622088Y-67189185D01*
X146510287Y-67114482D01*
X146301723Y-66975124D01*
X146029276Y-66702677D01*
X145843664Y-66424889D01*
X145815215Y-66382312D01*
X145667768Y-66026343D01*
X145660111Y-65987847D01*
X145592600Y-65648449D01*
X145592600Y-65263151D01*
X145667768Y-64885256D01*
X145735369Y-64722053D01*
X145815215Y-64529288D01*
X145949476Y-64328353D01*
X146029276Y-64208923D01*
X146301723Y-63936476D01*
X146622087Y-63722416D01*
X146622088Y-63722415D01*
X146830609Y-63636043D01*
X146978056Y-63574968D01*
X147104021Y-63549912D01*
X147355949Y-63499800D01*
X147741251Y-63499800D01*
X147993179Y-63549912D01*
G37*
G36*
X154343179Y-63549912D02*
G01*
X154469144Y-63574968D01*
X154616591Y-63636043D01*
X154825112Y-63722415D01*
X154825113Y-63722416D01*
X155145477Y-63936476D01*
X155417924Y-64208923D01*
X155497724Y-64328353D01*
X155631985Y-64529288D01*
X155711831Y-64722053D01*
X155779432Y-64885256D01*
X155854600Y-65263151D01*
X155854600Y-65648449D01*
X155787090Y-65987847D01*
X155779432Y-66026343D01*
X155631985Y-66382312D01*
X155603536Y-66424889D01*
X155417924Y-66702677D01*
X155145477Y-66975124D01*
X154936913Y-67114482D01*
X154825112Y-67189185D01*
X154649193Y-67262053D01*
X154469144Y-67336632D01*
X154343179Y-67361688D01*
X154091251Y-67411800D01*
X153705949Y-67411800D01*
X153454021Y-67361688D01*
X153328056Y-67336632D01*
X153148007Y-67262053D01*
X152972088Y-67189185D01*
X152860287Y-67114482D01*
X152651723Y-66975124D01*
X152379276Y-66702677D01*
X152193664Y-66424889D01*
X152165215Y-66382312D01*
X152017768Y-66026343D01*
X152010111Y-65987847D01*
X151942600Y-65648449D01*
X151942600Y-65263151D01*
X152017768Y-64885256D01*
X152085369Y-64722053D01*
X152165215Y-64529288D01*
X152299476Y-64328353D01*
X152379276Y-64208923D01*
X152651723Y-63936476D01*
X152972087Y-63722416D01*
X152972088Y-63722415D01*
X153180609Y-63636043D01*
X153328056Y-63574968D01*
X153454021Y-63549912D01*
X153705949Y-63499800D01*
X154091251Y-63499800D01*
X154343179Y-63549912D01*
G37*
G36*
X193547212Y-63251627D02*
G01*
X193696512Y-63281324D01*
X193860484Y-63349244D01*
X194008054Y-63447847D01*
X194133553Y-63573346D01*
X194232156Y-63720916D01*
X194300076Y-63884888D01*
X194334700Y-64058959D01*
X194334700Y-64236441D01*
X194300076Y-64410512D01*
X194232156Y-64574484D01*
X194133553Y-64722054D01*
X194008054Y-64847553D01*
X193860484Y-64946156D01*
X193696512Y-65014076D01*
X193547212Y-65043773D01*
X193522442Y-65048700D01*
X193344958Y-65048700D01*
X193320188Y-65043773D01*
X193170888Y-65014076D01*
X193006916Y-64946156D01*
X192859346Y-64847553D01*
X192733847Y-64722054D01*
X192635244Y-64574484D01*
X192567324Y-64410512D01*
X192532700Y-64236441D01*
X192532700Y-64058959D01*
X192567324Y-63884888D01*
X192635244Y-63720916D01*
X192733847Y-63573346D01*
X192859346Y-63447847D01*
X193006916Y-63349244D01*
X193170888Y-63281324D01*
X193320188Y-63251627D01*
X193344958Y-63246700D01*
X193522442Y-63246700D01*
X193547212Y-63251627D01*
G37*
G36*
X196087212Y-63251627D02*
G01*
X196236512Y-63281324D01*
X196400484Y-63349244D01*
X196548054Y-63447847D01*
X196673553Y-63573346D01*
X196772156Y-63720916D01*
X196840076Y-63884888D01*
X196874700Y-64058959D01*
X196874700Y-64236441D01*
X196840076Y-64410512D01*
X196772156Y-64574484D01*
X196673553Y-64722054D01*
X196548054Y-64847553D01*
X196400484Y-64946156D01*
X196236512Y-65014076D01*
X196087212Y-65043773D01*
X196062442Y-65048700D01*
X195884958Y-65048700D01*
X195860188Y-65043773D01*
X195710888Y-65014076D01*
X195546916Y-64946156D01*
X195399346Y-64847553D01*
X195273847Y-64722054D01*
X195175244Y-64574484D01*
X195107324Y-64410512D01*
X195072700Y-64236441D01*
X195072700Y-64058959D01*
X195107324Y-63884888D01*
X195175244Y-63720916D01*
X195273847Y-63573346D01*
X195399346Y-63447847D01*
X195546916Y-63349244D01*
X195710888Y-63281324D01*
X195860188Y-63251627D01*
X195884958Y-63246700D01*
X196062442Y-63246700D01*
X196087212Y-63251627D01*
G37*
G36*
X198627212Y-63251627D02*
G01*
X198776512Y-63281324D01*
X198940484Y-63349244D01*
X199088054Y-63447847D01*
X199213553Y-63573346D01*
X199312156Y-63720916D01*
X199380076Y-63884888D01*
X199414700Y-64058959D01*
X199414700Y-64236441D01*
X199380076Y-64410512D01*
X199312156Y-64574484D01*
X199213553Y-64722054D01*
X199088054Y-64847553D01*
X198940484Y-64946156D01*
X198776512Y-65014076D01*
X198627212Y-65043773D01*
X198602442Y-65048700D01*
X198424958Y-65048700D01*
X198400188Y-65043773D01*
X198250888Y-65014076D01*
X198086916Y-64946156D01*
X197939346Y-64847553D01*
X197813847Y-64722054D01*
X197715244Y-64574484D01*
X197647324Y-64410512D01*
X197612700Y-64236441D01*
X197612700Y-64058959D01*
X197647324Y-63884888D01*
X197715244Y-63720916D01*
X197813847Y-63573346D01*
X197939346Y-63447847D01*
X198086916Y-63349244D01*
X198250888Y-63281324D01*
X198400188Y-63251627D01*
X198424958Y-63246700D01*
X198602442Y-63246700D01*
X198627212Y-63251627D01*
G37*
G36*
X201167212Y-63251627D02*
G01*
X201316512Y-63281324D01*
X201480484Y-63349244D01*
X201628054Y-63447847D01*
X201753553Y-63573346D01*
X201852156Y-63720916D01*
X201920076Y-63884888D01*
X201954700Y-64058959D01*
X201954700Y-64236441D01*
X201920076Y-64410512D01*
X201852156Y-64574484D01*
X201753553Y-64722054D01*
X201628054Y-64847553D01*
X201480484Y-64946156D01*
X201316512Y-65014076D01*
X201167212Y-65043773D01*
X201142442Y-65048700D01*
X200964958Y-65048700D01*
X200940188Y-65043773D01*
X200790888Y-65014076D01*
X200626916Y-64946156D01*
X200479346Y-64847553D01*
X200353847Y-64722054D01*
X200255244Y-64574484D01*
X200187324Y-64410512D01*
X200152700Y-64236441D01*
X200152700Y-64058959D01*
X200187324Y-63884888D01*
X200255244Y-63720916D01*
X200353847Y-63573346D01*
X200479346Y-63447847D01*
X200626916Y-63349244D01*
X200790888Y-63281324D01*
X200940188Y-63251627D01*
X200964958Y-63246700D01*
X201142442Y-63246700D01*
X201167212Y-63251627D01*
G37*
G36*
X204494700Y-65048700D02*
G01*
X202692700Y-65048700D01*
X202692700Y-63246700D01*
X204494700Y-63246700D01*
X204494700Y-65048700D01*
G37*
G36*
X187438512Y-62857927D02*
G01*
X187587812Y-62887624D01*
X187751784Y-62955544D01*
X187899354Y-63054147D01*
X188024853Y-63179646D01*
X188123456Y-63327216D01*
X188191376Y-63491188D01*
X188226000Y-63665259D01*
X188226000Y-63842741D01*
X188191376Y-64016812D01*
X188123456Y-64180784D01*
X188024853Y-64328354D01*
X187899354Y-64453853D01*
X187751784Y-64552456D01*
X187587812Y-64620376D01*
X187438512Y-64650073D01*
X187413742Y-64655000D01*
X187236258Y-64655000D01*
X187211488Y-64650073D01*
X187062188Y-64620376D01*
X186898216Y-64552456D01*
X186750646Y-64453853D01*
X186625147Y-64328354D01*
X186526544Y-64180784D01*
X186458624Y-64016812D01*
X186424000Y-63842741D01*
X186424000Y-63665259D01*
X186458624Y-63491188D01*
X186526544Y-63327216D01*
X186625147Y-63179646D01*
X186750646Y-63054147D01*
X186898216Y-62955544D01*
X187062188Y-62887624D01*
X187211488Y-62857927D01*
X187236258Y-62853000D01*
X187413742Y-62853000D01*
X187438512Y-62857927D01*
G37*
G36*
X183146000Y-64655000D02*
G01*
X181344000Y-64655000D01*
X181344000Y-62853000D01*
X183146000Y-62853000D01*
X183146000Y-64655000D01*
G37*
G36*
X184898512Y-62857927D02*
G01*
X185047812Y-62887624D01*
X185211784Y-62955544D01*
X185359354Y-63054147D01*
X185484853Y-63179646D01*
X185583456Y-63327216D01*
X185651376Y-63491188D01*
X185686000Y-63665259D01*
X185686000Y-63842741D01*
X185651376Y-64016812D01*
X185583456Y-64180784D01*
X185484853Y-64328354D01*
X185359354Y-64453853D01*
X185211784Y-64552456D01*
X185047812Y-64620376D01*
X184898512Y-64650073D01*
X184873742Y-64655000D01*
X184696258Y-64655000D01*
X184671488Y-64650073D01*
X184522188Y-64620376D01*
X184358216Y-64552456D01*
X184210646Y-64453853D01*
X184085147Y-64328354D01*
X183986544Y-64180784D01*
X183918624Y-64016812D01*
X183884000Y-63842741D01*
X183884000Y-63665259D01*
X183918624Y-63491188D01*
X183986544Y-63327216D01*
X184085147Y-63179646D01*
X184210646Y-63054147D01*
X184358216Y-62955544D01*
X184522188Y-62887624D01*
X184671488Y-62857927D01*
X184696258Y-62853000D01*
X184873742Y-62853000D01*
X184898512Y-62857927D01*
G37*
G36*
X205853512Y-60063927D02*
G01*
X206002812Y-60093624D01*
X206166784Y-60161544D01*
X206314354Y-60260147D01*
X206439853Y-60385646D01*
X206538456Y-60533216D01*
X206606376Y-60697188D01*
X206641000Y-60871259D01*
X206641000Y-61048741D01*
X206606376Y-61222812D01*
X206538456Y-61386784D01*
X206439853Y-61534354D01*
X206314354Y-61659853D01*
X206166784Y-61758456D01*
X206002812Y-61826376D01*
X205853512Y-61856073D01*
X205828742Y-61861000D01*
X205651258Y-61861000D01*
X205626488Y-61856073D01*
X205477188Y-61826376D01*
X205313216Y-61758456D01*
X205165646Y-61659853D01*
X205040147Y-61534354D01*
X204941544Y-61386784D01*
X204873624Y-61222812D01*
X204839000Y-61048741D01*
X204839000Y-60871259D01*
X204873624Y-60697188D01*
X204941544Y-60533216D01*
X205040147Y-60385646D01*
X205165646Y-60260147D01*
X205313216Y-60161544D01*
X205477188Y-60093624D01*
X205626488Y-60063927D01*
X205651258Y-60059000D01*
X205828742Y-60059000D01*
X205853512Y-60063927D01*
G37*
G36*
X203313512Y-60063927D02*
G01*
X203462812Y-60093624D01*
X203626784Y-60161544D01*
X203774354Y-60260147D01*
X203899853Y-60385646D01*
X203998456Y-60533216D01*
X204066376Y-60697188D01*
X204101000Y-60871259D01*
X204101000Y-61048741D01*
X204066376Y-61222812D01*
X203998456Y-61386784D01*
X203899853Y-61534354D01*
X203774354Y-61659853D01*
X203626784Y-61758456D01*
X203462812Y-61826376D01*
X203313512Y-61856073D01*
X203288742Y-61861000D01*
X203111258Y-61861000D01*
X203086488Y-61856073D01*
X202937188Y-61826376D01*
X202773216Y-61758456D01*
X202625646Y-61659853D01*
X202500147Y-61534354D01*
X202401544Y-61386784D01*
X202333624Y-61222812D01*
X202299000Y-61048741D01*
X202299000Y-60871259D01*
X202333624Y-60697188D01*
X202401544Y-60533216D01*
X202500147Y-60385646D01*
X202625646Y-60260147D01*
X202773216Y-60161544D01*
X202937188Y-60093624D01*
X203086488Y-60063927D01*
X203111258Y-60059000D01*
X203288742Y-60059000D01*
X203313512Y-60063927D01*
G37*
G36*
X200773512Y-60063927D02*
G01*
X200922812Y-60093624D01*
X201086784Y-60161544D01*
X201234354Y-60260147D01*
X201359853Y-60385646D01*
X201458456Y-60533216D01*
X201526376Y-60697188D01*
X201561000Y-60871259D01*
X201561000Y-61048741D01*
X201526376Y-61222812D01*
X201458456Y-61386784D01*
X201359853Y-61534354D01*
X201234354Y-61659853D01*
X201086784Y-61758456D01*
X200922812Y-61826376D01*
X200773512Y-61856073D01*
X200748742Y-61861000D01*
X200571258Y-61861000D01*
X200546488Y-61856073D01*
X200397188Y-61826376D01*
X200233216Y-61758456D01*
X200085646Y-61659853D01*
X199960147Y-61534354D01*
X199861544Y-61386784D01*
X199793624Y-61222812D01*
X199759000Y-61048741D01*
X199759000Y-60871259D01*
X199793624Y-60697188D01*
X199861544Y-60533216D01*
X199960147Y-60385646D01*
X200085646Y-60260147D01*
X200233216Y-60161544D01*
X200397188Y-60093624D01*
X200546488Y-60063927D01*
X200571258Y-60059000D01*
X200748742Y-60059000D01*
X200773512Y-60063927D01*
G37*
G36*
X198233512Y-60063927D02*
G01*
X198382812Y-60093624D01*
X198546784Y-60161544D01*
X198694354Y-60260147D01*
X198819853Y-60385646D01*
X198918456Y-60533216D01*
X198986376Y-60697188D01*
X199021000Y-60871259D01*
X199021000Y-61048741D01*
X198986376Y-61222812D01*
X198918456Y-61386784D01*
X198819853Y-61534354D01*
X198694354Y-61659853D01*
X198546784Y-61758456D01*
X198382812Y-61826376D01*
X198233512Y-61856073D01*
X198208742Y-61861000D01*
X198031258Y-61861000D01*
X198006488Y-61856073D01*
X197857188Y-61826376D01*
X197693216Y-61758456D01*
X197545646Y-61659853D01*
X197420147Y-61534354D01*
X197321544Y-61386784D01*
X197253624Y-61222812D01*
X197219000Y-61048741D01*
X197219000Y-60871259D01*
X197253624Y-60697188D01*
X197321544Y-60533216D01*
X197420147Y-60385646D01*
X197545646Y-60260147D01*
X197693216Y-60161544D01*
X197857188Y-60093624D01*
X198006488Y-60063927D01*
X198031258Y-60059000D01*
X198208742Y-60059000D01*
X198233512Y-60063927D01*
G37*
G36*
X195693512Y-60063927D02*
G01*
X195842812Y-60093624D01*
X196006784Y-60161544D01*
X196154354Y-60260147D01*
X196279853Y-60385646D01*
X196378456Y-60533216D01*
X196446376Y-60697188D01*
X196481000Y-60871259D01*
X196481000Y-61048741D01*
X196446376Y-61222812D01*
X196378456Y-61386784D01*
X196279853Y-61534354D01*
X196154354Y-61659853D01*
X196006784Y-61758456D01*
X195842812Y-61826376D01*
X195693512Y-61856073D01*
X195668742Y-61861000D01*
X195491258Y-61861000D01*
X195466488Y-61856073D01*
X195317188Y-61826376D01*
X195153216Y-61758456D01*
X195005646Y-61659853D01*
X194880147Y-61534354D01*
X194781544Y-61386784D01*
X194713624Y-61222812D01*
X194679000Y-61048741D01*
X194679000Y-60871259D01*
X194713624Y-60697188D01*
X194781544Y-60533216D01*
X194880147Y-60385646D01*
X195005646Y-60260147D01*
X195153216Y-60161544D01*
X195317188Y-60093624D01*
X195466488Y-60063927D01*
X195491258Y-60059000D01*
X195668742Y-60059000D01*
X195693512Y-60063927D01*
G37*
G36*
X193153512Y-60063927D02*
G01*
X193302812Y-60093624D01*
X193466784Y-60161544D01*
X193614354Y-60260147D01*
X193739853Y-60385646D01*
X193838456Y-60533216D01*
X193906376Y-60697188D01*
X193941000Y-60871259D01*
X193941000Y-61048741D01*
X193906376Y-61222812D01*
X193838456Y-61386784D01*
X193739853Y-61534354D01*
X193614354Y-61659853D01*
X193466784Y-61758456D01*
X193302812Y-61826376D01*
X193153512Y-61856073D01*
X193128742Y-61861000D01*
X192951258Y-61861000D01*
X192926488Y-61856073D01*
X192777188Y-61826376D01*
X192613216Y-61758456D01*
X192465646Y-61659853D01*
X192340147Y-61534354D01*
X192241544Y-61386784D01*
X192173624Y-61222812D01*
X192139000Y-61048741D01*
X192139000Y-60871259D01*
X192173624Y-60697188D01*
X192241544Y-60533216D01*
X192340147Y-60385646D01*
X192465646Y-60260147D01*
X192613216Y-60161544D01*
X192777188Y-60093624D01*
X192926488Y-60063927D01*
X192951258Y-60059000D01*
X193128742Y-60059000D01*
X193153512Y-60063927D01*
G37*
G36*
X190613512Y-60063927D02*
G01*
X190762812Y-60093624D01*
X190926784Y-60161544D01*
X191074354Y-60260147D01*
X191199853Y-60385646D01*
X191298456Y-60533216D01*
X191366376Y-60697188D01*
X191401000Y-60871259D01*
X191401000Y-61048741D01*
X191366376Y-61222812D01*
X191298456Y-61386784D01*
X191199853Y-61534354D01*
X191074354Y-61659853D01*
X190926784Y-61758456D01*
X190762812Y-61826376D01*
X190613512Y-61856073D01*
X190588742Y-61861000D01*
X190411258Y-61861000D01*
X190386488Y-61856073D01*
X190237188Y-61826376D01*
X190073216Y-61758456D01*
X189925646Y-61659853D01*
X189800147Y-61534354D01*
X189701544Y-61386784D01*
X189633624Y-61222812D01*
X189599000Y-61048741D01*
X189599000Y-60871259D01*
X189633624Y-60697188D01*
X189701544Y-60533216D01*
X189800147Y-60385646D01*
X189925646Y-60260147D01*
X190073216Y-60161544D01*
X190237188Y-60093624D01*
X190386488Y-60063927D01*
X190411258Y-60059000D01*
X190588742Y-60059000D01*
X190613512Y-60063927D01*
G37*
G36*
X188073512Y-60063927D02*
G01*
X188222812Y-60093624D01*
X188386784Y-60161544D01*
X188534354Y-60260147D01*
X188659853Y-60385646D01*
X188758456Y-60533216D01*
X188826376Y-60697188D01*
X188861000Y-60871259D01*
X188861000Y-61048741D01*
X188826376Y-61222812D01*
X188758456Y-61386784D01*
X188659853Y-61534354D01*
X188534354Y-61659853D01*
X188386784Y-61758456D01*
X188222812Y-61826376D01*
X188073512Y-61856073D01*
X188048742Y-61861000D01*
X187871258Y-61861000D01*
X187846488Y-61856073D01*
X187697188Y-61826376D01*
X187533216Y-61758456D01*
X187385646Y-61659853D01*
X187260147Y-61534354D01*
X187161544Y-61386784D01*
X187093624Y-61222812D01*
X187059000Y-61048741D01*
X187059000Y-60871259D01*
X187093624Y-60697188D01*
X187161544Y-60533216D01*
X187260147Y-60385646D01*
X187385646Y-60260147D01*
X187533216Y-60161544D01*
X187697188Y-60093624D01*
X187846488Y-60063927D01*
X187871258Y-60059000D01*
X188048742Y-60059000D01*
X188073512Y-60063927D01*
G37*
G36*
X185533512Y-60063927D02*
G01*
X185682812Y-60093624D01*
X185846784Y-60161544D01*
X185994354Y-60260147D01*
X186119853Y-60385646D01*
X186218456Y-60533216D01*
X186286376Y-60697188D01*
X186321000Y-60871259D01*
X186321000Y-61048741D01*
X186286376Y-61222812D01*
X186218456Y-61386784D01*
X186119853Y-61534354D01*
X185994354Y-61659853D01*
X185846784Y-61758456D01*
X185682812Y-61826376D01*
X185533512Y-61856073D01*
X185508742Y-61861000D01*
X185331258Y-61861000D01*
X185306488Y-61856073D01*
X185157188Y-61826376D01*
X184993216Y-61758456D01*
X184845646Y-61659853D01*
X184720147Y-61534354D01*
X184621544Y-61386784D01*
X184553624Y-61222812D01*
X184519000Y-61048741D01*
X184519000Y-60871259D01*
X184553624Y-60697188D01*
X184621544Y-60533216D01*
X184720147Y-60385646D01*
X184845646Y-60260147D01*
X184993216Y-60161544D01*
X185157188Y-60093624D01*
X185306488Y-60063927D01*
X185331258Y-60059000D01*
X185508742Y-60059000D01*
X185533512Y-60063927D01*
G37*
G36*
X182993512Y-60063927D02*
G01*
X183142812Y-60093624D01*
X183306784Y-60161544D01*
X183454354Y-60260147D01*
X183579853Y-60385646D01*
X183678456Y-60533216D01*
X183746376Y-60697188D01*
X183781000Y-60871259D01*
X183781000Y-61048741D01*
X183746376Y-61222812D01*
X183678456Y-61386784D01*
X183579853Y-61534354D01*
X183454354Y-61659853D01*
X183306784Y-61758456D01*
X183142812Y-61826376D01*
X182993512Y-61856073D01*
X182968742Y-61861000D01*
X182791258Y-61861000D01*
X182766488Y-61856073D01*
X182617188Y-61826376D01*
X182453216Y-61758456D01*
X182305646Y-61659853D01*
X182180147Y-61534354D01*
X182081544Y-61386784D01*
X182013624Y-61222812D01*
X181979000Y-61048741D01*
X181979000Y-60871259D01*
X182013624Y-60697188D01*
X182081544Y-60533216D01*
X182180147Y-60385646D01*
X182305646Y-60260147D01*
X182453216Y-60161544D01*
X182617188Y-60093624D01*
X182766488Y-60063927D01*
X182791258Y-60059000D01*
X182968742Y-60059000D01*
X182993512Y-60063927D01*
G37*
G36*
X180453512Y-60063927D02*
G01*
X180602812Y-60093624D01*
X180766784Y-60161544D01*
X180914354Y-60260147D01*
X181039853Y-60385646D01*
X181138456Y-60533216D01*
X181206376Y-60697188D01*
X181241000Y-60871259D01*
X181241000Y-61048741D01*
X181206376Y-61222812D01*
X181138456Y-61386784D01*
X181039853Y-61534354D01*
X180914354Y-61659853D01*
X180766784Y-61758456D01*
X180602812Y-61826376D01*
X180453512Y-61856073D01*
X180428742Y-61861000D01*
X180251258Y-61861000D01*
X180226488Y-61856073D01*
X180077188Y-61826376D01*
X179913216Y-61758456D01*
X179765646Y-61659853D01*
X179640147Y-61534354D01*
X179541544Y-61386784D01*
X179473624Y-61222812D01*
X179439000Y-61048741D01*
X179439000Y-60871259D01*
X179473624Y-60697188D01*
X179541544Y-60533216D01*
X179640147Y-60385646D01*
X179765646Y-60260147D01*
X179913216Y-60161544D01*
X180077188Y-60093624D01*
X180226488Y-60063927D01*
X180251258Y-60059000D01*
X180428742Y-60059000D01*
X180453512Y-60063927D01*
G37*
G36*
X177913512Y-60063927D02*
G01*
X178062812Y-60093624D01*
X178226784Y-60161544D01*
X178374354Y-60260147D01*
X178499853Y-60385646D01*
X178598456Y-60533216D01*
X178666376Y-60697188D01*
X178701000Y-60871259D01*
X178701000Y-61048741D01*
X178666376Y-61222812D01*
X178598456Y-61386784D01*
X178499853Y-61534354D01*
X178374354Y-61659853D01*
X178226784Y-61758456D01*
X178062812Y-61826376D01*
X177913512Y-61856073D01*
X177888742Y-61861000D01*
X177711258Y-61861000D01*
X177686488Y-61856073D01*
X177537188Y-61826376D01*
X177373216Y-61758456D01*
X177225646Y-61659853D01*
X177100147Y-61534354D01*
X177001544Y-61386784D01*
X176933624Y-61222812D01*
X176899000Y-61048741D01*
X176899000Y-60871259D01*
X176933624Y-60697188D01*
X177001544Y-60533216D01*
X177100147Y-60385646D01*
X177225646Y-60260147D01*
X177373216Y-60161544D01*
X177537188Y-60093624D01*
X177686488Y-60063927D01*
X177711258Y-60059000D01*
X177888742Y-60059000D01*
X177913512Y-60063927D01*
G37*
G36*
X175373512Y-60063927D02*
G01*
X175522812Y-60093624D01*
X175686784Y-60161544D01*
X175834354Y-60260147D01*
X175959853Y-60385646D01*
X176058456Y-60533216D01*
X176126376Y-60697188D01*
X176161000Y-60871259D01*
X176161000Y-61048741D01*
X176126376Y-61222812D01*
X176058456Y-61386784D01*
X175959853Y-61534354D01*
X175834354Y-61659853D01*
X175686784Y-61758456D01*
X175522812Y-61826376D01*
X175373512Y-61856073D01*
X175348742Y-61861000D01*
X175171258Y-61861000D01*
X175146488Y-61856073D01*
X174997188Y-61826376D01*
X174833216Y-61758456D01*
X174685646Y-61659853D01*
X174560147Y-61534354D01*
X174461544Y-61386784D01*
X174393624Y-61222812D01*
X174359000Y-61048741D01*
X174359000Y-60871259D01*
X174393624Y-60697188D01*
X174461544Y-60533216D01*
X174560147Y-60385646D01*
X174685646Y-60260147D01*
X174833216Y-60161544D01*
X174997188Y-60093624D01*
X175146488Y-60063927D01*
X175171258Y-60059000D01*
X175348742Y-60059000D01*
X175373512Y-60063927D01*
G37*
G36*
X172833512Y-60063927D02*
G01*
X172982812Y-60093624D01*
X173146784Y-60161544D01*
X173294354Y-60260147D01*
X173419853Y-60385646D01*
X173518456Y-60533216D01*
X173586376Y-60697188D01*
X173621000Y-60871259D01*
X173621000Y-61048741D01*
X173586376Y-61222812D01*
X173518456Y-61386784D01*
X173419853Y-61534354D01*
X173294354Y-61659853D01*
X173146784Y-61758456D01*
X172982812Y-61826376D01*
X172833512Y-61856073D01*
X172808742Y-61861000D01*
X172631258Y-61861000D01*
X172606488Y-61856073D01*
X172457188Y-61826376D01*
X172293216Y-61758456D01*
X172145646Y-61659853D01*
X172020147Y-61534354D01*
X171921544Y-61386784D01*
X171853624Y-61222812D01*
X171819000Y-61048741D01*
X171819000Y-60871259D01*
X171853624Y-60697188D01*
X171921544Y-60533216D01*
X172020147Y-60385646D01*
X172145646Y-60260147D01*
X172293216Y-60161544D01*
X172457188Y-60093624D01*
X172606488Y-60063927D01*
X172631258Y-60059000D01*
X172808742Y-60059000D01*
X172833512Y-60063927D01*
G37*
G36*
X170293512Y-60063927D02*
G01*
X170442812Y-60093624D01*
X170606784Y-60161544D01*
X170754354Y-60260147D01*
X170879853Y-60385646D01*
X170978456Y-60533216D01*
X171046376Y-60697188D01*
X171081000Y-60871259D01*
X171081000Y-61048741D01*
X171046376Y-61222812D01*
X170978456Y-61386784D01*
X170879853Y-61534354D01*
X170754354Y-61659853D01*
X170606784Y-61758456D01*
X170442812Y-61826376D01*
X170293512Y-61856073D01*
X170268742Y-61861000D01*
X170091258Y-61861000D01*
X170066488Y-61856073D01*
X169917188Y-61826376D01*
X169753216Y-61758456D01*
X169605646Y-61659853D01*
X169480147Y-61534354D01*
X169381544Y-61386784D01*
X169313624Y-61222812D01*
X169279000Y-61048741D01*
X169279000Y-60871259D01*
X169313624Y-60697188D01*
X169381544Y-60533216D01*
X169480147Y-60385646D01*
X169605646Y-60260147D01*
X169753216Y-60161544D01*
X169917188Y-60093624D01*
X170066488Y-60063927D01*
X170091258Y-60059000D01*
X170268742Y-60059000D01*
X170293512Y-60063927D01*
G37*
G36*
X167753512Y-60063927D02*
G01*
X167902812Y-60093624D01*
X168066784Y-60161544D01*
X168214354Y-60260147D01*
X168339853Y-60385646D01*
X168438456Y-60533216D01*
X168506376Y-60697188D01*
X168541000Y-60871259D01*
X168541000Y-61048741D01*
X168506376Y-61222812D01*
X168438456Y-61386784D01*
X168339853Y-61534354D01*
X168214354Y-61659853D01*
X168066784Y-61758456D01*
X167902812Y-61826376D01*
X167753512Y-61856073D01*
X167728742Y-61861000D01*
X167551258Y-61861000D01*
X167526488Y-61856073D01*
X167377188Y-61826376D01*
X167213216Y-61758456D01*
X167065646Y-61659853D01*
X166940147Y-61534354D01*
X166841544Y-61386784D01*
X166773624Y-61222812D01*
X166739000Y-61048741D01*
X166739000Y-60871259D01*
X166773624Y-60697188D01*
X166841544Y-60533216D01*
X166940147Y-60385646D01*
X167065646Y-60260147D01*
X167213216Y-60161544D01*
X167377188Y-60093624D01*
X167526488Y-60063927D01*
X167551258Y-60059000D01*
X167728742Y-60059000D01*
X167753512Y-60063927D01*
G37*
G36*
X165213512Y-60063927D02*
G01*
X165362812Y-60093624D01*
X165526784Y-60161544D01*
X165674354Y-60260147D01*
X165799853Y-60385646D01*
X165898456Y-60533216D01*
X165966376Y-60697188D01*
X166001000Y-60871259D01*
X166001000Y-61048741D01*
X165966376Y-61222812D01*
X165898456Y-61386784D01*
X165799853Y-61534354D01*
X165674354Y-61659853D01*
X165526784Y-61758456D01*
X165362812Y-61826376D01*
X165213512Y-61856073D01*
X165188742Y-61861000D01*
X165011258Y-61861000D01*
X164986488Y-61856073D01*
X164837188Y-61826376D01*
X164673216Y-61758456D01*
X164525646Y-61659853D01*
X164400147Y-61534354D01*
X164301544Y-61386784D01*
X164233624Y-61222812D01*
X164199000Y-61048741D01*
X164199000Y-60871259D01*
X164233624Y-60697188D01*
X164301544Y-60533216D01*
X164400147Y-60385646D01*
X164525646Y-60260147D01*
X164673216Y-60161544D01*
X164837188Y-60093624D01*
X164986488Y-60063927D01*
X165011258Y-60059000D01*
X165188742Y-60059000D01*
X165213512Y-60063927D01*
G37*
G36*
X162673512Y-60063927D02*
G01*
X162822812Y-60093624D01*
X162986784Y-60161544D01*
X163134354Y-60260147D01*
X163259853Y-60385646D01*
X163358456Y-60533216D01*
X163426376Y-60697188D01*
X163461000Y-60871259D01*
X163461000Y-61048741D01*
X163426376Y-61222812D01*
X163358456Y-61386784D01*
X163259853Y-61534354D01*
X163134354Y-61659853D01*
X162986784Y-61758456D01*
X162822812Y-61826376D01*
X162673512Y-61856073D01*
X162648742Y-61861000D01*
X162471258Y-61861000D01*
X162446488Y-61856073D01*
X162297188Y-61826376D01*
X162133216Y-61758456D01*
X161985646Y-61659853D01*
X161860147Y-61534354D01*
X161761544Y-61386784D01*
X161693624Y-61222812D01*
X161659000Y-61048741D01*
X161659000Y-60871259D01*
X161693624Y-60697188D01*
X161761544Y-60533216D01*
X161860147Y-60385646D01*
X161985646Y-60260147D01*
X162133216Y-60161544D01*
X162297188Y-60093624D01*
X162446488Y-60063927D01*
X162471258Y-60059000D01*
X162648742Y-60059000D01*
X162673512Y-60063927D01*
G37*
G36*
X160133512Y-60063927D02*
G01*
X160282812Y-60093624D01*
X160446784Y-60161544D01*
X160594354Y-60260147D01*
X160719853Y-60385646D01*
X160818456Y-60533216D01*
X160886376Y-60697188D01*
X160921000Y-60871259D01*
X160921000Y-61048741D01*
X160886376Y-61222812D01*
X160818456Y-61386784D01*
X160719853Y-61534354D01*
X160594354Y-61659853D01*
X160446784Y-61758456D01*
X160282812Y-61826376D01*
X160133512Y-61856073D01*
X160108742Y-61861000D01*
X159931258Y-61861000D01*
X159906488Y-61856073D01*
X159757188Y-61826376D01*
X159593216Y-61758456D01*
X159445646Y-61659853D01*
X159320147Y-61534354D01*
X159221544Y-61386784D01*
X159153624Y-61222812D01*
X159119000Y-61048741D01*
X159119000Y-60871259D01*
X159153624Y-60697188D01*
X159221544Y-60533216D01*
X159320147Y-60385646D01*
X159445646Y-60260147D01*
X159593216Y-60161544D01*
X159757188Y-60093624D01*
X159906488Y-60063927D01*
X159931258Y-60059000D01*
X160108742Y-60059000D01*
X160133512Y-60063927D01*
G37*
G36*
X158381000Y-61861000D02*
G01*
X156579000Y-61861000D01*
X156579000Y-60059000D01*
X158381000Y-60059000D01*
X158381000Y-61861000D01*
G37*
M02*
